<?xml version="1.0" encoding="utf-8"?>
<svg xmlns="http://www.w3.org/2000/svg" viewBox="0 0 30 30" fill="#ffffff"><path d="M24.707,8.793l-6.5-6.5C18.019,2.105,17.765,2,17.5,2H7C5.895,2,5,2.895,5,4v22c0,1.105,0.895,2,2,2h16c1.105,0,2-0.895,2-2 V9.5C25,9.235,24.895,8.981,24.707,8.793z M17.293,14.707c-0.391-0.391-0.391-1.023,0-1.414s1.023-0.391,1.414,0l0.793,0.793 l0.793-0.793c0.391-0.391,1.023-0.391,1.414,0s0.391,1.023,0,1.414L20.914,15.5l0.793,0.793c0.391,0.391,0.391,1.023,0,1.414 C21.512,17.902,21.256,18,21,18s-0.512-0.098-0.707-0.293L19.5,16.914l-0.793,0.793C18.512,17.902,18.256,18,18,18 s-0.512-0.098-0.707-0.293c-0.391-0.391-0.391-1.023,0-1.414l0.793-0.793L17.293,14.707z M9,23H8c-0.552,0-1-0.447-1-1s0.448-1,1-1 h1c0.552,0,1,0.447,1,1S9.552,23,9,23z M9,16H8c-0.552,0-1-0.447-1-1s0.448-1,1-1h1c0.552,0,1,0.447,1,1S9.552,16,9,16z M14,23h-1 c-0.552,0-1-0.447-1-1s0.448-1,1-1h1c0.552,0,1,0.447,1,1S14.552,23,14,23z M14,16h-1c-0.552,0-1-0.447-1-1s0.448-1,1-1h1 c0.552,0,1,0.447,1,1S14.552,16,14,16z M22.707,21.707l-3,3C19.512,24.902,19.256,25,19,25s-0.512-0.098-0.707-0.293l-1-1 c-0.391-0.391-0.391-1.023,0-1.414s1.023-0.391,1.414,0L19,22.586l2.293-2.293c0.391-0.391,1.023-0.391,1.414,0 S23.098,21.316,22.707,21.707z M18,10c-0.552,0-1-0.448-1-1V3.904L23.096,10H18z" fill="#ffffff"/></svg>
