<svg width="54" height="54" viewBox="0 0 54 54" fill="none" xmlns="http://www.w3.org/2000/svg">
<g clip-path="url(#clip0)">
<path d="M7.20004 9C6.72267 9.00005 6.26486 9.18971 5.9273 9.52726C5.58975 9.86482 5.40009 10.3226 5.40004 10.8V41.4C5.39677 41.6624 5.45088 41.9223 5.5586 42.1615C5.66632 42.4008 5.82503 42.6136 6.02363 42.7851C6.22223 42.9565 6.45591 43.0825 6.70831 43.1542C6.96071 43.2259 7.22573 43.2415 7.48481 43.2H16.8293C16.4297 42.0732 16.2 40.8636 16.2 39.6H9.00004V12.6H45V39.6H37.8C37.8 40.8636 37.5703 42.0732 37.1707 43.2H46.4977C46.7581 43.2444 47.025 43.2309 47.2796 43.1605C47.5342 43.0901 47.7702 42.9646 47.9708 42.7928C48.1715 42.6211 48.3318 42.4072 48.4406 42.1665C48.5493 41.9258 48.6038 41.6641 48.6 41.4V10.8C48.6 10.3226 48.4103 9.86482 48.0728 9.52726C47.7352 9.18971 47.2774 9.00005 46.8 9H7.20004ZM18 18C17.7615 17.9966 17.5247 18.0407 17.3034 18.1296C17.082 18.2186 16.8806 18.3506 16.7107 18.5181C16.5408 18.6856 16.4059 18.8852 16.3139 19.1052C16.2218 19.3253 16.1744 19.5615 16.1744 19.8C16.1744 20.0385 16.2218 20.2747 16.3139 20.4948C16.4059 20.7148 16.5408 20.9144 16.7107 21.0819C16.8806 21.2494 17.082 21.3814 17.3034 21.4704C17.5247 21.5593 17.7615 21.6034 18 21.6H36C36.2386 21.6034 36.4754 21.5593 36.6967 21.4704C36.9181 21.3814 37.1195 21.2494 37.2894 21.0819C37.4593 20.9144 37.5941 20.7148 37.6862 20.4948C37.7783 20.2747 37.8257 20.0385 37.8257 19.8C37.8257 19.5615 37.7783 19.3253 37.6862 19.1052C37.5941 18.8852 37.4593 18.6856 37.2894 18.5181C37.1195 18.3506 36.9181 18.2186 36.6967 18.1296C36.4754 18.0407 36.2386 17.9966 36 18H18ZM18 25.2C17.7615 25.1966 17.5247 25.2407 17.3034 25.3296C17.082 25.4186 16.8806 25.5506 16.7107 25.7181C16.5408 25.8856 16.4059 26.0852 16.3139 26.3052C16.2218 26.5253 16.1744 26.7615 16.1744 27C16.1744 27.2385 16.2218 27.4747 16.3139 27.6948C16.4059 27.9148 16.5408 28.1144 16.7107 28.2819C16.8806 28.4494 17.082 28.5814 17.3034 28.6704C17.5247 28.7593 17.7615 28.8034 18 28.8H36C36.2386 28.8034 36.4754 28.7593 36.6967 28.6704C36.9181 28.5814 37.1195 28.4494 37.2894 28.2819C37.4593 28.1144 37.5941 27.9148 37.6862 27.6948C37.7783 27.4747 37.8257 27.2385 37.8257 27C37.8257 26.7615 37.7783 26.5253 37.6862 26.3052C37.5941 26.0852 37.4593 25.8856 37.2894 25.7181C37.1195 25.5506 36.9181 25.4186 36.6967 25.3296C36.4754 25.2407 36.2386 25.1966 36 25.2H18ZM27 32.4C23.0449 32.4 19.8 35.6449 19.8 39.6C19.8 41.4003 20.4945 43.0334 21.6 44.3004V54L27 50.4L32.4 54V44.3004C33.5056 43.0334 34.2 41.4003 34.2 39.6C34.2 35.6449 30.9552 32.4 27 32.4ZM27 36C29.0096 36 30.6 37.5905 30.6 39.6C30.6 41.6095 29.0096 43.2 27 43.2C24.9905 43.2 23.4 41.6095 23.4 39.6C23.4 37.5905 24.9905 36 27 36Z" fill="white"/>
</g>
<defs>
<clipPath id="clip0">
<rect width="54" height="54" fill="white"/>
</clipPath>
</defs>
</svg>
