<svg width="54" height="54" viewBox="0 0 54 54" fill="none" xmlns="http://www.w3.org/2000/svg">
<path d="M12.6002 5.3999C11.168 5.3999 9.79452 5.96883 8.78182 6.98153C7.76912 7.99422 7.2002 9.36773 7.2002 10.7999C7.2002 12.2321 7.76912 13.6056 8.78182 14.6183C9.79452 15.631 11.168 16.1999 12.6002 16.1999C14.0324 16.1999 15.4059 15.631 16.4186 14.6183C17.4313 13.6056 18.0002 12.2321 18.0002 10.7999C18.0002 9.36773 17.4313 7.99422 16.4186 6.98153C15.4059 5.96883 14.0324 5.3999 12.6002 5.3999ZM30.5721 7.17529C30.0953 7.18275 29.641 7.37905 29.3088 7.72113C28.9766 8.06321 28.7937 8.52311 28.8002 8.9999H21.6002V12.5999H30.2979C30.4922 12.632 30.6906 12.632 30.885 12.5999H43.2002V30.5999H34.485C34.4129 30.5873 34.3401 30.5791 34.267 30.5753C34.2073 30.5723 34.1474 30.5723 34.0877 30.5753C34.0217 30.5799 33.9559 30.5881 33.8908 30.5999H27.299C27.22 30.5864 27.1401 30.5782 27.06 30.5753C26.9399 30.5715 26.8198 30.5798 26.7014 30.5999H21.6002V34.1999H24.6939L21.6529 46.364C21.5956 46.5934 21.5841 46.832 21.6189 47.0659C21.6538 47.2998 21.7344 47.5246 21.8562 47.7274C21.978 47.9302 22.1385 48.107 22.3286 48.2477C22.5187 48.3885 22.7346 48.4904 22.9641 48.5476C23.1936 48.6049 23.4322 48.6164 23.6661 48.5814C23.9 48.5465 24.1248 48.4658 24.3275 48.344C24.5303 48.2222 24.707 48.0616 24.8477 47.8715C24.9884 47.6813 25.0903 47.4653 25.1475 47.2358L28.4064 34.1999H32.7939L36.0529 47.2358C36.1101 47.4653 36.212 47.6813 36.3527 47.8715C36.4933 48.0616 36.6701 48.2222 36.8729 48.344C37.0756 48.4658 37.3004 48.5465 37.5343 48.5814C37.7682 48.6164 38.0068 48.6049 38.2362 48.5476C38.4657 48.4904 38.6817 48.3885 38.8718 48.2477C39.0619 48.107 39.2224 47.9302 39.3442 47.7274C39.466 47.5246 39.5466 47.2998 39.5815 47.0659C39.6163 46.832 39.6048 46.5934 39.5475 46.364L36.5064 34.1999H45.0002C45.4776 34.1999 45.9354 34.0102 46.2729 33.6726C46.6105 33.3351 46.8001 32.8773 46.8002 32.3999V10.7999C46.8001 10.3225 46.6105 9.86472 46.2729 9.52716C45.9354 9.18961 45.4776 8.99995 45.0002 8.9999H32.4002C32.4035 8.75908 32.3584 8.52005 32.2677 8.29695C32.1769 8.07386 32.0423 7.87125 31.8719 7.70111C31.7014 7.53097 31.4985 7.39677 31.2753 7.30645C31.052 7.21613 30.8129 7.17153 30.5721 7.17529V7.17529ZM10.8002 19.7999C8.8112 19.7999 7.2002 21.4109 7.2002 23.3999V46.7401C7.2002 47.7661 8.03396 48.5999 9.05996 48.5999C10.0392 48.5999 10.8514 47.8388 10.9162 46.8632L11.7037 35.0401C11.7361 34.5685 12.1268 34.1999 12.6002 34.1999C13.0736 34.1999 13.4643 34.5668 13.4967 35.0366L14.2842 46.8632C14.349 47.8406 15.1612 48.5999 16.1404 48.5999C17.1664 48.5999 18.0002 47.7661 18.0002 46.7401V25.1999C18.0002 24.2063 18.8066 23.3999 19.8002 23.3999H28.8002C29.0387 23.4033 29.2755 23.3592 29.4969 23.2703C29.7182 23.1813 29.9197 23.0493 30.0895 22.8818C30.2594 22.7143 30.3943 22.5147 30.4864 22.2947C30.5784 22.0746 30.6258 21.8384 30.6258 21.5999C30.6258 21.3614 30.5784 21.1252 30.4864 20.9051C30.3943 20.6851 30.2594 20.4855 30.0895 20.318C29.9197 20.1505 29.7182 20.0185 29.4969 19.9295C29.2755 19.8406 29.0387 19.7965 28.8002 19.7999H21.6002H10.8002Z" fill="white"/>
</svg>
