<?xml version="1.0" encoding="utf-8"?>
<svg xmlns="http://www.w3.org/2000/svg" viewBox="0 0 30 30" fill="#ffffff"><path d="M 14 3 C 12.895 3 12 3.895 12 5 L 4 5 C 2.895 5 2 5.895 2 7 L 2 16 C 2 17.105 2.895 18 4 18 L 15.082031 18 C 16.468031 15.613 19.046 14 22 14 C 24.334 14 26.430531 15.011328 27.894531 16.611328 C 27.956531 16.417328 28 16.214 28 16 L 28 7 C 28 5.895 27.105 5 26 5 L 18 5 C 18 3.895 17.105 3 16 3 L 14 3 z M 15 14 C 15.552 14 16 14.448 16 15 C 16 15.552 15.552 16 15 16 C 14.448 16 14 15.552 14 15 C 14 14.448 14.448 14 15 14 z M 22 16 C 18.698136 16 16 18.698136 16 22 C 16 25.301864 18.698136 28 22 28 C 23.291499 28 24.487316 27.583068 25.46875 26.882812 L 28.292969 29.707031 A 1.0001 1.0001 0 1 0 29.707031 28.292969 L 26.882812 25.46875 C 27.583068 24.487316 28 23.291499 28 22 C 28 18.698136 25.301864 16 22 16 z M 22 18 C 24.220984 18 26 19.779016 26 22 C 26 24.220984 24.220984 26 22 26 C 19.779016 26 18 24.220984 18 22 C 18 19.779016 19.779016 18 22 18 z M 2 19.443359 L 2 23 C 2 24.105 2.895 25 4 25 L 14.589844 25 C 14.212844 24.073 14 23.061 14 22 C 14 21.308 14.098672 20.641 14.263672 20 L 4 20 C 3.268 20 2.591 19.787359 2 19.443359 z" fill="#ffffff"/></svg>
