<svg width="258" height="69" viewBox="0 0 258 69" fill="none" xmlns="http://www.w3.org/2000/svg">
<path d="M67.6963 68.4652C67.6963 68.2658 67.6345 68.1408 67.559 68.1875C67.4835 68.2342 67.3275 68.0467 67.2124 67.7707C67.0909 67.4796 66.9036 67.269 66.7662 67.269C66.579 67.269 66.5639 67.2273 66.6941 67.0702C66.8207 66.9175 66.8165 66.8572 66.6761 66.8098C66.5322 66.7614 66.5385 66.693 66.7055 66.4896C66.8673 66.2925 66.8757 66.2167 66.7409 66.1713C66.6436 66.1385 66.564 66.0495 66.564 65.9734C66.564 65.8974 66.627 65.8741 66.7039 65.9217C66.7841 65.9714 66.8079 65.9145 66.7595 65.7884C66.7132 65.6674 66.748 65.5684 66.8369 65.5684C66.9547 65.5684 66.9575 65.4915 66.847 65.285C66.7254 65.0574 66.7394 65.0016 66.9184 65.0016C67.0985 65.0016 67.1073 64.9651 66.964 64.8116C66.7808 64.6152 66.4249 64.7908 66.4714 65.0547C66.4834 65.1229 66.4186 65.2063 66.3274 65.24C66.2184 65.2802 66.1897 65.1938 66.2436 64.9875C66.2886 64.815 66.2677 64.7077 66.1971 64.7491C66.1264 64.7905 65.9412 64.7775 65.7855 64.7202C65.5611 64.6375 65.627 64.5946 66.104 64.5129C66.4791 64.4486 66.7055 64.3345 66.7055 64.2097C66.7055 64.0996 66.8293 64.0096 66.9806 64.0096C67.1318 64.0096 67.3427 63.885 67.4492 63.7328C67.6401 63.4599 68.361 63.0875 68.5947 63.1411C68.6607 63.1562 69.0747 63.0776 69.5147 62.9665C69.9547 62.8553 70.7128 62.7194 71.1995 62.6645C71.6861 62.6095 72.1198 62.5071 72.1632 62.4368C72.2065 62.3665 72.3816 62.3076 72.5521 62.3059C72.7227 62.3041 73.2444 62.1142 73.7114 61.8839C74.1785 61.6535 74.6683 61.4637 74.8 61.4619C74.9316 61.4601 75.0787 61.395 75.1268 61.317C75.1749 61.2391 75.1424 61.1753 75.0545 61.1753C74.8584 61.1753 74.9291 60.5415 75.1268 60.5277C75.2046 60.5223 75.5475 60.4378 75.8888 60.34C76.2301 60.2422 76.6648 60.2012 76.8547 60.2489C77.0447 60.2967 77.4024 60.2733 77.6496 60.1969C77.8967 60.1206 78.4544 59.9885 78.8887 59.9034C80.0808 59.6698 80.7174 59.4747 80.7174 59.3429C80.7174 59.2063 73.4568 59.3016 71.6592 59.4618C70.7121 59.5462 70.3508 59.5231 69.9608 59.3533C69.6883 59.2347 69.4336 59.1285 69.3947 59.1172C69.3557 59.1059 69.1378 59.0197 68.9103 58.9257C68.6828 58.8316 68.3962 58.7938 68.2734 58.8417C68.1506 58.8895 66.2668 58.9516 64.0871 58.9796C61.9075 59.0076 59.8376 59.094 59.4873 59.1716C59.137 59.2492 58.0872 59.3867 57.1545 59.4772C56.2217 59.5677 55.3367 59.7071 55.1877 59.7869C55.0388 59.8667 54.6059 59.9021 54.2257 59.8655C53.8455 59.8289 53.5001 59.8546 53.4581 59.9226C53.4161 59.9906 53.3225 60.0095 53.25 59.9647C53.1776 59.9199 53.1183 59.9507 53.1183 60.0332C53.1183 60.1158 53.0705 60.1707 53.0121 60.1552C52.7767 60.0928 51.5614 60.3506 51.5614 60.463C51.5614 60.6013 50.4923 60.8312 50.088 60.7798C49.9393 60.7609 49.698 60.8741 49.5517 61.0312C49.4055 61.1884 49.1769 61.3246 49.0437 61.3338C48.9105 61.343 48.4194 61.3643 47.9523 61.3811C47.4852 61.3979 46.8483 61.4853 46.537 61.5752C46.2256 61.6652 45.7302 61.7747 45.4361 61.8185C45.1421 61.8623 44.936 61.9542 44.9782 62.0226C45.11 62.236 44.7954 62.2919 42.3364 62.4921C42.2058 62.5028 42.1102 62.5719 42.1241 62.6457C42.138 62.7195 42.022 62.8175 41.8663 62.8633C41.7107 62.9092 41.4225 63.0563 41.2259 63.1901C40.9688 63.3652 40.4328 63.4591 39.3152 63.5247C38.4609 63.5748 37.6146 63.6092 37.4347 63.601C37.2548 63.5929 36.912 63.6875 36.6729 63.8112C36.426 63.9391 36.2005 63.9802 36.1508 63.9063C36.029 63.7251 35.5307 63.5509 35.6399 63.7278C35.7549 63.9142 35.6172 63.9046 35.2403 63.7001C34.4797 63.2873 30.879 63.6011 30.5034 64.1129C30.3871 64.2713 30.3743 64.3782 30.468 64.4095C30.5485 64.4363 30.6144 64.5148 30.6144 64.5838C30.6144 64.6528 30.5253 64.675 30.4164 64.6332C30.3075 64.5914 30.1764 64.6252 30.125 64.7085C29.9878 64.9308 30.836 64.8986 31.2937 64.6641C31.5039 64.5564 31.9625 64.4213 32.3128 64.3639C32.6631 64.3065 33.0612 64.2389 33.1974 64.2136C33.3336 64.1883 33.4451 64.2511 33.4451 64.3532C33.4451 64.4845 33.6211 64.525 34.0466 64.4917C34.5116 64.4552 34.5912 64.4775 34.3975 64.59C34.2596 64.6701 34.1787 64.7872 34.2176 64.8503C34.3016 64.9864 33.5103 65.1233 31.9784 65.2376C31.1182 65.3018 30.8374 65.2764 30.7421 65.1257C30.6526 64.9843 30.6182 64.9794 30.6166 65.1079C30.6134 65.3688 29.7627 65.3266 29.4579 65.0505C29.3155 64.9215 29.1991 64.8763 29.1991 64.95C29.1991 65.0313 28.7397 65.0458 28.0314 64.9867C27.3892 64.9331 26.3861 64.8541 25.8023 64.8112C25.2184 64.7682 24.5316 64.659 24.2759 64.5683C24.0202 64.4777 23.6524 64.4339 23.4587 64.471C23.2649 64.5081 23.0662 64.4733 23.0171 64.3938C22.9622 64.3049 22.9992 64.2934 23.1131 64.3639C23.2284 64.4352 23.264 64.4229 23.2075 64.3313C23.1009 64.1586 22.4259 64.0022 21.627 63.9651C21.1558 63.9432 21.0583 63.8877 21.0455 63.6343C21.0318 63.3621 21.1294 63.3182 21.9655 63.2212C22.4799 63.1615 23.06 63.1264 23.2547 63.1433L23.6085 63.174L23.233 62.9696C22.5817 62.6152 21.9467 62.4656 20.707 62.3747C20.0454 62.3261 19.09 62.1823 18.584 62.055C17.4203 61.7622 13.3822 61.7398 13.2061 62.0251C13.1455 62.1233 13.021 62.1573 12.9294 62.1006C12.6929 61.9543 10.0883 61.905 10.1769 62.0485C10.2598 62.1828 10.2387 62.1851 8.38723 62.2413C7.08046 62.2811 6.52887 62.3295 4.5722 62.5762C3.68001 62.6887 3.15837 62.6243 2.64844 62.3386C2.43489 62.2189 2.48091 62.1508 2.9952 61.8258C3.41002 61.5636 3.91679 61.4093 4.68172 61.3125C5.98713 61.1473 7.23264 60.9392 8.12999 60.7363C8.66675 60.6149 8.77381 60.5399 8.71756 60.3245C8.67719 60.17 8.56687 60.0927 8.45043 60.1374C8.34134 60.1794 8.25208 60.1431 8.25208 60.0568C8.25208 59.9705 8.36354 59.8989 8.49976 59.8977C8.71144 59.8959 8.71658 59.8756 8.53515 59.7582C8.40088 59.6713 8.38624 59.62 8.49532 59.6186C8.59045 59.6174 8.63113 59.5208 8.58604 59.4031C8.52913 59.2547 8.67035 59.1159 9.05046 58.9467L9.59665 58.7037L8.21378 58.6183C7.4532 58.5713 6.45008 58.5393 5.98462 58.5472C5.51917 58.5551 5.13834 58.5536 5.13834 58.5438C5.13834 58.5341 5.26572 58.3791 5.42141 58.1993C5.57709 58.0196 5.70447 57.9156 5.70447 57.9683C5.70447 58.021 5.8479 57.9701 6.02319 57.855C6.19848 57.74 6.81406 57.5726 7.39115 57.4829C7.96823 57.3933 8.69263 57.2308 9.00093 57.1219C9.30923 57.013 9.79231 56.9216 10.0744 56.9188C10.8626 56.9111 12.8481 56.3942 12.274 56.3462C12.2026 56.3402 12.0169 56.306 11.8612 56.2701C11.7055 56.2343 11.5004 56.1879 11.4053 56.167C11.0815 56.0959 11.0608 55.958 11.3597 55.863C11.5238 55.8108 11.8245 55.6137 12.028 55.4249C12.2314 55.2361 12.54 55.0816 12.7137 55.0816C12.8874 55.0816 13.1022 54.994 13.191 54.8868C13.3237 54.7267 13.207 54.6754 12.5361 54.5989C12.087 54.5477 11.5286 54.4749 11.2951 54.4371C10.7395 54.3473 8.52868 54.3603 8.37683 54.4543C8.17198 54.5811 6.55368 54.6408 6.55368 54.5216C6.55368 54.459 6.64921 54.3284 6.76598 54.2313C6.88274 54.1343 6.97828 53.9883 6.97828 53.9069C6.97828 53.8256 6.93637 53.8009 6.88515 53.8522C6.83393 53.9035 6.70655 53.8744 6.60208 53.7876C6.49691 53.7002 6.41214 53.6902 6.41214 53.7652C6.41214 53.8397 6.31661 53.9007 6.19984 53.9007C5.85993 53.9007 5.95317 53.7489 6.42027 53.5419C6.94556 53.3091 6.87034 53.2114 6.0235 53.0268C5.25098 52.8583 5.10372 52.5943 5.65759 52.3708C6.23079 52.1395 8.92381 51.8392 10.4633 51.835C11.1849 51.833 11.9442 51.789 12.1507 51.7371L12.5262 51.6427L12.1229 51.3124C11.9011 51.1307 11.612 50.9798 11.4803 50.977C11.1448 50.9699 11.0429 50.7445 11.2228 50.4078C11.4128 50.0523 12.644 49.4131 13.1386 49.4131C13.3472 49.4131 13.4678 49.3519 13.4181 49.2714C13.37 49.1934 13.2138 49.1296 13.071 49.1296C12.8312 49.1296 12.5646 48.7758 12.6172 48.5274C12.6706 48.2748 10.425 48.5573 10.237 48.8268C10.0935 49.0326 6.47936 49.5705 6.12407 49.4389L5.78573 49.3136L6.11485 49.1373C6.29586 49.0403 7.47177 48.7893 8.72798 48.5797C11.0267 48.196 11.5861 47.9251 10.0799 47.9251C9.61703 47.9251 9.19125 47.8441 9.05283 47.7298C8.85622 47.5675 8.58401 47.563 7.43734 47.7032C5.32888 47.961 4.10351 48.1381 3.81614 48.2265C3.62576 48.2851 3.5685 48.2431 3.60384 48.0708C3.65535 47.8196 4.09323 47.525 4.77971 47.2795C5.37059 47.0682 5.0033 46.8819 4.24779 47.0097C3.92023 47.0651 3.36563 47.1554 3.01533 47.2103L2.37843 47.3101L2.90918 46.8008C3.2011 46.5207 3.43994 46.2688 3.43994 46.2409C3.43994 46.2131 3.04499 46.1455 2.56228 46.0908C1.42097 45.9616 0.810285 45.6412 0.818191 45.1759C0.822344 44.9305 1.73797 44.6014 2.58993 44.5389C2.94067 44.5132 3.73715 44.3909 4.3599 44.2671C4.98265 44.1432 5.93808 44.0132 6.48309 43.9781C7.02809 43.9431 7.85606 43.8472 8.32302 43.7651C11.2231 43.2552 11.8759 43.1297 12.0009 43.0579C12.0777 43.0138 11.8548 42.9081 11.5055 42.8229C11.154 42.7372 10.8705 42.585 10.8705 42.482C10.8705 42.2435 12.297 41.7255 13.5916 41.4939C14.2214 41.3812 14.6874 41.2135 14.84 41.0447C14.9765 40.8936 15.4503 40.7031 15.9191 40.6107C16.9826 40.4012 16.9539 40.2025 15.7983 39.775C15.5505 39.6833 15.3765 39.5346 15.4116 39.4444C15.4914 39.2393 16.1474 38.9263 16.4976 38.9263C16.6424 38.9263 16.7214 38.8625 16.6733 38.7845C16.6252 38.7066 16.1119 38.6428 15.5327 38.6428C14.5784 38.6428 14.1951 38.4979 14.6565 38.3115C15.0687 38.145 13.0032 38.2352 11.983 38.4282C10.7125 38.6687 10.0213 38.5681 10.0213 38.1426C10.0213 37.9465 10.3909 37.689 11.4105 37.1749C12.3709 36.6907 12.7423 36.4373 12.6135 36.3541C12.369 36.196 12.6103 36.0343 13.5596 35.7204C14.8995 35.2773 15.9624 34.5345 15.8229 34.1389C15.7275 33.8686 16.2498 33.7212 18.4073 33.4094C19.4798 33.2544 20.5538 33.0294 20.7941 32.9094C21.0343 32.7894 21.5429 32.6538 21.9243 32.608C22.976 32.4818 24.9883 31.9721 25.303 31.7522C25.4566 31.6449 25.775 31.5527 26.0107 31.5472C26.2463 31.5417 26.5665 31.4824 26.7222 31.4154C26.9476 31.3184 26.89 31.2894 26.4392 31.2728C25.2328 31.2283 24.5926 31.1092 24.4327 30.8995C24.3235 30.7563 24.1529 30.7123 23.9373 30.7716C23.6544 30.8495 23.6434 30.8402 23.8587 30.7051C23.9964 30.6188 24.2193 30.5664 24.3541 30.5886C24.4889 30.6108 24.6849 30.5752 24.7896 30.5095C24.9023 30.4388 25.1226 30.4664 25.3291 30.5771C25.6012 30.7228 25.7373 30.7272 25.946 30.5967C26.1154 30.4908 26.2452 30.4802 26.2994 30.5681C26.3465 30.6444 26.7476 30.7091 27.1906 30.7119C27.6336 30.7146 28.1553 30.8081 28.3499 30.9194C28.7738 31.1621 28.916 31.1799 28.916 30.9903C28.916 30.9124 28.8167 30.8486 28.6954 30.8486C28.574 30.8486 28.5096 30.7921 28.5522 30.723C28.5949 30.6539 28.4964 30.5625 28.3334 30.5198C28.1704 30.4771 28.0647 30.3582 28.0985 30.2557C28.1609 30.0664 28.7949 29.9555 30.7559 29.7908C32.5277 29.642 33.0205 29.5619 33.0205 29.4228C33.0205 29.3496 32.9249 29.2897 32.8082 29.2897C32.6902 29.2897 32.5959 29.1638 32.5959 29.0063C32.5959 28.7985 32.6902 28.7229 32.9497 28.7229C33.3569 28.7229 33.4263 28.5046 33.0504 28.4062C32.9112 28.3698 32.1947 28.374 31.4582 28.4156C29.3131 28.5368 28.455 28.4965 28.0062 28.2534C27.7782 28.1299 27.5509 28.0541 27.501 28.0849C27.4512 28.1158 27.4367 27.9615 27.4688 27.7421C27.539 27.2633 27.3399 27.1887 25.8867 27.1486C25.017 27.1247 24.9495 27.1032 25.2517 26.9463C25.749 26.6883 27.5731 26.3179 28.6608 26.2542C29.2167 26.2216 29.7418 26.1052 29.9307 25.9728C30.3328 25.6908 30.5751 25.6873 30.8469 25.9594C30.9692 26.0819 31.31 26.1707 31.6506 26.169C32.6996 26.1635 36.6135 25.765 37.1449 25.6095C37.6411 25.4642 37.6562 25.4408 37.5515 24.976C37.4855 24.6831 37.5004 24.4357 37.5892 24.3467C37.6902 24.2456 37.6858 24.1398 37.5752 24.0064C37.2371 23.5985 37.6673 23.514 39.7327 23.5828C41.3376 23.6362 41.8383 23.607 42.1639 23.4407C42.5085 23.2647 44.0619 23.0221 45.1216 22.9786C45.2773 22.9723 45.7231 22.91 46.1124 22.8403L46.82 22.7137L46.1831 22.6106C45.8328 22.5539 44.7819 22.54 43.8478 22.5798C42.9137 22.6195 41.5762 22.6435 40.8756 22.6332C40.175 22.6228 38.8057 22.7182 37.8326 22.8451C35.9073 23.0964 33.9218 23.2721 33.0671 23.2669C32.769 23.2651 32.4851 23.3193 32.4362 23.3874C32.3873 23.4554 32.1485 23.5193 31.9055 23.5292C31.6625 23.5392 31.4636 23.6001 31.4636 23.6646C31.4636 23.7292 31.3203 23.7416 31.1452 23.6923C30.8959 23.6221 30.8728 23.6349 31.039 23.7514C31.222 23.8797 31.2171 23.9006 31.0036 23.9024C30.8674 23.9037 30.756 23.9757 30.756 24.0626C30.756 24.1596 30.6213 24.1323 30.4071 23.9917C30.0197 23.7376 29.8498 23.6977 29.9676 23.8885C30.0102 23.9576 29.9184 24.0473 29.7636 24.0878C29.6025 24.13 29.4821 24.0914 29.4821 23.9976C29.4821 23.9027 29.2586 23.8337 28.9514 23.8337C28.614 23.8337 28.4327 23.8958 28.4538 24.0041C28.4766 24.1214 28.3241 24.1536 27.9646 24.1075C27.3754 24.032 26.7941 23.7018 26.7908 23.4408C26.7893 23.3292 26.7395 23.343 26.6515 23.4795C26.545 23.6444 26.5138 23.6027 26.5121 23.293C26.5093 22.7819 26.7425 22.3457 27.0186 22.3457C27.1373 22.3457 27.1949 22.282 27.1468 22.204C27.0987 22.1261 27.1746 22.0574 27.3154 22.0515C27.7818 22.0317 28.078 21.9458 28.3934 21.739C28.6761 21.5534 29.3406 21.6249 29.3406 21.8407C29.3406 21.8798 29.2553 21.8789 29.151 21.8387C29.0467 21.7986 28.8715 21.8766 28.7618 22.0121C28.5898 22.2242 28.59 22.2415 28.7633 22.137C28.9179 22.0437 28.9413 22.0757 28.8647 22.2756C28.8051 22.4311 28.8381 22.5819 28.9468 22.6509C29.2175 22.823 29.4455 22.7906 29.1992 22.6151C29.0395 22.5013 29.1215 22.4826 29.5305 22.5396C29.8312 22.5815 30.1897 22.5431 30.3328 22.4536C30.5287 22.3311 30.642 22.3336 30.7989 22.464C30.966 22.6029 31.0274 22.5875 31.1159 22.3846C31.1763 22.2462 31.2155 22.0852 31.2032 22.0267C31.1908 21.9683 31.2709 21.9204 31.3812 21.9204C31.4915 21.9204 31.606 21.8475 31.6357 21.7584C31.6654 21.6692 31.8765 21.5763 32.1049 21.552C32.3332 21.5276 32.5912 21.4102 32.6782 21.2911C32.7652 21.172 32.888 21.1214 32.951 21.1786C33.0141 21.2359 33.0258 21.1711 32.9769 21.0347C32.8675 20.7294 33.1382 20.7009 33.2549 21.0054C33.3291 21.199 33.3692 21.1964 33.6043 20.9835C33.8552 20.7561 33.87 20.7577 33.872 21.0128C33.8738 21.2389 33.8964 21.2482 34.0114 21.0701C34.2159 20.7533 34.1867 20.6842 33.8079 20.589C33.5677 20.5287 33.4697 20.4117 33.4854 20.204C33.5103 19.873 34.0033 19.6255 34.5713 19.659C35.1008 19.6901 35.5683 19.5078 35.5683 19.27C35.5683 19.117 35.7089 19.0721 36.099 19.1006C36.6694 19.1423 37.6291 18.9828 37.9743 18.7889C38.1458 18.6926 38.1322 18.6675 37.9036 18.6586C37.7479 18.6526 37.302 18.6177 36.9128 18.5812C35.7093 18.4682 34.1084 18.4718 33.5309 18.5887C33.1345 18.669 33.0074 18.6554 33.0783 18.5406C33.1392 18.4419 33.1009 18.4101 32.9782 18.4572C32.8617 18.502 32.6739 18.3722 32.5245 18.144C32.3422 17.8653 32.3182 17.7382 32.4403 17.6974C32.555 17.6591 32.5273 17.5746 32.3559 17.44C32.1233 17.2573 32.1383 17.2461 32.5253 17.3134C32.7588 17.3541 32.8703 17.3497 32.773 17.3038C32.4145 17.1346 32.6119 16.9605 33.1621 16.9605C33.5195 16.9605 33.7291 17.0258 33.7304 17.1376C33.732 17.268 33.7648 17.264 33.8543 17.1225C33.9307 17.0017 34.009 16.9838 34.065 17.0744C34.16 17.2284 34.3402 17.2164 34.7825 17.0268C34.9342 16.9617 35.2677 16.9043 35.5235 16.8991C36.1101 16.8872 36.3006 16.5353 35.7205 16.5353C35.491 16.5353 35.2801 16.4432 35.234 16.3228C35.179 16.1793 35.2408 16.1102 35.4241 16.1102C35.5735 16.1102 35.7466 16.0305 35.8089 15.933C35.9712 15.679 36.548 15.3781 36.6965 15.47C36.7658 15.5129 36.8625 15.4832 36.9114 15.4039C36.9603 15.3247 37.176 15.2599 37.3908 15.2599C37.6056 15.2599 38.1273 15.1563 38.5501 15.0298C39.2175 14.83 39.2774 14.7841 39.0048 14.6817C38.8321 14.6168 37.6503 14.5724 36.3786 14.583C35.107 14.5936 33.9833 14.5507 33.8816 14.4878C33.7762 14.4226 33.6549 14.4409 33.5998 14.5302C33.4861 14.7144 29.0863 14.8541 28.977 14.677C28.9385 14.6147 28.8082 14.6017 28.6874 14.6481C28.5387 14.7053 28.5191 14.7642 28.6268 14.8309C28.7142 14.885 28.5922 14.9292 28.3556 14.9292C28.119 14.9292 27.9254 14.8683 27.9254 14.7938C27.9254 14.7193 27.8283 14.739 27.7097 14.8376C27.591 14.9362 27.4487 14.9715 27.3933 14.9161C27.338 14.8607 27.451 14.6947 27.6444 14.5473L27.9962 14.2792L27.6423 14.3473C27.3323 14.407 27.3235 14.3988 27.5716 14.2808C27.9798 14.0866 28.6506 14.1067 29.0438 14.3249C29.4271 14.5375 29.9069 14.4675 29.9069 14.1988C29.9069 14.0751 30.1863 14.0195 30.8268 14.0159C31.404 14.0126 31.7468 14.0687 31.7468 14.1664C31.7468 14.252 31.8264 14.2176 31.9237 14.0899C32.0515 13.9221 32.4347 13.8324 33.3037 13.7667C33.9653 13.7167 34.9087 13.5858 35.4001 13.4758C35.8914 13.3659 36.4965 13.2698 36.7447 13.2623C36.9928 13.2548 37.5143 13.1616 37.9035 13.0552C38.5671 12.8738 38.4922 12.8665 36.7005 12.939C35.6496 12.9815 34.6942 13.0174 34.5775 13.0186C34.4607 13.0199 32.9958 13.1705 31.3222 13.3532C29.6486 13.5359 27.8239 13.7048 27.2674 13.7286C26.711 13.7524 26.2848 13.8197 26.3204 13.8782C26.3561 13.9366 26.1108 13.9847 25.7754 13.985C25.4399 13.985 24.5923 14.078 23.8917 14.1909C22.6903 14.3845 19.8643 14.5842 20.2481 14.4483C20.3459 14.4137 20.3899 14.3271 20.3459 14.2558C20.3019 14.1845 20.4448 14.1231 20.6634 14.1194C20.8821 14.1157 21.2839 13.9916 21.5564 13.8437C21.8288 13.6958 22.1791 13.5153 22.3348 13.4426C22.8465 13.2037 31.194 11.821 33.1621 11.6491C33.746 11.5982 35.4338 11.4301 36.9128 11.2757C38.3918 11.1213 40.3439 10.9332 41.2509 10.8575C42.1578 10.7819 43.2062 10.6276 43.5808 10.5148C44.0728 10.3665 44.2889 10.3534 44.3594 10.4677C44.4488 10.6125 45.9378 10.5729 47.7401 10.3777C48.0126 10.3481 48.8724 10.2842 49.6508 10.2355C51.0476 10.1481 53.1757 9.85412 54.3669 9.58402C54.7032 9.50776 55.038 9.48224 55.1109 9.52732C55.1838 9.57242 56.1699 9.46877 57.3022 9.29703C58.9777 9.04289 59.4214 9.01706 59.6849 9.15831C59.95 9.30032 60.2894 9.27648 61.5527 9.02722C63.6556 8.61226 66.3997 8.07282 67.7672 7.80553C68.3899 7.68381 69.2946 7.49376 69.7777 7.38323C70.2608 7.27268 70.8658 7.18255 71.1223 7.18292C71.3787 7.18292 71.8752 7.09179 72.2255 6.97954C72.8158 6.79037 74.0245 6.58037 77.2499 6.10659C78.9069 5.8632 79.2407 5.80703 80.9298 5.48733C81.7082 5.34 82.982 5.11421 83.7605 4.98556C84.5389 4.85691 85.3669 4.72003 85.6004 4.68137C87.253 4.40792 87.5677 4.413 87.8963 4.71848C88.0737 4.88331 88.2188 5.09057 88.2188 5.17906C88.2188 5.26754 88.2665 5.33239 88.3249 5.32316C88.3833 5.31402 88.5766 5.31402 88.7545 5.32316C89.025 5.33718 89.0548 5.3833 88.9364 5.60473C88.7631 5.9289 88.9017 6.10375 89.1611 5.88822C89.4529 5.64572 89.3865 5.86384 89.0507 6.25047C88.8746 6.45328 88.5209 6.63512 88.1954 6.69018C87.7201 6.77058 87.6659 6.8149 87.8181 6.99849C88.0465 7.27404 87.8535 7.29114 96.9231 6.19235C97.5458 6.1169 98.6604 6.02459 99.3999 5.98721C100.139 5.94984 101.477 5.85213 102.372 5.77008C103.267 5.68805 104.446 5.59566 104.991 5.56478C105.535 5.53391 106.233 5.44257 106.541 5.36182C106.849 5.28108 108.07 5.21108 109.255 5.20629C110.44 5.20152 111.493 5.16916 111.596 5.13442C111.851 5.0487 115.168 4.87473 115.957 4.9057C116.306 4.91944 116.689 5.01885 116.808 5.12671C117.075 5.36841 117.754 5.39264 120.913 5.27315C122.365 5.2182 123.699 5.09329 124.137 4.97119C124.708 4.81186 125.656 4.76825 128.17 4.78557C129.978 4.79809 132.986 4.76008 134.854 4.70128C138.64 4.5821 138.438 4.58075 142.355 4.75103C144.892 4.86128 146.355 4.86585 148.583 4.77051C148.972 4.75385 149.179 4.71105 149.043 4.67541C148.907 4.63977 148.795 4.54394 148.795 4.46247C148.795 4.36474 149.193 4.34242 149.963 4.39688C150.605 4.44229 152.532 4.54406 154.244 4.62305C155.957 4.70205 158.154 4.8321 159.127 4.91206C163.036 5.23329 164.527 5.34651 166.558 5.47628C171.635 5.80088 174.312 5.93021 177.102 5.98578C178.386 6.01137 179.979 6.07576 180.64 6.12885C181.302 6.18195 182.289 6.21968 182.834 6.21268C183.379 6.20581 184.462 6.26268 185.24 6.33935C186.019 6.41602 188.54 6.50682 190.843 6.54115C193.145 6.57548 195.311 6.66572 195.655 6.74169C195.998 6.81766 196.78 6.91436 197.392 6.95657C198.003 6.99879 198.704 7.06613 198.949 7.10623C199.785 7.24333 201.092 7.33655 203.003 7.39547C204.685 7.44735 206.32 7.57188 208.735 7.83211C209.124 7.87404 209.665 7.92615 209.938 7.94789C210.21 7.96966 210.911 8.02837 211.495 8.07841C212.079 8.12844 213.066 8.20838 213.688 8.25607C214.311 8.30374 214.852 8.3624 214.891 8.38642C214.93 8.41044 215.324 8.46859 215.767 8.51573C216.21 8.56285 216.665 8.63725 216.779 8.68107C216.893 8.72487 217.55 8.77971 218.239 8.80293C220.131 8.86669 220.128 8.86631 220.128 9.09536C220.128 9.21227 220.196 9.30792 220.278 9.30792C220.361 9.30792 220.382 9.23333 220.326 9.14214C220.256 9.02909 220.302 9.00654 220.47 9.07128C220.606 9.12351 220.858 9.16622 221.03 9.16622C221.24 9.16622 221.349 9.25835 221.363 9.44965C221.389 9.78842 221.312 9.80468 221.028 9.5205C220.732 9.22388 220.4 9.24611 220.5 9.55593C220.549 9.70853 220.534 9.74301 220.46 9.64556C220.379 9.53763 219.98 9.51736 219.208 9.58195C217.88 9.69311 216.877 9.66252 215.033 9.45454C214.293 9.37116 213.338 9.26865 212.91 9.22672C212.482 9.18482 212.057 9.12621 211.966 9.09646C211.876 9.06673 211.764 9.13911 211.719 9.2573C211.658 9.41648 211.523 9.44736 211.201 9.37637C210.694 9.26487 210.368 9.22248 209.018 9.09238C208.473 9.03987 207.989 8.97344 207.942 8.94478C207.843 8.8837 205.95 8.87366 203.356 8.92047C201.711 8.95015 200.551 8.86903 199.685 8.66378C199.197 8.54813 195.784 8.49809 195.784 8.60661C195.784 8.66241 196.214 8.75413 196.74 8.81045C197.265 8.86677 197.823 8.93799 197.978 8.96874C199.07 9.18442 201.995 9.42614 204.347 9.49512C204.892 9.51111 205.405 9.56736 205.488 9.62012C205.624 9.70787 209.958 10.0463 210.191 9.98736C210.246 9.97332 210.769 10.0065 211.353 10.061C212.256 10.1453 214.561 10.3149 215.139 10.3396C215.348 10.3485 215.373 10.5315 215.181 10.6502C215.043 10.7354 213.976 10.7551 213.011 10.6902C212.716 10.6704 212.423 10.5703 212.36 10.4677C212.274 10.3289 212.031 10.3057 211.41 10.3772C210.95 10.43 210.532 10.4986 210.48 10.5296C210.428 10.5606 210.289 10.4892 210.171 10.371C210.052 10.2528 209.922 10.2106 209.881 10.2774C209.801 10.4069 206.944 10.3518 206.116 10.2047C205.844 10.1563 205.364 10.1036 205.049 10.0875C204.735 10.0714 204.337 9.98287 204.165 9.8907C203.915 9.7567 203.852 9.76104 203.852 9.91234C203.852 10.0237 203.663 10.1168 203.392 10.1387C202.273 10.2291 200.706 10.2206 199.464 10.1172C198.571 10.0429 198.19 10.0522 198.328 10.145C198.886 10.519 197.839 10.7035 196.209 10.5184C194.764 10.3543 194.506 10.3457 193.881 10.4406C193.559 10.4895 193.107 10.4791 192.877 10.4173C192.271 10.2547 189.12 9.96675 187.717 9.94573C187.055 9.93582 186.1 9.88409 185.594 9.83081C185.088 9.77753 184.069 9.7012 183.329 9.66119C182.59 9.62119 180.838 9.4947 179.437 9.3801C178.036 9.2655 175.952 9.12888 174.806 9.07652C172.938 8.99118 172.713 9.00578 172.632 9.2173C172.555 9.41848 172.309 9.45241 170.965 9.44727C170.098 9.44401 169.102 9.49296 168.751 9.55618L168.115 9.67116L169.176 9.82917C169.76 9.91607 170.46 9.98544 170.733 9.9833C171.005 9.98099 172.12 10.0782 173.21 10.1989C174.3 10.3196 176.37 10.4895 177.81 10.5765C179.25 10.6635 180.57 10.7653 180.743 10.8026C180.916 10.8399 182.349 10.9325 183.927 11.0084C186.764 11.1447 188.752 11.256 190.265 11.3632C190.693 11.3935 192.161 11.4829 193.528 11.5619C194.895 11.6408 196.106 11.7338 196.218 11.7685C196.33 11.8032 196.549 11.8798 196.704 11.9388C196.86 11.9977 197.232 12.0637 197.532 12.0853C197.831 12.107 198.15 12.2258 198.24 12.3494C198.37 12.5278 198.739 12.5816 200.031 12.6107C200.926 12.6308 201.722 12.6865 201.8 12.7345C201.877 12.7824 202.419 12.859 203.003 12.9047C205.794 13.1234 208.584 13.301 209.867 13.3417C210.645 13.3664 212.301 13.4979 213.547 13.634C214.792 13.7701 216.385 13.9027 217.085 13.9285C221.934 14.1076 225.807 14.3331 227.842 14.5548C228.542 14.6312 229.77 14.7347 230.571 14.7848C231.371 14.8349 232.059 14.9305 232.101 14.9971C232.142 15.0637 231.965 15.1234 231.707 15.1297C231.449 15.1361 231.059 15.1543 230.839 15.1703C230.619 15.1863 230.412 15.1545 230.378 15.0997C230.344 15.0448 230.081 15.065 229.793 15.1446C229.502 15.2253 228.861 15.2478 228.344 15.1956C227.834 15.1441 225.124 15.0771 222.322 15.0465C219.52 15.016 216.176 14.9499 214.891 14.8996C212.602 14.8099 211.953 14.8647 213.455 15.021C213.872 15.0644 214.243 15.1307 214.281 15.1684C214.382 15.2695 213.865 15.5196 213.435 15.5771C212.935 15.6442 212.777 15.8237 213.205 15.8391C213.393 15.8459 214.375 15.9108 215.387 15.9835C216.399 16.0561 218.389 16.1532 219.81 16.1993C222.145 16.275 222.393 16.3068 222.393 16.5314C222.393 16.8431 222.963 16.9168 226.396 17.0493C227.781 17.1028 228.947 17.2003 228.988 17.2661C229.028 17.3318 229.341 17.3857 229.682 17.3857C230.845 17.3857 230.519 17.777 229.09 18.0958C228.687 18.1857 228.146 18.2476 227.887 18.2333C226.163 18.1376 226.616 18.4167 228.549 18.642C229.328 18.7326 230.411 18.8377 230.956 18.8755C231.5 18.9132 232.488 19.0077 233.149 19.0854C233.811 19.1631 235.148 19.2687 236.122 19.3201C237.32 19.3834 237.936 19.4735 238.032 19.5992C238.111 19.7021 238.616 19.8261 239.165 19.8772C239.709 19.9279 240.219 20.0473 240.297 20.1425C240.375 20.2377 240.903 20.3585 241.472 20.4111C242.041 20.4637 242.648 20.6004 242.823 20.7149C243.023 20.846 243.635 20.9461 244.478 20.9854C246.297 21.0701 247.722 21.2298 247.801 21.3577C247.884 21.4922 246.644 21.6843 246.454 21.5665C246.376 21.5181 246.312 21.5391 246.312 21.6129C246.312 21.6868 246.535 21.7891 246.807 21.8403C247.345 21.9413 247.447 22.1176 247.055 22.2697C246.593 22.4492 247.24 22.7336 248.695 22.9901C249.917 23.2055 250.689 23.4718 250.126 23.4836C249.597 23.4948 250.414 23.7446 251.264 23.8317C251.769 23.8834 252.256 23.9872 252.347 24.0624C252.437 24.1376 252.914 24.2641 253.406 24.3434C254.774 24.564 254.759 24.7413 253.364 24.8511C252.843 24.8921 252.366 25.0137 252.223 25.1421C252.021 25.3224 251.775 25.344 250.878 25.26C249.053 25.0894 248.692 25.1226 248.418 25.4862C248.284 25.6641 248.202 25.8543 248.235 25.9088C248.269 25.9633 248.726 26.0526 249.25 26.1071C249.775 26.1617 250.268 26.2564 250.346 26.3176C250.424 26.3787 250.79 26.4739 251.16 26.529C252.174 26.6803 251.966 26.8805 250.794 26.8805C250.223 26.8805 249.708 26.9283 249.649 26.9868C249.59 27.0452 248.996 27.093 248.33 27.093C247.487 27.093 247.099 27.147 247.057 27.2702C247.015 27.3916 247.167 27.4476 247.539 27.4481C247.837 27.4484 248.304 27.5074 248.577 27.5789C248.849 27.6504 249.611 27.7492 250.27 27.7986C250.929 27.8479 251.54 27.9479 251.628 28.0208C251.715 28.0938 251.824 28.1163 251.87 28.0709C251.915 28.0255 252.1 28.0413 252.281 28.106C252.535 28.1969 252.384 28.2443 251.619 28.314C250.717 28.3963 249.687 28.6031 249.143 28.8116C248.797 28.9439 249.335 29.0893 250.947 29.2998C251.745 29.404 252.398 29.527 252.398 29.5733C252.398 29.6195 252.812 29.6309 253.318 29.5987C254.057 29.5515 254.238 29.5807 254.238 29.7471C254.238 30.004 253.79 30.4241 253.519 30.4212C253.353 30.4194 253.355 30.3952 253.53 30.2816C253.711 30.1647 253.705 30.1439 253.49 30.1421C253.352 30.1408 253.2 30.2389 253.154 30.3598C253.082 30.5472 252.826 30.5688 251.424 30.5056C249.668 30.4265 249.236 30.5203 249.56 30.9107C250.102 31.5645 252.312 32.2656 253.831 32.2656C254.749 32.2656 255.228 32.4375 255.228 32.7666C255.228 32.9313 255.002 32.9735 254.132 32.9708C253.528 32.969 252.78 32.9002 252.469 32.8182C252.157 32.7361 250.69 32.64 249.208 32.6047C246.588 32.5423 246.514 32.5483 246.493 32.8254C246.472 33.0979 246.645 33.2942 246.949 33.3434C247.027 33.356 247.637 33.4695 248.306 33.5956C250.493 34.0084 252.436 34.2598 254.424 34.3875C256.265 34.5059 256.894 34.6682 256.703 34.9765C256.66 35.0469 256.563 35.0668 256.489 35.0208C256.415 34.9748 256.371 35.0216 256.393 35.1248C256.414 35.2286 256.322 35.3038 256.185 35.293C256.05 35.2823 255.97 35.3232 256.007 35.3838C256.045 35.4444 255.859 35.5345 255.595 35.5842C255.024 35.6915 254.888 35.9469 255.181 36.3651C255.337 36.588 255.353 36.7208 255.242 36.855C255.06 37.075 255.179 37.2256 255.535 37.2256C255.678 37.2256 255.795 37.2523 255.795 37.2848C255.795 37.3174 255.837 37.4544 255.889 37.5893C255.975 37.8145 255.88 37.8268 254.721 37.7404C254.027 37.6887 253.22 37.6085 252.929 37.5622C252.506 37.4952 252.398 37.5231 252.398 37.699C252.398 37.8206 252.295 37.9776 252.17 38.0479C251.846 38.2295 252.04 39.046 252.447 39.2101C252.737 39.3274 252.738 39.3342 252.469 39.3523C252.186 39.3712 252.186 39.3712 252.469 39.493C252.745 39.6118 252.359 39.6626 250.912 39.698C250.308 39.7127 249.85 39.9035 249.85 40.1403C249.85 40.2668 249.704 40.344 249.461 40.3452C249.247 40.3465 248.927 40.386 248.75 40.4335C248.448 40.5144 248.444 40.5316 248.679 40.7105C248.817 40.8153 249.104 40.9032 249.317 40.9056C249.53 40.9082 250.125 41.1333 250.638 41.4061C251.156 41.6813 251.778 41.9021 252.035 41.9021C252.893 41.9021 254.231 42.0826 254.165 42.1893C254.129 42.2476 254.208 42.2865 254.34 42.2758C254.472 42.2652 254.603 42.3663 254.631 42.5006C254.696 42.8124 253.86 43.35 253.429 43.274C253.256 43.2436 253.092 43.2883 253.064 43.3734C252.997 43.5738 251.345 43.6305 250.685 43.455C250.404 43.3805 248.955 43.3022 247.465 43.2811C244.945 43.2454 244.202 43.3177 245.144 43.507C245.358 43.5501 245.82 43.6502 246.17 43.7295C246.521 43.8089 247.078 43.8766 247.409 43.88C247.74 43.8834 248.01 43.9499 248.01 44.0278C248.01 44.1058 248.11 44.1696 248.232 44.1696C248.354 44.1696 248.584 44.2396 248.744 44.3253C249.031 44.4793 249.031 44.4828 248.699 44.6483C248.119 44.9381 248.299 45.2116 249.274 45.5222C249.775 45.6816 250.214 45.9048 250.251 46.0182C250.287 46.1316 250.374 46.2614 250.442 46.3066C250.659 46.4488 250.4 46.886 250.155 46.7919C250.031 46.7443 249.969 46.7445 250.016 46.7924C250.064 46.8402 249.943 47.0401 249.746 47.2366C249.488 47.495 249.222 47.6003 248.784 47.6173C248.451 47.6302 248.204 47.6824 248.235 47.7334C248.267 47.7844 247.683 47.7948 246.938 47.7566C245.855 47.7011 245.536 47.7303 245.346 47.902C245.083 48.1406 243.693 48.2389 242.968 48.0703C242.691 48.0059 242.489 48.0258 242.428 48.1233C242.376 48.2091 242.182 48.2793 241.998 48.2793C241.572 48.2793 241.217 48.4153 241.217 48.5779C241.217 48.6475 241.309 48.7045 241.422 48.7045C241.535 48.7045 241.681 48.8012 241.747 48.9193C241.822 49.0527 242.375 49.2331 243.205 49.3948C244.84 49.7134 246.044 50.2004 245.93 50.4974C245.886 50.6114 245.76 50.6699 245.649 50.6274C245.539 50.5848 245.484 50.6077 245.527 50.6781C245.57 50.7485 245.439 51.0049 245.235 51.2477C244.962 51.5727 244.789 51.6654 244.579 51.5988C244.422 51.5487 244.33 51.5659 244.375 51.6374C244.418 51.7084 244.233 51.7728 243.962 51.7805C243.691 51.7882 243.023 51.9041 242.476 52.0382L241.483 52.282L241.799 52.6189C241.973 52.8042 242.174 52.9559 242.246 52.9559C242.318 52.9559 242.595 53.0597 242.863 53.1867C243.328 53.408 243.339 53.431 243.133 53.7461C242.998 53.9532 242.971 54.1074 243.06 54.1629C243.139 54.2113 243.162 54.3171 243.112 54.3979C243.053 54.4928 242.977 54.4768 242.897 54.3527C242.817 54.228 242.736 54.2112 242.667 54.305C242.609 54.3846 242.37 54.5419 242.137 54.6547L241.712 54.8597L242.16 54.9079C242.645 54.96 242.904 55.3237 242.553 55.4587C242.434 55.5044 242.301 55.5065 242.258 55.4634C242.215 55.4203 241.968 55.5043 241.709 55.6501C241.45 55.7958 240.996 55.9605 240.7 56.016C240.404 56.0716 240.076 56.2029 239.972 56.3079C239.723 56.5565 239.626 56.551 238.311 56.2142C237.131 55.912 236.798 55.9402 236.314 56.3834C236.041 56.6333 235.93 56.6457 235.191 56.5088C234.221 56.3292 232.393 56.3062 232.498 56.4749C232.538 56.5397 233.035 56.6721 233.603 56.769C235.05 57.0161 235.212 57.0691 234.975 57.2161C234.563 57.471 236.407 58.0726 238.209 58.2713C238.696 58.325 239.125 58.4189 239.163 58.48C239.2 58.5411 239.098 58.7611 238.934 58.969C238.66 59.318 238.655 59.366 238.866 59.5991C238.991 59.7378 239.094 59.8862 239.094 59.9288C239.094 60.104 236.697 59.8519 235.909 59.594C234.776 59.223 232.482 58.9522 232.27 59.1645C232.158 59.2767 232.157 59.3731 232.267 59.5054C232.415 59.6839 232.642 59.7603 234.529 60.2667C235.118 60.4246 235.414 60.5755 235.414 60.7175C235.414 60.897 235.247 60.9158 234.364 60.8357C233.691 60.7746 233.281 60.7931 233.223 60.887C233.173 60.9676 233.21 61.0336 233.306 61.0336C233.401 61.0336 233.446 61.0666 233.406 61.1069C233.311 61.2019 231.307 60.7807 231.107 60.6239C230.951 60.5006 228.884 60.1819 228.443 60.213C228.307 60.2226 228.195 60.3103 228.195 60.4079C228.195 60.5054 228.163 60.6712 228.122 60.7763C228.053 60.9578 229.781 61.3247 232.76 61.7607C233.207 61.8262 233.804 61.9764 234.086 62.0944C234.368 62.2124 234.798 62.3093 235.042 62.3098C235.683 62.3111 236.603 62.5916 236.455 62.7405C236.386 62.8095 235.524 62.8841 234.539 62.9063C233.555 62.9285 232.76 62.9575 232.773 62.9707C232.786 62.984 233.111 63.1186 233.496 63.2699C234.165 63.5333 234.181 63.5522 233.875 63.7162C233.636 63.8447 233.379 63.8496 232.85 63.7359C231.989 63.5509 231.875 63.5485 231.875 63.7148C231.875 63.7866 232.066 63.8871 232.298 63.9383C233.072 64.1085 232.904 64.2929 231.976 64.2929C231.436 64.2929 230.89 64.3828 230.624 64.5154C230.356 64.6495 230.055 64.6983 229.866 64.6383C229.462 64.51 222.817 64.4611 222.895 64.587C223.059 64.8537 221.202 64.8523 219.618 64.5844C216.41 64.0421 213.68 63.7339 211.919 63.715C210.946 63.7046 209.481 63.6084 208.664 63.5013C207.846 63.3942 206.39 63.2408 205.428 63.1605C204.466 63.0801 203.638 62.9898 203.588 62.9599C203.538 62.9299 203.02 62.8646 202.436 62.8149C201.853 62.7651 201.152 62.6974 200.879 62.6645C200.312 62.5958 197.73 62.4517 195.855 62.384C194.499 62.335 192.438 62.2046 191.043 62.0796C190.576 62.0377 188.761 61.9763 187.009 61.9431C185.258 61.9098 183.188 61.8303 182.409 61.7665C181.631 61.7026 179.478 61.6567 177.625 61.6644C174.823 61.6761 174.234 61.7136 174.122 61.8874C174.008 62.0646 173.969 62.0663 173.861 61.8985C173.776 61.7668 173.594 61.7288 173.315 61.7846C173.085 61.8307 172.828 61.7987 172.742 61.7132C172.657 61.6279 172.377 61.5446 172.12 61.5282C171.863 61.5117 171.525 61.4605 171.37 61.4144C170.521 61.1629 169.638 61.0898 169.282 61.2416C168.996 61.3635 168.283 61.2195 168.381 61.0598C168.417 61.001 167.735 60.9357 166.865 60.9148C164.523 60.8584 164.28 60.8326 164.015 60.6123C163.799 60.4332 163.778 60.4414 163.82 60.6867C163.853 60.8737 163.8 60.9463 163.656 60.9122C163.539 60.8845 163.3 60.8606 163.125 60.859C162.95 60.8575 162.807 60.8073 162.807 60.7474C162.807 60.6875 162.704 60.5991 162.579 60.5509C162.413 60.4873 162.374 60.524 162.436 60.6849C162.494 60.8375 162.466 60.8717 162.345 60.7949C162.249 60.7335 161.565 60.6633 160.825 60.6388C159.27 60.5874 159.501 60.588 152.192 60.6138C149.117 60.6247 146.207 60.5875 145.726 60.5312C145.245 60.4749 144.744 60.47 144.613 60.5203C144.372 60.6129 139.749 60.7956 138.328 60.7687C137.217 60.7477 135.957 61.4016 136.658 61.6355C136.763 61.6704 136.69 61.7706 136.481 61.8811C136.287 61.9838 136.092 62.1216 136.049 62.1874C135.893 62.4252 134.691 62.5578 134.35 62.375C134.135 62.2597 133.565 62.2183 132.669 62.2529C131.923 62.2816 129.474 62.3388 127.226 62.3799C124.978 62.421 122.985 62.4935 122.796 62.541C122.607 62.5885 121.803 62.6372 121.01 62.6491C120.217 62.661 119.441 62.7425 119.285 62.8301C119.007 62.9868 117.694 63.2441 117.474 63.1851C117.204 63.1123 116.701 63.1306 116.242 63.2299C115.97 63.2889 115.62 63.3266 115.464 63.3135C115.308 63.3004 115.053 63.2785 114.898 63.2648C114.742 63.251 114.01 63.3146 113.27 63.4062C112.531 63.4977 111.65 63.5713 111.314 63.5697C110.977 63.5681 110.627 63.6271 110.535 63.7008C110.444 63.7746 110.162 63.8792 109.909 63.9334C109.532 64.014 109.449 63.9883 109.449 63.792C109.449 63.5796 109.332 63.5637 108.423 63.6525C107.858 63.7077 106.377 63.7675 105.132 63.7855C103.886 63.8034 102.524 63.893 102.105 63.9846C101.686 64.0761 101.312 64.1511 101.274 64.1511C101.236 64.1511 101.284 64.2467 101.381 64.3636C101.478 64.4805 101.773 64.5762 102.035 64.5762C102.298 64.5762 102.514 64.6029 102.514 64.6355C102.514 64.6681 102.552 64.7956 102.599 64.9189C102.717 65.2263 102.319 65.2112 102.004 64.8963C101.826 64.7179 101.742 64.6985 101.699 64.8263C101.667 64.9235 101.582 64.967 101.511 64.923C101.439 64.879 101.381 64.8945 101.381 64.9576C101.381 65.0206 101.238 65.08 101.063 65.0896C100.888 65.0991 99.9164 65.1791 98.9044 65.2673C97.8924 65.3556 95.8544 65.4533 94.3753 65.4845C92.8963 65.5157 91.527 65.5762 91.3324 65.619C90.673 65.7638 87.0476 66.0995 85.1049 66.1957C81.5051 66.374 78.7759 66.8895 78.2131 67.4975C78.0371 67.6877 77.7269 67.8413 77.5042 67.8485C75.6727 67.9081 73.1292 68.0991 72.013 68.2608C71.5459 68.3285 70.7266 68.423 70.1922 68.4708C69.6579 68.5186 68.9008 68.6184 68.5099 68.6927C68.119 68.7669 67.776 68.8276 67.7477 68.8276C67.7194 68.8276 67.6962 68.6644 67.6962 68.465L67.6963 68.4652ZM67.6963 67.1758C67.6963 67.0208 67.6336 67.0092 67.4185 67.1245C67.2525 67.2134 67.1737 67.3595 67.2227 67.4874C67.2859 67.6523 67.3496 67.6641 67.5005 67.5387C67.6082 67.4492 67.6963 67.2859 67.6963 67.1758ZM91.5447 65.0681C92.0984 64.8692 92.0844 64.8663 90.9078 64.9354C88.2133 65.0936 87.3694 65.1737 87.3694 65.2714C87.3694 65.4563 90.9491 65.2819 91.5447 65.0681ZM25.8023 63.3567C25.8023 63.3261 25.7067 63.301 25.59 63.301C25.4732 63.301 25.3777 63.3628 25.3777 63.4383C25.3777 63.5138 25.4732 63.5388 25.59 63.494C25.7067 63.4491 25.8023 63.3873 25.8023 63.3567ZM36.0635 62.8759C36.1129 62.7958 35.997 62.7342 35.7971 62.7342C35.6025 62.7342 35.4039 62.7979 35.3558 62.8759C35.3064 62.9559 35.4223 63.0176 35.6222 63.0176C35.8168 63.0176 36.0154 62.9538 36.0635 62.8759ZM29.3406 62.1508C29.3406 62.0046 29.1711 61.9908 28.8568 62.1116C28.5017 62.2481 28.597 62.4183 28.9868 62.3437C29.1814 62.3065 29.3406 62.2196 29.3406 62.1508ZM109.425 62.1277C109.908 61.993 109.975 61.9413 109.737 61.8848C109.359 61.7952 104.856 61.9846 102.443 62.1916C101.787 62.2479 106.851 62.3852 107.892 62.3394C108.398 62.3171 109.088 62.2219 109.425 62.1277ZM114.332 61.6916C114.487 61.6547 114.201 61.6297 113.695 61.6361C112.487 61.6512 112.009 61.7814 112.775 61.8866C113.086 61.9294 113.5 61.9181 113.695 61.8615C113.889 61.8049 114.176 61.7285 114.332 61.6916V61.6916ZM24.0093 61.7332C24.3007 61.7247 24.2988 61.7173 23.9716 61.5864C23.5857 61.432 23.2547 61.5089 23.2547 61.7529C23.2547 61.8418 23.3552 61.8756 23.4785 61.8282C23.6017 61.7809 23.8405 61.7381 24.0093 61.7332ZM116.458 61.5737C116.496 61.5358 116.244 61.4941 115.898 61.481C115.552 61.4679 115.225 61.5284 115.172 61.6156C115.103 61.7269 115.269 61.7545 115.731 61.7083C116.093 61.6722 116.42 61.6116 116.458 61.5737ZM227.134 59.8999C227.188 59.8122 226.962 59.7646 226.541 59.775C225.937 59.7899 225.908 59.8039 226.285 59.8999C226.904 60.0577 227.037 60.0577 227.134 59.8999ZM8.98629 57.8191C8.88412 57.7782 8.76205 57.7832 8.71502 57.8303C8.66799 57.8774 8.75158 57.9109 8.90078 57.9047C9.06566 57.8979 9.0992 57.8644 8.98629 57.8191V57.8191ZM10.6582 57.6325C10.9426 57.5413 10.9565 57.5182 10.7289 57.5149C10.5732 57.5126 10.3185 57.5655 10.1628 57.6325C9.80213 57.7877 10.1742 57.7877 10.6582 57.6325ZM12.5573 57.6882C12.6804 57.6409 12.7812 57.4875 12.7812 57.3474C12.7812 57.1303 12.6921 57.1037 12.1797 57.1679C11.5293 57.2493 11.1049 57.4908 11.6122 57.4908C11.7789 57.4908 11.9546 57.5545 12.0027 57.6325C12.1034 57.7956 12.2416 57.8095 12.5573 57.6882ZM242.49 55.2234C242.49 55.1454 242.379 55.0826 242.243 55.0838C242.031 55.0856 242.026 55.1059 242.207 55.2234C242.474 55.3962 242.49 55.3962 242.49 55.2234ZM16.063 49.458C15.9608 49.4171 15.8387 49.4221 15.7917 49.4692C15.7447 49.5163 15.8283 49.5498 15.9775 49.5436C16.1423 49.5368 16.1759 49.5032 16.063 49.458V49.458ZM14.9042 49.0445C14.9042 48.8136 14.5105 48.7876 13.9934 48.9844C13.4305 49.1988 13.5641 49.3496 14.2673 49.2936C14.6945 49.2595 14.9042 49.1776 14.9042 49.0445ZM17.5331 49.1468C17.3918 48.9178 16.8856 48.8594 16.8856 49.0721C16.8856 49.1914 17.031 49.2714 17.2478 49.2714C17.447 49.2714 17.5754 49.2153 17.5331 49.1468ZM16.461 48.988C16.619 48.8858 16.5374 48.85 16.1426 48.8484C15.8507 48.8471 15.6118 48.91 15.6118 48.988C15.6118 49.1685 16.1821 49.1685 16.461 48.988ZM252.398 32.4074C252.398 32.3295 252.334 32.2657 252.256 32.2657C252.178 32.2657 252.115 32.3295 252.115 32.4074C252.115 32.4854 252.178 32.5492 252.256 32.5492C252.334 32.5492 252.398 32.4854 252.398 32.4074ZM253.424 29.7627C253.327 29.7234 253.167 29.7234 253.07 29.7627C252.973 29.8021 253.052 29.8342 253.247 29.8342C253.442 29.8342 253.521 29.8021 253.424 29.7627ZM251.301 28.056C251.126 28.0222 250.839 28.0222 250.664 28.056C250.489 28.0898 250.632 28.1174 250.982 28.1174C251.333 28.1174 251.476 28.0898 251.301 28.056ZM244.755 26.912C244.755 26.8513 244.23 26.7261 243.587 26.6336C242.945 26.5412 242.266 26.4214 242.079 26.3673C241.868 26.3063 241.771 26.3222 241.825 26.4093C241.873 26.4864 242.472 26.6307 243.156 26.7298C243.841 26.829 244.465 26.9303 244.543 26.955C244.621 26.9797 244.7 27.005 244.72 27.0111C244.739 27.0173 244.755 26.9727 244.755 26.912ZM38.328 25.6052C38.5808 25.4964 38.5703 25.4823 38.2302 25.4734C38.0207 25.4679 37.81 25.5272 37.7619 25.6052C37.6574 25.7744 37.9348 25.7744 38.328 25.6052ZM243.764 24.7749C243.764 24.708 243.125 24.5804 242.344 24.4915C240.584 24.2911 240.268 24.2871 240.448 24.4672C240.524 24.5428 241.285 24.6615 242.139 24.7308C242.994 24.8002 243.709 24.8659 243.729 24.8768C243.748 24.8877 243.764 24.8419 243.764 24.7749V24.7749ZM30.3875 23.0779C30.4276 23.013 30.3677 22.9599 30.2544 22.9599C30.141 22.9599 30.0483 23.013 30.0483 23.0779C30.0483 23.1429 30.1082 23.196 30.1815 23.196C30.2547 23.196 30.3474 23.1429 30.3875 23.0779ZM49.3234 22.8158C49.2212 22.7749 49.0992 22.7799 49.0521 22.827C49.0051 22.8741 49.0887 22.9076 49.2379 22.9014C49.4028 22.8946 49.4363 22.861 49.3234 22.8158V22.8158ZM27.3591 22.6292C27.3591 22.5512 27.2477 22.4885 27.1115 22.4896C26.8998 22.4914 26.8946 22.5118 27.0761 22.6292C27.3432 22.802 27.3591 22.802 27.3591 22.6292ZM27.9253 22.4083C27.9253 22.3739 27.8616 22.3458 27.7837 22.3458C27.7059 22.3458 27.6422 22.4133 27.6422 22.4958C27.6422 22.5784 27.7059 22.6065 27.7837 22.5583C27.8616 22.5102 27.9253 22.4426 27.9253 22.4083ZM35.9927 21.4216C36.1873 21.3671 36.7924 21.2693 37.3373 21.2042C37.8822 21.1392 38.5509 21.0186 38.8234 20.9362C39.0958 20.8538 39.3187 20.7917 39.3187 20.7982C39.3187 20.8526 40.2882 20.5493 40.7695 20.3445C41.4996 20.0336 41.5457 19.7949 40.8756 19.7949C40.5296 19.7949 40.3802 19.7308 40.3802 19.5823C40.3802 19.3644 41.0137 19.2783 42.0652 19.3532C42.5233 19.3858 43.8302 19.1416 44.1295 18.9674C44.353 18.8373 43.6387 18.6907 42.707 18.6753C42.1009 18.6653 41.5844 18.7651 40.9464 19.0155C40.4498 19.2103 39.9123 19.3708 39.7519 19.3719C39.5196 19.3737 39.5021 19.4006 39.6658 19.5043C39.7789 19.5759 39.9222 19.6031 39.9843 19.5646C40.0464 19.5262 40.0972 19.5551 40.0972 19.6288C40.0972 19.7556 39.7874 19.8452 38.7064 20.031C38.4474 20.0755 38.2011 20.2016 38.1591 20.3113C38.0966 20.4744 38.0421 20.4778 37.8604 20.33C37.6742 20.1786 37.6516 20.1855 37.7215 20.3725C37.7824 20.5359 37.723 20.5894 37.5003 20.5721C37.3328 20.5591 36.9844 20.6063 36.7261 20.677C36.4004 20.7662 36.1943 20.754 36.0538 20.6372C35.9398 20.5425 35.8512 20.53 35.8512 20.6086C35.8512 20.7649 34.7728 21.2121 34.3957 21.2121C34.2621 21.2121 34.1528 21.2992 34.1528 21.4058C34.1528 21.5501 34.3426 21.5895 34.8958 21.5601C35.3045 21.5384 35.7981 21.476 35.9927 21.4216V21.4216ZM41.8149 16.2821C41.7128 16.2481 41.562 16.2875 41.4797 16.3699C41.3747 16.4751 41.43 16.4935 41.6654 16.4319C41.8568 16.3818 41.9209 16.3175 41.8149 16.2821ZM212.768 15.7206C212.768 15.6622 212.575 15.6008 212.338 15.5842C212.093 15.567 211.945 15.6124 211.993 15.6905C212.092 15.8504 212.768 15.8767 212.768 15.7206ZM42.2202 14.8279L42.574 14.817L42.2439 14.6845C41.8709 14.5348 41.2294 14.6501 41.2294 14.8668C41.2294 14.9458 41.3718 14.9715 41.5479 14.9242C41.723 14.8772 42.0256 14.8339 42.2202 14.8279ZM211.636 14.8586C211.636 14.7936 211.541 14.7405 211.424 14.7405C211.307 14.7405 211.211 14.7936 211.211 14.8586C211.211 14.9235 211.307 14.9766 211.424 14.9766C211.541 14.9766 211.636 14.9235 211.636 14.8586ZM212.229 14.8798C212.127 14.8389 212.005 14.8439 211.957 14.891C211.91 14.9381 211.994 14.9716 212.143 14.9654C212.308 14.9587 212.342 14.9251 212.229 14.8798V14.8798ZM44.6528 14.5964C44.5506 14.5555 44.4286 14.5605 44.3815 14.6076C44.3345 14.6547 44.4181 14.6882 44.5673 14.682C44.7322 14.6752 44.7657 14.6416 44.6528 14.5964V14.5964ZM28.7745 14.4098C28.7745 14.3318 28.7108 14.2681 28.6329 14.2681C28.5551 14.2681 28.4914 14.3318 28.4914 14.4098C28.4914 14.4877 28.5551 14.5515 28.6329 14.5515C28.7108 14.5515 28.7745 14.4877 28.7745 14.4098ZM32.4544 14.0382C32.4544 13.8794 32.1886 14.0186 32.1124 14.2173C32.0379 14.4117 32.0586 14.4205 32.2388 14.2708C32.3574 14.1723 32.4544 14.0676 32.4544 14.0382ZM33.8697 14.0555C33.8697 13.9386 33.8446 13.8429 33.8141 13.8429C33.7835 13.8429 33.7218 13.9386 33.677 14.0555C33.6322 14.1724 33.6572 14.2681 33.7326 14.2681C33.808 14.2681 33.8697 14.1724 33.8697 14.0555ZM219.164 9.2113C219.062 9.17035 218.94 9.1754 218.893 9.22246C218.846 9.26955 218.929 9.30305 219.078 9.29689C219.243 9.29011 219.277 9.25651 219.164 9.21128V9.2113ZM88.8495 6.34188C88.8943 6.26932 88.8729 6.17403 88.8019 6.13013C88.731 6.08621 88.6364 6.14558 88.5918 6.26204C88.5038 6.49164 88.7164 6.55751 88.8495 6.34188ZM21.6697 67.1627C21.5882 67.0653 21.5772 66.9836 21.6451 66.9813C21.713 66.979 21.6495 66.9077 21.5039 66.823C21.1305 66.6058 21.4613 66.4196 22.1932 66.435C22.5754 66.4431 22.6674 66.4769 22.4762 66.5391C22.2066 66.6269 22.0055 66.9877 22.2285 66.9836C22.6441 66.976 22.9442 66.7908 22.8795 66.5819C22.8163 66.3779 22.8331 66.3797 23.011 66.5959C23.2528 66.8896 24.3298 66.9437 24.4229 66.6667C24.4702 66.526 24.5277 66.527 24.7025 66.6714C24.978 66.899 25.1406 67.4521 24.9066 67.3657C24.8154 67.332 24.7614 67.2186 24.7866 67.1136C24.8187 66.9801 24.7537 66.9941 24.5706 67.16C24.3614 67.3496 24.0578 67.3916 23.0632 67.3686C22.2723 67.3504 21.7637 67.2752 21.6697 67.1628L21.6697 67.1627ZM19.7268 66.8504C19.5383 66.7337 19.6289 66.4187 19.8511 66.4187C20.0125 66.4187 20.1543 66.8189 20.0218 66.9008C19.9631 66.9372 19.8304 66.9144 19.7268 66.8504ZM22.7214 65.7102C22.5648 65.4592 22.5812 65.4243 22.8642 65.4051C23.0401 65.3933 23.2794 65.3731 23.3962 65.3604C23.7737 65.3192 23.8448 65.4487 23.5958 65.7242C23.2812 66.0723 22.9438 66.0668 22.7214 65.7102ZM108.458 64.6557C108.458 64.6213 108.522 64.5538 108.6 64.5056C108.677 64.4574 108.741 64.4855 108.741 64.5681C108.741 64.6506 108.677 64.7182 108.6 64.7182C108.522 64.7182 108.458 64.69 108.458 64.6557ZM110.119 64.5589C110.215 64.462 110.329 64.4185 110.372 64.4621C110.416 64.5057 110.337 64.585 110.198 64.6382C109.996 64.7151 109.98 64.6988 110.119 64.5589ZM34.1528 64.1687C34.1528 64.1003 34.251 63.9627 34.3711 63.8629C34.5408 63.7219 34.6271 63.7193 34.7591 63.8514C34.8911 63.9836 34.8818 64.0511 34.7177 64.155C34.4508 64.324 34.1528 64.3312 34.1528 64.1686V64.1687ZM193.944 62.8759C193.944 62.7979 194.036 62.7342 194.148 62.7342C194.26 62.7342 194.392 62.7979 194.44 62.8759C194.488 62.9538 194.396 63.0176 194.236 63.0176C194.076 63.0176 193.944 62.9538 193.944 62.8759ZM191.538 62.7254C191.538 62.564 191.919 62.5476 192.016 62.7047C192.054 62.7665 191.962 62.8263 191.812 62.8377C191.661 62.849 191.538 62.7985 191.538 62.7254ZM51.1785 62.4967C51.0511 62.1644 51.2452 62.1156 51.7343 62.357C51.9895 62.483 52.1346 62.5956 52.0568 62.6073C51.4603 62.6971 51.2449 62.67 51.1785 62.4967ZM173.564 62.1673C173.564 62.0894 173.592 62.0256 173.626 62.0256C173.66 62.0256 173.728 62.0894 173.776 62.1673C173.824 62.2453 173.796 62.309 173.713 62.309C173.631 62.309 173.564 62.2453 173.564 62.1673ZM171.523 62.0446C171.462 61.9458 171.45 61.8268 171.497 61.78C171.624 61.6531 171.762 61.8397 171.693 62.0452C171.646 62.1892 171.612 62.1891 171.523 62.0444V62.0446ZM172.042 62.0735C171.752 61.9564 171.841 61.7625 172.148 61.8428C172.304 61.8836 172.431 61.9733 172.431 62.0421C172.431 62.1772 172.321 62.1861 172.042 62.0735ZM239.896 61.3643C239.733 61.2012 239.793 61.0336 240.014 61.0336C240.13 61.0336 240.226 61.1293 240.226 61.2462C240.226 61.4675 240.059 61.5273 239.896 61.3643ZM64.2468 60.4962C64.2087 60.4344 64.3019 60.3745 64.4538 60.363C64.6058 60.3516 64.6932 60.4021 64.648 60.4753C64.5477 60.6378 64.3409 60.6485 64.2468 60.4962ZM65.5226 60.2527C65.5671 60.1366 65.7082 60.0367 65.8361 60.0307C65.964 60.0247 66.3552 59.9911 66.7055 59.9559C67.1649 59.9099 67.2832 59.9321 67.1301 60.0355C66.955 60.1539 66.9529 60.1794 67.1183 60.1811C67.2286 60.1824 67.2791 60.2231 67.2306 60.2716C67.1821 60.3202 66.7598 60.3833 66.2921 60.4119C65.5836 60.4552 65.4552 60.4286 65.5226 60.2527ZM7.76277 59.9097C7.65809 59.7401 7.92434 59.5721 8.11286 59.6887C8.27115 59.7867 8.16723 60.0416 7.96902 60.0416C7.90036 60.0416 7.80755 59.9822 7.76277 59.9097ZM9.10129 56.2237C9.10129 56.1504 9.16425 56.0514 9.24121 56.0038C9.32144 55.9541 9.34516 56.011 9.29683 56.1371C9.20274 56.3826 9.10129 56.4275 9.10129 56.2237ZM10.1392 56.1507C10.1392 56.0372 10.1933 55.9779 10.2595 56.0188C10.3256 56.0597 10.3431 56.1526 10.2983 56.2251C10.1838 56.4105 10.1392 56.3897 10.1392 56.1507ZM256.785 37.6508C256.669 37.5753 256.637 37.5135 256.715 37.5135C256.792 37.5135 256.952 37.5753 257.068 37.6508C257.185 37.7264 257.217 37.7882 257.139 37.7882C257.061 37.7882 256.902 37.7264 256.785 37.6508ZM24.2454 27.1339C24.2454 27.0725 24.3728 27.0223 24.5285 27.0223C24.6842 27.0223 24.8115 27.0821 24.8115 27.1552C24.8115 27.2283 24.6842 27.2785 24.5285 27.2668C24.3728 27.255 24.2454 27.1952 24.2454 27.1339ZM30.1724 25.0526L29.8405 24.7836L30.6874 24.671C31.1533 24.6091 31.8687 24.5548 32.2773 24.5504C32.6859 24.5459 33.0202 24.4989 33.0203 24.4459C33.0205 24.3356 33.8635 24.5553 33.9951 24.7C34.0429 24.7526 33.8855 24.7582 33.6454 24.7126C33.3766 24.6615 33.0502 24.7136 32.7962 24.848C32.5693 24.9681 32.0492 25.0725 31.6405 25.08C31.2319 25.0876 30.8975 25.1451 30.8975 25.2078C30.8975 25.4109 30.5127 25.3286 30.1724 25.0527V25.0526ZM28.3882 25.0944C28.4352 25.0473 28.5573 25.0423 28.6595 25.0832C28.7724 25.1285 28.7388 25.162 28.574 25.1688C28.4248 25.175 28.3412 25.1415 28.3882 25.0944V25.0944ZM25.8134 23.137C25.8073 22.9876 25.8407 22.9039 25.8878 22.951C25.9348 22.9981 25.9398 23.1203 25.899 23.2226C25.8538 23.3356 25.8202 23.3021 25.8134 23.137H25.8134ZM29.6788 21.9459C29.7184 21.8818 29.6204 21.7177 29.4611 21.5811C29.1761 21.3368 29.1855 21.3262 30.0472 20.9181C31.085 20.4267 31.1806 20.4156 31.1806 20.7869C31.1806 20.9615 31.0855 21.0712 30.9329 21.0725C30.7321 21.0743 30.7231 21.0987 30.8854 21.2016C30.9956 21.2714 31.2025 21.3059 31.3454 21.2784C31.4883 21.2508 31.6052 21.2933 31.6052 21.3727C31.6052 21.4522 31.3982 21.5058 31.1452 21.492C30.8922 21.4781 30.5578 21.4742 30.4021 21.4833C30.1663 21.4971 30.1545 21.5228 30.3314 21.6372C30.5128 21.7546 30.5076 21.7749 30.296 21.7767C30.1597 21.778 30.0483 21.8427 30.0483 21.9206C30.0483 21.9986 29.949 22.0623 29.8276 22.0623C29.7063 22.0623 29.6393 22.01 29.6788 21.9459V21.9459ZM31.4886 20.8023C31.3463 20.7143 31.3518 20.6552 31.5151 20.5195C31.7441 20.3292 31.9266 20.4954 31.769 20.7507C31.7128 20.8418 31.5891 20.8645 31.4886 20.8023ZM26.5807 14.8349C26.5326 14.757 26.5888 14.6932 26.7055 14.6932C26.8223 14.6932 26.9572 14.757 27.0053 14.8349C27.0534 14.9129 26.9973 14.9766 26.8805 14.9766C26.7637 14.9766 26.6288 14.9129 26.5807 14.8349ZM29.4795 14.2004C29.6833 13.9545 29.7652 13.9289 29.7652 14.1112C29.7652 14.1808 29.6607 14.2779 29.5329 14.327C29.3386 14.4016 29.3299 14.3809 29.4795 14.2004ZM229.509 11.9135C229.675 11.7474 230.581 11.6172 230.764 11.7332C230.869 11.8 230.892 11.8619 230.814 11.8708C230.052 11.9583 229.445 11.9781 229.509 11.9135ZM228.65 11.7387C228.532 11.6639 228.62 11.6227 228.898 11.6227C229.134 11.6227 229.328 11.6759 229.328 11.7408C229.328 11.8917 228.889 11.8903 228.65 11.7385V11.7387ZM225.011 11.5577C224.405 11.4219 222.934 11.3245 220.186 11.2382C219.245 11.2087 218.339 11.1115 218.172 11.0223C217.991 10.9253 217.357 10.8759 216.593 10.8994C215.891 10.9209 215.316 10.924 215.316 10.9063C215.316 10.8569 216.139 10.4417 216.237 10.4417C216.285 10.4417 216.284 10.5055 216.236 10.5834C216.185 10.6661 216.329 10.7251 216.581 10.7251C216.82 10.7251 217.014 10.6613 217.014 10.5834C217.014 10.5055 217.082 10.4417 217.164 10.4417C217.247 10.4417 217.266 10.5214 217.208 10.6188C217.129 10.7498 217.155 10.7586 217.306 10.6524C217.418 10.5735 217.637 10.5163 217.793 10.5252C217.949 10.5341 218.414 10.5509 218.827 10.5624C219.241 10.574 219.549 10.6312 219.513 10.6897C219.477 10.7481 219.839 10.7866 220.318 10.7752C220.798 10.7637 221.301 10.8139 221.437 10.8865C221.603 10.9746 221.685 10.9669 221.685 10.8635C221.685 10.7782 221.762 10.756 221.856 10.8143C221.95 10.8725 222.571 10.9375 223.236 10.9588C223.901 10.9801 224.445 11.005 224.445 11.0143C224.445 11.0235 224.763 11.0517 225.153 11.077C225.542 11.1022 225.876 11.137 225.896 11.1543C225.929 11.1838 226.075 11.2267 226.32 11.2793C226.433 11.3034 225.769 11.715 225.648 11.6958C225.609 11.6895 225.322 11.6274 225.011 11.5576L225.011 11.5577ZM219.279 10.8492C219.279 10.781 219.155 10.7252 219.004 10.7252C218.853 10.7252 218.695 10.781 218.653 10.8492C218.611 10.9174 218.734 10.9732 218.928 10.9732C219.121 10.9732 219.279 10.9174 219.279 10.8492ZM226.85 10.4395C226.801 10.3603 226.701 10.3321 226.629 10.377C226.556 10.4218 226.497 10.3947 226.497 10.3168C226.497 10.0424 226.725 10.0381 226.895 10.3093C226.989 10.4601 227.037 10.5835 227.002 10.5835C226.967 10.5835 226.898 10.5187 226.85 10.4395V10.4395ZM223.82 9.88674C223.671 9.73734 223.519 9.6447 223.483 9.68083C223.447 9.71699 223.107 9.76792 222.728 9.79406C222.071 9.83933 221.257 9.54737 221.464 9.34068C221.629 9.17523 222.606 9.21395 222.82 9.3944C223.038 9.57916 223.437 9.58529 223.615 9.40656C223.765 9.25618 224.487 9.28916 224.587 9.45097C224.723 9.67123 224.521 10.1583 224.294 10.1583C224.182 10.1583 223.969 10.036 223.82 9.88666V9.88674ZM225.281 9.99475C225.22 9.89708 225.242 9.86945 225.333 9.92619C225.418 9.97849 225.527 9.95645 225.576 9.87723C225.708 9.66357 225.884 9.70279 225.884 9.94578C225.884 10.1954 225.427 10.2325 225.281 9.99475ZM59.8087 8.93904C59.8557 8.89194 59.9778 8.8869 60.08 8.92787C60.1929 8.9731 60.1593 9.00668 59.9945 9.01349C59.8453 9.01963 59.7617 8.98616 59.8087 8.93906V8.93904ZM88.3602 4.91494C88.3602 4.83701 88.3883 4.77323 88.4226 4.77323C88.4569 4.77323 88.5244 4.83701 88.5725 4.91494C88.6206 4.99289 88.5925 5.05666 88.5101 5.05666C88.4276 5.05666 88.3602 4.99289 88.3602 4.91494ZM91.6605 4.92928C91.432 4.76121 91.4867 4.51968 91.7382 4.58555C91.8987 4.62757 92.0016 4.56976 92.0165 4.42931C92.0294 4.3067 92.0507 4.11072 92.0637 3.99381C92.0766 3.87689 92.204 3.77328 92.3467 3.76353C92.4894 3.75375 92.654 3.73265 92.7123 3.71656C92.7707 3.70043 93.0096 3.63586 93.2431 3.57301C93.7624 3.43326 94.0445 3.2245 93.9409 3.05662C93.8982 2.98751 93.9891 2.93097 94.1429 2.93097C94.2967 2.93097 94.4548 3.01067 94.4943 3.10811C94.5442 3.23119 94.6018 3.23883 94.683 3.13321C94.8908 2.86299 95.3242 2.77866 95.5527 2.96397C95.7362 3.11271 95.7535 3.10899 95.6531 2.9423C95.5611 2.78945 95.5914 2.7639 95.7791 2.83602C95.915 2.88825 96.1122 2.93096 96.2173 2.93096C96.3225 2.93096 96.4469 3.05195 96.4938 3.19984C96.5486 3.37268 96.6699 3.44489 96.8335 3.40205C97.1948 3.30746 97.1574 2.95706 96.7932 3.02417C96.5055 3.07719 96.5052 3.07525 96.7814 2.94382C96.9371 2.86976 97.2801 2.80469 97.5436 2.79921C97.807 2.79369 98.4121 2.7267 98.8881 2.65024C100.122 2.45212 103.223 2.10493 104.637 2.00677C105.298 1.96082 106.126 1.89794 106.477 1.86703C107.215 1.80193 108.671 1.6983 110.581 1.57509C111.321 1.52738 112.34 1.45322 112.846 1.4103C114.062 1.30715 115.976 1.29945 116.242 1.3967C116.359 1.43931 116.725 1.52313 117.056 1.58299C117.387 1.64284 117.658 1.73874 117.658 1.79609C117.658 1.85343 117.5 2.05802 117.308 2.2507C117.023 2.53593 116.825 2.59846 116.246 2.58711C115.822 2.57871 115.553 2.63134 115.581 2.71667C115.607 2.79558 116.119 2.8654 116.719 2.87181C117.66 2.88185 118.287 3.0652 118.073 3.26779C117.977 3.35843 116.101 3.448 116.101 3.36191C116.101 3.31976 115.671 3.30523 115.146 3.32961C114.62 3.35399 113.825 3.31603 113.378 3.24509C112.932 3.17421 112.536 3.14647 112.499 3.18346C112.462 3.22042 112.159 3.26412 111.825 3.28057C111.491 3.29702 111.042 3.35974 110.827 3.41998C110.594 3.48511 110.363 3.46897 110.256 3.38014C110.157 3.29799 109.46 3.21604 108.708 3.19801C107.776 3.17573 107.368 3.11657 107.43 3.0127C107.481 2.92881 107.413 2.94796 107.281 3.05529C107.116 3.18951 106.861 3.22165 106.465 3.15823C106.087 3.09769 105.92 3.11584 105.979 3.2111C106.079 3.37346 106.061 3.37656 104.778 3.41107C104.272 3.42467 103.715 3.48596 103.54 3.54725C103.365 3.60854 103.221 3.60655 103.221 3.54285C103.221 3.47915 103.062 3.42702 102.867 3.42702C102.673 3.42702 102.514 3.47485 102.514 3.5333C102.514 3.59176 102.414 3.63959 102.293 3.63959C102.172 3.63959 102.106 3.58573 102.146 3.51987C102.244 3.36073 100.79 3.59445 100.685 3.75477C100.492 4.04826 97.8429 4.34567 97.8429 4.07387C97.8429 3.99093 97.7755 3.92302 97.6931 3.92302C97.6106 3.92302 97.5798 3.98239 97.6246 4.05495C97.7526 4.26237 97.427 4.39007 97.2164 4.21504C97.0751 4.09763 97.0087 4.10481 96.9556 4.2432C96.9098 4.3627 96.6769 4.41729 96.3022 4.3963C95.9819 4.37839 95.7199 4.42328 95.7199 4.49607C95.7199 4.73043 94.9928 4.57653 94.8516 4.31229C94.7765 4.17177 94.6535 4.09488 94.5783 4.14142C94.5031 4.18795 94.474 4.27872 94.5138 4.34311C94.5535 4.40749 94.4929 4.49597 94.3791 4.5397C94.2653 4.58344 94.1339 4.55723 94.0871 4.48145C94.0352 4.39744 93.8539 4.42631 93.6226 4.55538C93.1872 4.79828 91.8331 5.05636 91.6605 4.92935L91.6605 4.92928ZM89.634 4.28561C89.634 4.03669 89.7189 4.00004 89.8402 4.1966C89.885 4.26915 89.8569 4.36858 89.7778 4.41752C89.6987 4.46648 89.634 4.40726 89.634 4.28561ZM90.1674 4.04081C90.2496 3.95845 90.4004 3.91896 90.5025 3.95303C90.6085 3.98842 90.5444 4.05266 90.353 4.10276C90.1176 4.16441 90.0623 4.14595 90.1674 4.04081ZM138.923 3.68123C138.748 3.64746 138.605 3.57114 138.605 3.51165C138.605 3.33823 139.22 3.4325 139.281 3.61525C139.311 3.70655 139.315 3.77255 139.289 3.76193C139.263 3.75128 139.098 3.71501 138.923 3.68123H138.923ZM135.986 3.35609C136.375 3.1887 136.599 3.1887 136.34 3.35609C136.223 3.43166 136.032 3.48998 135.916 3.48568C135.776 3.48055 135.8 3.43641 135.986 3.35609ZM136.844 3.36929C136.8 3.29861 136.892 3.27417 137.048 3.31497C137.378 3.4015 137.42 3.4978 137.127 3.4978C137.015 3.4978 136.887 3.43996 136.844 3.36929ZM118.623 3.04859C118.4 2.82439 118.502 2.80884 120.251 2.79828C121.277 2.79202 122.258 2.75955 122.431 2.72597C122.605 2.69239 122.78 2.71845 122.82 2.78384C122.861 2.84924 123.089 2.88924 123.327 2.87272C123.971 2.82808 123.974 3.0344 123.33 3.09588C123.026 3.12495 122.807 3.09965 122.844 3.03983C122.96 2.8516 122.742 2.92143 122.52 3.14351C122.28 3.38459 121.682 3.428 121.55 3.21399C121.491 3.11963 121.369 3.12182 121.184 3.2205C120.871 3.38842 120.576 3.27431 120.72 3.04092C120.783 2.93886 120.748 2.92915 120.616 3.01205C120.507 3.08078 120.067 3.17089 119.639 3.21232C119.026 3.27158 118.81 3.23673 118.623 3.04856V3.04859ZM129.971 3.21435C129.971 3.13641 129.999 3.07265 130.034 3.07265C130.068 3.07265 130.135 3.13641 130.183 3.21435C130.232 3.29229 130.203 3.35606 130.121 3.35606C130.039 3.35606 129.971 3.29229 129.971 3.21435ZM124.31 2.93092C124.182 2.84838 124.165 2.79268 124.266 2.79137C124.359 2.79009 124.474 2.85297 124.522 2.93092C124.631 3.10687 124.582 3.10687 124.31 2.93092ZM179.591 2.9116C179.664 2.79295 179.125 2.65339 179.015 2.76275C178.863 2.91511 178.234 2.94389 178.234 2.79848C178.234 2.70854 177.831 2.68687 177.137 2.73947C176.286 2.80397 175.929 2.77073 175.545 2.59123C175.273 2.464 175.157 2.38914 175.288 2.42487C175.419 2.46061 175.547 2.4344 175.571 2.36672C175.596 2.29901 175.711 2.22289 175.828 2.19754C175.945 2.17223 176.087 2.08772 176.144 2.00977C176.202 1.93183 176.249 2.00772 176.25 2.17852C176.253 2.47199 176.274 2.47783 176.642 2.28538C176.991 2.10275 177.051 2.10726 177.227 2.32921C177.413 2.56453 177.419 2.5645 177.338 2.32921C177.272 2.13782 177.33 2.08122 177.595 2.08122C177.783 2.08122 178.002 2.19282 178.081 2.32921C178.161 2.46684 178.227 2.49837 178.23 2.40007C178.234 2.2145 178.659 2.14438 178.659 2.32921C178.659 2.38767 179.14 2.43181 179.729 2.42731C180.317 2.42279 180.83 2.47062 180.869 2.5336C180.908 2.59655 181.076 2.64806 181.243 2.64806C181.485 2.64806 181.511 2.68349 181.369 2.8252C181.192 3.00256 179.483 3.08613 179.591 2.91217V2.9116ZM181.914 2.90733C181.914 2.84237 181.962 2.78493 182.02 2.77967C182.079 2.77441 182.33 2.74341 182.579 2.7108C183.139 2.63744 183.338 2.88055 182.8 2.97988C182.267 3.07808 181.914 3.04917 181.914 2.90733ZM171.724 2.43494C171.724 2.35701 171.485 2.29324 171.193 2.29324C170.901 2.29324 170.615 2.35701 170.558 2.43494C170.489 2.52942 170.453 2.52942 170.452 2.43494C170.448 2.2574 169.601 2.2154 169.601 2.3928C169.601 2.46416 169.543 2.48672 169.472 2.44294C169.337 2.35953 168.092 2.2256 166.77 2.15227C166.342 2.12852 165.991 2.09478 165.991 2.07727C165.991 1.98229 164.129 1.98082 164.01 2.07572C163.797 2.24512 162.382 2.3633 162.382 2.21165C162.382 2.13961 162.287 2.08067 162.17 2.08067C162.053 2.08067 161.958 2.14221 161.958 2.21743C161.958 2.30281 160.961 2.32898 159.304 2.28712C157.844 2.25025 156.497 2.22074 156.309 2.22155C156.121 2.22284 155.755 2.16424 155.495 2.09241C155.211 2.01388 155.023 2.01338 155.023 2.09112C155.023 2.21991 154.528 2.19905 154.393 2.0646C154.355 2.02582 153.71 2.01676 152.962 2.04448C152.06 2.07788 151.534 2.03884 151.401 1.92867C151.245 1.79922 151.201 1.80549 151.199 1.95697C151.197 2.07985 151.159 2.09696 151.093 2.00342C151.03 1.91457 150.225 1.84834 149.078 1.83775C148.027 1.8281 144.843 1.7836 142.001 1.73903C139.16 1.69447 135.514 1.64951 133.899 1.63913C132.283 1.62886 130.962 1.58036 130.962 1.53159C130.961 1.4828 130.611 1.44289 130.183 1.44289C129.755 1.44289 129.405 1.49072 129.405 1.54917C129.405 1.60763 129.338 1.65546 129.255 1.65546C129.173 1.65546 129.145 1.59169 129.193 1.51374C129.241 1.43581 129.181 1.37204 129.059 1.37204C128.938 1.3721 128.839 1.30833 128.839 1.23039C128.839 1.15245 128.771 1.08867 128.689 1.08867C128.607 1.08867 128.578 1.15245 128.627 1.23039C128.678 1.31409 128.522 1.37122 128.246 1.36993C127.891 1.36813 127.829 1.33436 127.99 1.23039C128.146 1.12893 128.153 1.09245 128.015 1.09084C127.871 1.08905 127.877 1.03981 128.04 0.876102C128.157 0.75919 128.384 0.663531 128.546 0.663531C128.707 0.663531 128.839 0.595459 128.839 0.512261C128.839 0.422533 128.961 0.399888 129.14 0.456604C129.342 0.520925 129.409 0.50087 129.344 0.395298C129.29 0.308992 129.284 0.238388 129.33 0.238388C129.376 0.238388 129.463 0.369542 129.522 0.529847L129.629 0.821318L130.003 0.527352C130.259 0.325861 130.407 0.283509 130.474 0.392741C130.544 0.505718 130.607 0.496144 130.691 0.359816C130.788 0.203559 131.759 0.168526 135.875 0.172826C138.661 0.175829 142.086 0.219064 143.488 0.269147C144.889 0.319219 147.213 0.397164 148.654 0.442362C153.854 0.605525 155.193 0.664824 155.31 0.736931C155.57 0.89805 156.711 1.04097 156.883 0.934109C156.99 0.868258 157.114 0.891771 157.177 0.989873C157.259 1.11647 157.322 1.10558 157.426 0.946956C157.503 0.830042 157.567 0.798156 157.568 0.876102C157.57 0.965543 158.445 1.01149 159.941 1.00069C162.305 0.983595 166.345 1.21236 166.345 1.36336C166.346 1.40714 166.839 1.43578 167.442 1.42703C168.476 1.41202 170.857 1.60595 171.28 1.73956C171.435 1.78886 171.438 1.84183 171.295 2.01475C171.15 2.189 171.154 2.21728 171.314 2.16661C171.423 2.13237 171.689 2.06526 171.906 2.0175C172.15 1.96398 172.27 1.86424 172.219 1.75766C172.174 1.66252 172.212 1.6845 172.303 1.80648C172.436 1.98587 172.618 2.00787 173.253 1.92151C173.7 1.86079 174.146 1.87208 174.288 1.94769C174.424 2.02084 174.715 2.08935 174.934 2.09997C175.301 2.11773 175.306 2.12435 174.991 2.18369C174.727 2.23355 174.695 2.27678 174.85 2.37479C175.069 2.51348 174.885 2.53085 172.891 2.55975C172.196 2.56979 171.724 2.51936 171.724 2.43496L171.724 2.43494ZM130.589 1.16034C130.544 1.04386 130.451 0.983867 130.381 1.027C130.181 1.15065 130.233 1.37209 130.462 1.37209C130.588 1.37209 130.638 1.28896 130.589 1.16034ZM122.334 1.64477C122.48 1.37225 122.471 1.3413 122.271 1.41827C122.071 1.49505 122.062 1.46402 122.206 1.19467L122.373 0.881918L122.514 1.19787C122.675 1.56035 122.968 1.61306 123.087 1.30123C123.132 1.18432 123.118 1.08866 123.055 1.08866C122.993 1.08866 122.942 0.992227 122.942 0.874347C122.942 0.700106 123.069 0.677015 123.626 0.750891C124.093 0.812956 124.31 0.791062 124.31 0.681795C124.31 0.592931 124.534 0.521814 124.813 0.521814C125.144 0.521814 125.284 0.575494 125.221 0.677666C125.153 0.788464 125.211 0.787526 125.422 0.674408C125.668 0.542189 125.705 0.551779 125.636 0.731123C125.59 0.849831 125.496 0.946964 125.427 0.946964C125.357 0.946964 125.3 1.01074 125.3 1.08867C125.3 1.38408 125.556 1.21334 125.725 0.805244C125.922 0.329302 125.927 0.326686 126.282 0.516808C126.461 0.612718 126.516 0.762469 126.467 1.01868C126.429 1.21954 126.453 1.36529 126.521 1.34255C126.589 1.31984 126.677 1.36355 126.716 1.43974C126.758 1.52166 126.421 1.58805 125.892 1.60228C125.075 1.62425 124.985 1.59714 124.843 1.28664C124.691 0.951841 124.168 0.805024 124.168 1.09703C124.168 1.17959 124.231 1.20815 124.308 1.16054C124.387 1.11167 124.413 1.16593 124.367 1.28493C124.32 1.40822 124.193 1.46018 124.063 1.40992C123.917 1.35403 123.874 1.38051 123.938 1.48559C124.052 1.67005 123.582 1.80625 123.036 1.74693C122.841 1.7258 122.566 1.76518 122.424 1.83445C122.192 1.94731 122.183 1.92762 122.334 1.64478V1.64477ZM126.206 1.11229C126.246 1.04734 126.189 0.994197 126.079 0.994197C125.969 0.994197 125.912 1.04734 125.952 1.11229C125.992 1.17724 126.049 1.23038 126.079 1.23038C126.109 1.23038 126.166 1.17724 126.206 1.11229ZM120.428 1.67163C120.385 1.60254 120.477 1.5128 120.632 1.47218C120.82 1.42299 120.885 1.32295 120.828 1.17265C120.78 1.04852 120.801 0.946953 120.874 0.946953C121.068 0.946953 121.037 1.40987 120.829 1.61841C120.617 1.82993 120.532 1.84123 120.428 1.67163ZM121.295 1.27762C121.335 1.17369 121.386 1.08866 121.408 1.08866C121.431 1.08866 121.481 1.17369 121.521 1.27762C121.561 1.38155 121.51 1.46658 121.408 1.46658C121.306 1.46658 121.256 1.38155 121.295 1.27762ZM121.841 0.880602C121.992 0.76617 122.256 0.670513 122.426 0.668031C122.764 0.663026 122.979 0.878019 122.767 1.00891C122.695 1.05374 122.611 1.01717 122.581 0.927514C122.541 0.805085 122.452 0.804849 122.225 0.926233C121.79 1.15937 121.516 1.12652 121.841 0.880207V0.880602ZM119.961 0.861324C120.008 0.814234 120.13 0.809197 120.232 0.850157C120.345 0.895391 120.311 0.928974 120.146 0.935766C119.997 0.941901 119.914 0.908429 119.961 0.86134V0.861324ZM127.424 0.805224C127.242 0.687832 127.247 0.667529 127.459 0.665673C127.595 0.66439 127.707 0.727275 127.707 0.805224C127.707 0.978064 127.691 0.978064 127.424 0.805224ZM126.663 0.589382C126.596 0.41327 126.632 0.40114 126.861 0.523506C127.189 0.699315 127.22 0.805224 126.943 0.805224C126.835 0.805224 126.709 0.708089 126.663 0.589382Z" fill="#48CBF3" fill-opacity="0.18"/>
</svg>
