<svg width="256" height="256" viewBox="0 0 256 256" fill="none" xmlns="http://www.w3.org/2000/svg">
<path fill-rule="evenodd" clip-rule="evenodd" d="M24 141.78V146.822V161.949V184.819V222.816V223.987C24 226.958 25.4404 229.479 28.0511 230.92C30.5717 232.361 33.5425 232.361 36.0632 230.92L37.0534 230.38L168.668 154.385L169.028 154.205C171.549 152.765 173.079 150.153 173.079 147.272V146.912V108.915V70.9176V70.5574C173.079 67.5861 171.639 65.065 169.028 63.6243L168.668 63.4442L135.809 44.4456L102.861 25.2669L102.501 25.0868C99.98 23.6462 97.0092 23.6462 94.4885 25.0868L94.1284 25.2669L61.2698 44.2655L28.4112 63.2641L28.1411 63.4442C25.6204 64.8849 24.09 67.4961 24.09 70.3774V70.8276V108.825V141.78H24Z" fill="#3573F0"/>
<path fill-rule="evenodd" clip-rule="evenodd" d="M84.7659 222.81V223.981C84.7659 226.952 86.2063 229.473 88.817 230.914C91.3376 232.354 94.3084 232.354 96.8291 230.914L97.8193 230.373L159.215 194.897L220.612 230.373L221.602 230.914C224.123 232.354 227.093 232.354 229.614 230.914C232.135 229.473 233.665 226.862 233.665 223.981V222.81V184.813V161.942V146.816V141.773V108.818V70.8212V70.371C233.665 67.3997 232.225 64.8785 229.614 63.4378L229.344 63.2578L196.485 44.2592L163.627 25.2606L163.267 25.0805C162.096 24.4502 160.836 24 159.576 24H159.486H159.576H159.486H159.396H159.306H159.215H159.125H159.035H158.945H158.855H158.765C157.505 24.09 156.245 24.4502 155.074 25.0805L154.714 25.2606L121.856 44.2592L88.997 63.2578L88.727 63.4378C86.2063 64.8785 84.6759 67.4897 84.6759 70.371V70.8212C84.7659 121.514 84.7659 172.117 84.7659 222.81Z" fill="#48CBF3"/>
<path fill-rule="evenodd" clip-rule="evenodd" d="M84.7661 202.821L168.578 154.379L168.938 154.199C171.459 152.758 172.989 150.147 172.989 147.266V146.906V108.909V70.9113V70.5512C172.989 67.5798 171.549 65.0587 168.938 63.618L168.578 63.4379L135.72 44.4393L128.878 40.4775L122.036 44.4393L89.1773 63.4379L88.9072 63.618C86.3865 65.0587 84.8561 67.6698 84.8561 70.5512V71.0014C84.7661 114.851 84.7661 158.791 84.7661 202.821Z" fill="#0F5BE5"/>
</svg>
