<svg width="54" height="54" viewBox="0 0 54 54" fill="none" xmlns="http://www.w3.org/2000/svg">
<path d="M26.9999 1.80029C25.5677 1.80029 24.1942 2.36922 23.1815 3.38192C22.1688 4.39461 21.5999 5.76812 21.5999 7.20029C21.5999 8.63246 22.1688 10.006 23.1815 11.0187C24.1942 12.0314 25.5677 12.6003 26.9999 12.6003C28.4321 12.6003 29.8056 12.0314 30.8183 11.0187C31.831 10.006 32.3999 8.63246 32.3999 7.20029C32.3999 5.76812 31.831 4.39461 30.8183 3.38192C29.8056 2.36922 28.4321 1.80029 26.9999 1.80029ZM25.1999 16.2003C22.239 16.2003 19.7999 18.6393 19.7999 21.6003V28.8003C19.7967 29.0387 19.8408 29.2754 19.9298 29.4966C20.0188 29.7179 20.1509 29.9192 20.3184 30.089C20.4858 30.2587 20.6854 30.3935 20.9054 30.4855C21.1254 30.5775 21.3614 30.6249 21.5999 30.6249V37.7405C21.5999 40.5665 22.4337 41.4003 23.4597 41.4003C24.4389 41.4003 25.2511 40.641 25.3159 39.6636L26.1034 31.437C26.1358 30.9672 26.5265 30.6003 26.9999 30.6003C27.4733 30.6003 27.864 30.9689 27.8964 31.4405L28.6839 39.6636C28.7487 40.6392 29.5609 41.4003 30.5401 41.4003C31.5661 41.4003 32.3999 40.5665 32.3999 37.7405V30.6249C32.6384 30.6249 32.8744 30.5775 33.0944 30.4855C33.3144 30.3935 33.5139 30.2587 33.6814 30.089C33.8489 29.9192 33.981 29.7179 34.07 29.4966C34.159 29.2754 34.2031 29.0387 34.1999 28.8003V21.6003C34.1999 18.6393 31.7608 16.2003 28.7999 16.2003H25.1999ZM17.9999 31.3702C10.9349 32.6176 5.3999 35.3865 5.3999 39.6003C5.3999 45.5097 16.2665 48.6003 26.9999 48.6003C37.7333 48.6003 48.5999 45.5097 48.5999 39.6003C48.5999 35.3865 43.0649 32.6176 35.9999 31.3702V35.037C41.6123 36.1422 44.9999 38.1261 44.9999 39.6003C44.9999 41.7495 37.8215 45.0003 26.9999 45.0003C16.1783 45.0003 8.9999 41.7495 8.9999 39.6003C8.9999 38.1261 12.3875 36.1422 17.9999 35.037V31.3702Z" fill="white"/>
</svg>
