<?xml version="1.0" encoding="UTF-8"?>
<svg width="100px" height="60px" viewBox="0 0 100 60" version="1.1" xmlns="http://www.w3.org/2000/svg" xmlns:xlink="http://www.w3.org/1999/xlink">
    <title>Strategy</title>
    <defs>
        <path d="M34.491352,11.7048616 L23.207352,0.504861539 C22.880984,0.180923077 22.44004,0 21.98,0 L3.752,0 C1.83372,0 0.28,1.54215384 0.28,3.44615384 L0.28,41.3538461 C0.28,43.2578461 1.83372,44.8 3.752,44.8 L31.528,44.8 C33.44628,44.8 35,43.2578461 35,41.3538461 L35,12.9230769 C35,12.4664616 34.81772,12.0288 34.491352,11.7048616 Z M22.848,13.7846154 C21.889728,13.7846154 21.112,13.0126769 21.112,12.0615384 L21.112,3.28073846 L31.694656,13.7846154 L22.848,13.7846154 Z" id="path-1"></path>
        <filter x="-46.1%" y="-31.2%" width="192.2%" height="171.4%" filterUnits="objectBoundingBox" id="filter-2">
            <feOffset dx="0" dy="2" in="SourceAlpha" result="shadowOffsetOuter1"></feOffset>
            <feGaussianBlur stdDeviation="5" in="shadowOffsetOuter1" result="shadowBlurOuter1"></feGaussianBlur>
            <feColorMatrix values="0 0 0 0 0   0 0 0 0 0   0 0 0 0 0  0 0 0 0.200202142 0" type="matrix" in="shadowBlurOuter1"></feColorMatrix>
        </filter>
    </defs>
    <g id="Strategy" stroke="none" stroke-width="1" fill="none" fill-rule="evenodd">
        <g id="5f24b8032480e111ebe482e2_Interview-Prep" transform="translate(32.000000, 8.000000)" fill-rule="nonzero">
            <g id="Shape">
                <use fill="black" fill-opacity="1" filter="url(#filter-2)" xlink:href="#path-1"></use>
                <use fill="#FFFFFF" xlink:href="#path-1"></use>
            </g>
            <g id="Group" transform="translate(8.960000, 17.360000)" fill="#7F879D">
                <path d="M3.8757376,13.0862592 L6.7085312,7.84 L11.5809792,8.875328 L12.7670592,13.292832 C12.9777984,14.077728 13.2671168,14.8394176 13.6306688,15.5662976 L15.6800448,19.6639296 L11.935392,19.6639296 C11.6996992,19.6639296 11.4646336,19.6877184 11.2337344,19.7348928 L8.570688,20.2789888 C7.9632448,20.4030848 7.3314752,20.308512 6.786976,20.011936 L4.1006336,18.5486784 C3.9198656,18.450208 3.7281664,18.3733312 3.5294336,18.3195712 L0,17.3651072 L0.92721216,16.6496512 C1.2027008,16.4370752 1.4538944,16.194752 1.6762368,15.927072 L3.1772608,14.1201536 C3.4436864,13.7994304 3.6776768,13.4531264 3.8757376,13.0862592 Z" id="Path" fill-opacity="0.4"></path>
                <path d="M11.2229376,5.170144 C11.5542336,5.170144 11.8787648,5.2640448 12.1588544,5.4410048 L13.159776,6.0732224 C13.3162624,6.1720512 13.465088,6.2825728 13.6049088,6.4038016 L15.3776896,7.9403968 C15.736896,8.2517568 15.782368,8.792672 15.480192,9.1596288 L14.796544,9.989728 L12.4307904,12.4371072 C12.3198656,12.55184 12.2670912,12.7107008 12.2872512,12.8689792 L13.3485184,21.1966272 C13.3787136,21.4336192 13.3377664,21.6742848 13.2309184,21.887936 C12.8650368,22.6195648 11.8550656,22.706656 11.369792,22.048096 C11.260704,21.8999872 11.1869632,21.728896 11.1542144,21.5478592 L9.7627712,13.8516224 C9.734592,13.695808 9.5989376,13.5825088 9.4406144,13.5825088 C9.2919232,13.5825088 9.1619136,13.6826816 9.1240128,13.8264448 L7.0875392,21.5526976 L7.0818944,21.5668992 L7.0818944,21.5668992 L6.9183744,21.866656 C6.4342208,22.7542784 5.1070208,22.5602944 4.8972224,21.5712 C4.8956544,21.5638976 4.8955648,21.5563264 4.8969536,21.5489792 L6.5059456,12.905984 C6.539232,12.7272768 6.4778112,12.5440448 6.3435904,12.421472 L4.5440192,10.7783872 L3.1865344,9.1740992 C2.8722176,8.8026624 2.920736,8.2462912 3.2945024,7.9348416 L5.2453632,6.3093184 L6.2639808,5.5305152 C6.5696512,5.2967936 6.9437312,5.170144 7.3284736,5.170144 L11.2229376,5.170144 Z M12.1673216,7.0103488 L12.1673216,10.6907584 L14.0951552,8.5363712 L12.1673216,7.0103488 Z M6.5589888,10.866016 L6.5589888,7.1856512 L4.6311552,8.7116288 L6.5589888,10.866016 Z" id="Shape"></path>
                <circle id="Oval" cx="9.3632" cy="2.27834432" r="2.27834432"></circle>
            </g>
        </g>
    </g>
</svg>