<?xml version="1.0" encoding="utf-8"?>
<svg xmlns="http://www.w3.org/2000/svg" viewBox="0 0 30 30" fill="#ffffff"><path d="M 6 2 A 1.0001 1.0001 0 1 0 6 4 L 24 4 A 1.0001 1.0001 0 1 0 24 2 L 6 2 z M 5 6 A 1.0001 1.0001 0 1 0 5 8 L 25 8 A 1.0001 1.0001 0 1 0 25 6 L 5 6 z M 5 10 C 3.895 10 3 10.895 3 12 L 3 24 C 3 25.105 3.895 26 5 26 L 25 26 C 26.105 26 27 25.105 27 24 L 27 12 C 27 10.895 26.105 10 25 10 L 5 10 z M 13 14 C 13.204 14 13.383016 14.076641 13.541016 14.181641 L 18.546875 17.185547 C 18.813875 17.365547 19 17.654 19 18 C 19 18.346 18.813875 18.634453 18.546875 18.814453 L 13.541016 21.818359 C 13.383016 21.923359 13.204 22 13 22 C 12.448 22 12 21.552 12 21 L 12 15 C 12 14.448 12.448 14 13 14 z" fill="#ffffff"/></svg>
