<svg width="752" height="69" viewBox="0 0 752 69" fill="none" xmlns="http://www.w3.org/2000/svg">
<path d="M555.824 68.6358C555.824 68.4353 556.005 68.3097 556.227 68.3567C556.448 68.4036 556.906 68.2151 557.243 67.9378C557.6 67.6452 558.149 67.4336 558.552 67.4336C559.101 67.4336 559.146 67.3917 558.764 67.2338C558.392 67.0803 558.405 67.0196 558.817 66.9721C559.239 66.9234 559.22 66.8547 558.73 66.6502C558.256 66.4521 558.231 66.376 558.626 66.3303C558.912 66.2974 559.145 66.2079 559.145 66.1314C559.145 66.055 558.961 66.0316 558.735 66.0795C558.5 66.1294 558.43 66.0722 558.572 65.9455C558.708 65.8239 558.606 65.7244 558.345 65.7244C557.999 65.7244 557.991 65.6472 558.315 65.4396C558.672 65.2108 558.631 65.1547 558.106 65.1547C557.577 65.1547 557.552 65.1181 557.972 64.9638C558.509 64.7664 559.553 64.9429 559.417 65.2082C559.382 65.2767 559.572 65.3605 559.839 65.3943C560.159 65.4348 560.243 65.348 560.085 65.1406C559.953 64.9672 560.015 64.8594 560.222 64.901C560.429 64.9426 560.972 64.9295 561.429 64.8719C562.087 64.7888 561.894 64.7457 560.495 64.6636C559.394 64.599 558.73 64.4843 558.73 64.3589C558.73 64.2483 558.367 64.1578 557.924 64.1578C557.48 64.1578 556.861 64.0326 556.549 63.8796C555.989 63.6053 553.874 63.231 553.189 63.2849C552.995 63.3001 551.781 63.2211 550.49 63.1094C549.2 62.9977 546.976 62.8611 545.548 62.8059C544.121 62.7507 542.848 62.6477 542.721 62.5771C542.594 62.5064 542.081 62.4472 541.58 62.4455C541.08 62.4437 539.55 62.2529 538.18 62.0214C536.81 61.7899 535.373 61.5991 534.987 61.5973C534.6 61.5955 534.169 61.53 534.028 61.4517C533.887 61.3733 533.982 61.3092 534.24 61.3092C534.815 61.3092 534.608 60.6723 534.028 60.6584C533.8 60.653 532.794 60.5681 531.793 60.4698C530.791 60.3714 529.516 60.3302 528.959 60.3782C528.402 60.4262 527.353 60.4027 526.628 60.326C525.903 60.2492 524.267 60.1165 522.993 60.0309C519.496 59.7962 517.629 59.6001 517.629 59.4676C517.629 59.3303 538.927 59.4261 544.2 59.5871C546.978 59.6719 548.038 59.6488 549.182 59.4781C549.981 59.3589 550.728 59.2521 550.842 59.2408C550.956 59.2295 551.596 59.1428 552.263 59.0483C552.93 58.9537 553.771 58.9158 554.131 58.9639C554.492 59.012 560.017 59.0744 566.411 59.1025C572.804 59.1306 578.876 59.2174 579.904 59.2954C580.931 59.3735 584.011 59.5117 586.747 59.6026C589.483 59.6936 592.079 59.8336 592.516 59.9138C592.953 59.994 594.223 60.0296 595.338 59.9928C596.453 59.9561 597.466 59.9819 597.589 60.0502C597.713 60.1186 597.987 60.1376 598.2 60.0925C598.412 60.0475 598.586 60.0785 598.586 60.1614C598.586 60.2444 598.726 60.2995 598.898 60.284C599.588 60.2213 603.153 60.4804 603.153 60.5933C603.153 60.7323 606.289 60.9634 607.475 60.9118C607.911 60.8928 608.619 61.0065 609.048 61.1645C609.477 61.3224 610.148 61.4592 610.538 61.4685C610.929 61.4777 612.37 61.4991 613.74 61.516C615.11 61.5329 616.978 61.6207 617.891 61.7112C618.805 61.8016 620.258 61.9116 621.12 61.9557C621.983 61.9997 622.588 62.092 622.464 62.1607C622.077 62.3752 623 62.4314 630.213 62.6327C630.596 62.6434 630.876 62.7128 630.836 62.787C630.795 62.8612 631.135 62.9597 631.592 63.0057C632.049 63.0519 632.894 63.1996 633.47 63.3342C634.225 63.5102 635.797 63.6045 639.075 63.6704C641.581 63.7208 644.064 63.7553 644.591 63.7471C645.119 63.7389 646.125 63.834 646.826 63.9584C647.55 64.0869 648.212 64.1282 648.357 64.054C648.715 63.8718 650.176 63.6968 649.856 63.8745C649.519 64.0619 649.923 64.0523 651.028 63.8467C653.259 63.4318 663.821 63.7472 664.923 64.2616C665.264 64.4208 665.302 64.5282 665.027 64.5597C664.791 64.5867 664.598 64.6655 664.598 64.7349C664.598 64.8042 664.859 64.8265 665.178 64.7845C665.498 64.7424 665.882 64.7765 666.033 64.8602C666.436 65.0836 663.948 65.0512 662.605 64.8155C661.988 64.7073 660.643 64.5715 659.616 64.5139C658.588 64.4562 657.42 64.3882 657.021 64.3628C656.621 64.3373 656.294 64.4005 656.294 64.5031C656.294 64.6351 655.778 64.6758 654.53 64.6423C653.166 64.6056 652.932 64.628 653.501 64.7411C653.905 64.8216 654.142 64.9393 654.028 65.0027C653.782 65.1395 656.103 65.2771 660.597 65.392C663.12 65.4565 663.943 65.431 664.223 65.2795C664.485 65.1374 664.587 65.1324 664.591 65.2616C664.601 65.5238 667.096 65.4814 667.99 65.2039C668.408 65.0743 668.749 65.0288 668.749 65.1029C668.749 65.1846 670.097 65.1991 672.174 65.1397C674.058 65.0859 677.001 65.0065 678.713 64.9634C680.426 64.9202 682.441 64.8104 683.191 64.7193C683.941 64.6282 685.019 64.5842 685.588 64.6215C686.156 64.6588 686.739 64.6238 686.883 64.5439C687.044 64.4546 686.935 64.443 686.601 64.5138C686.263 64.5855 686.159 64.5731 686.325 64.4811C686.637 64.3075 688.617 64.1503 690.961 64.113C692.343 64.091 692.629 64.0353 692.666 63.7805C692.707 63.507 692.42 63.4629 689.968 63.3654C688.459 63.3054 686.757 63.2702 686.186 63.2871L685.148 63.3179L686.25 63.1125C688.16 62.7563 690.023 62.606 693.659 62.5146C695.6 62.4659 698.402 62.3213 699.887 62.1934C703.3 61.8991 715.145 61.8766 715.662 62.1633C715.84 62.262 716.205 62.2961 716.474 62.2392C717.167 62.0921 724.807 62.0426 724.547 62.1869C724.304 62.3218 724.366 62.3241 729.797 62.3806C733.63 62.4205 735.248 62.4692 740.988 62.7172C743.605 62.8303 745.135 62.7655 746.631 62.4783C747.257 62.3581 747.122 62.2897 745.614 61.963C744.397 61.6995 742.911 61.5445 740.667 61.4472C736.838 61.2811 733.184 61.0719 730.552 60.868C728.977 60.746 728.663 60.6706 728.828 60.4542C728.947 60.2989 729.27 60.2212 729.612 60.2662C729.932 60.3083 730.194 60.2718 730.194 60.1851C730.194 60.0984 729.867 60.0264 729.467 60.0253C728.846 60.0234 728.831 60.003 729.363 59.885C729.757 59.7977 729.8 59.7461 729.48 59.7448C729.201 59.7435 729.082 59.6464 729.214 59.5282C729.381 59.3789 728.967 59.2395 727.852 59.0695L726.25 58.8252L730.306 58.7394C732.537 58.6921 735.48 58.66 736.845 58.6679C738.21 58.6759 739.327 58.6743 739.327 58.6645C739.327 58.6548 738.954 58.4989 738.497 58.3183C738.04 58.1377 737.667 58.0332 737.667 58.0862C737.667 58.1391 737.246 58.088 736.732 57.9723C736.218 57.8567 734.412 57.6884 732.719 57.5983C731.026 57.5082 728.901 57.345 727.997 57.2355C727.093 57.126 725.676 57.0342 724.848 57.0314C722.536 57.0236 716.712 56.5041 718.396 56.4559C718.605 56.4499 719.15 56.4155 719.607 56.3794C720.064 56.3434 720.665 56.2967 720.944 56.2758C721.894 56.2043 721.955 56.0657 721.078 55.9702C720.597 55.9178 719.715 55.7197 719.118 55.53C718.521 55.3402 717.616 55.1849 717.106 55.1849C716.597 55.1849 715.967 55.0968 715.706 54.9892C715.317 54.8283 715.659 54.7767 717.627 54.6998C718.944 54.6483 720.583 54.5752 721.268 54.5372C722.897 54.447 729.382 54.46 729.828 54.5545C730.429 54.6819 735.176 54.742 735.176 54.6222C735.176 54.5592 734.895 54.4279 734.553 54.3304C734.21 54.2329 733.93 54.0862 733.93 54.0044C733.93 53.9226 734.053 53.8978 734.203 53.9493C734.354 54.0009 734.727 53.9717 735.034 53.8844C735.342 53.7966 735.591 53.7866 735.591 53.8619C735.591 53.9368 735.871 53.9981 736.214 53.9981C737.211 53.9981 736.937 53.8455 735.567 53.6375C734.026 53.4035 734.247 53.3054 736.731 53.1198C738.997 52.9505 739.429 52.6852 737.804 52.4605C736.123 52.228 728.223 51.9263 723.708 51.922C721.591 51.92 719.363 51.8757 718.758 51.8236L717.656 51.7288L718.839 51.3968C719.49 51.2142 720.338 51.0625 720.724 51.0597C721.708 51.0526 722.007 50.826 721.48 50.4877C720.922 50.1304 717.311 49.4879 715.86 49.4879C715.248 49.4879 714.894 49.4265 715.04 49.3455C715.181 49.2672 715.639 49.2031 716.058 49.2031C716.762 49.2031 717.544 48.8475 717.389 48.5978C717.233 48.3439 723.82 48.6278 724.371 48.8987C724.792 49.1056 735.394 49.6462 736.436 49.5139L737.428 49.388L736.463 49.2107C735.932 49.1133 732.483 48.8611 728.798 48.6503C722.055 48.2647 720.414 47.9925 724.832 47.9925C726.19 47.9925 727.439 47.9111 727.845 47.7962C728.422 47.633 729.22 47.6285 732.584 47.7695C738.768 48.0286 742.363 48.2066 743.206 48.2954C743.764 48.3543 743.932 48.3121 743.829 48.1389C743.677 47.8865 742.393 47.5903 740.379 47.3436C738.646 47.1313 739.723 46.944 741.94 47.0725C742.9 47.1282 744.527 47.2189 745.555 47.2741L747.423 47.3744L745.866 46.8626C745.01 46.5811 744.309 46.3278 744.309 46.2998C744.309 46.2718 745.468 46.204 746.884 46.149C750.232 46.0191 752.023 45.6971 752 45.2295C751.988 44.9829 749.302 44.652 746.803 44.5893C745.774 44.5635 743.437 44.4405 741.611 44.3161C739.784 44.1916 736.981 44.0609 735.383 44.0257C733.784 43.9904 731.355 43.8941 729.986 43.8116C721.479 43.2991 719.564 43.173 719.197 43.1009C718.972 43.0565 719.626 42.9503 720.65 42.8647C721.681 42.7786 722.513 42.6256 722.513 42.5221C722.513 42.2824 718.329 41.7618 714.531 41.5289C712.684 41.4157 711.317 41.2472 710.869 41.0775C710.469 40.9257 709.079 40.7342 707.704 40.6414C704.584 40.4308 704.668 40.2311 708.058 39.8014C708.785 39.7093 709.295 39.5598 709.192 39.4692C708.958 39.263 707.034 38.9484 706.007 38.9484C705.582 38.9484 705.35 38.8843 705.491 38.806C705.632 38.7277 707.138 38.6636 708.837 38.6636C711.637 38.6636 712.761 38.518 711.407 38.3306C710.198 38.1632 716.257 38.2539 719.25 38.4479C722.976 38.6896 725.004 38.5884 725.004 38.1609C725.004 37.9637 723.92 37.7049 720.929 37.1883C718.112 36.7016 717.023 36.447 717.4 36.3633C718.117 36.2044 717.409 36.042 714.625 35.7265C710.695 35.2812 707.577 34.5347 707.986 34.137C708.266 33.8654 706.734 33.7173 700.405 33.4039C697.259 33.2481 694.109 33.022 693.404 32.9014C692.699 32.7808 691.207 32.6445 690.089 32.5985C687.004 32.4716 681.101 31.9593 680.178 31.7383C679.727 31.6305 678.793 31.5378 678.102 31.5323C677.411 31.5268 676.471 31.4672 676.015 31.3999C675.353 31.3024 675.523 31.2732 676.845 31.2565C680.384 31.2118 682.261 31.0921 682.731 30.8813C683.051 30.7375 683.551 30.6932 684.184 30.7528C685.014 30.8311 685.046 30.8218 684.414 30.686C684.01 30.5993 683.357 30.5465 682.961 30.5688C682.566 30.5912 681.991 30.5554 681.684 30.4894C681.353 30.4183 680.707 30.4461 680.101 30.5573C679.303 30.7038 678.904 30.7082 678.292 30.577C677.795 30.4706 677.414 30.46 677.255 30.5483C677.117 30.625 675.94 30.69 674.641 30.6928C673.341 30.6956 671.811 30.7895 671.24 30.9014C669.997 31.1453 669.58 31.1632 669.58 30.9726C669.58 30.8943 669.871 30.8302 670.227 30.8302C670.583 30.8302 670.772 30.7734 670.647 30.704C670.522 30.6345 670.81 30.5426 671.289 30.4997C671.767 30.4568 672.077 30.3374 671.978 30.2343C671.795 30.0441 669.935 29.9326 664.182 29.767C658.985 29.6175 657.54 29.537 657.54 29.3972C657.54 29.3237 657.82 29.2635 658.162 29.2635C658.508 29.2635 658.785 29.1369 658.785 28.9787C658.785 28.7698 658.508 28.6938 657.747 28.6938C656.553 28.6938 656.349 28.4745 657.452 28.3756C657.86 28.3389 659.962 28.3432 662.122 28.385C668.415 28.5068 670.932 28.4663 672.248 28.2219C672.917 28.0978 673.584 28.0216 673.73 28.0526C673.876 28.0837 673.919 27.9286 673.825 27.7081C673.619 27.2269 674.203 27.1519 678.465 27.1117C681.017 27.0876 681.215 27.066 680.328 26.9083C678.869 26.649 673.519 26.2768 670.328 26.2127C668.697 26.18 667.157 26.063 666.603 25.9299C665.424 25.6465 664.713 25.6429 663.915 25.9165C663.557 26.0395 662.557 26.1288 661.558 26.1271C658.481 26.1216 647 25.7211 645.441 25.5648C643.986 25.4188 643.942 25.3952 644.249 24.9281C644.442 24.6338 644.399 24.3851 644.138 24.2956C643.842 24.1941 643.855 24.0878 644.179 23.9537C645.171 23.5437 643.909 23.4588 637.85 23.5279C633.143 23.5816 631.674 23.5522 630.719 23.3851C629.708 23.2083 625.152 22.9644 622.043 22.9207C621.586 22.9143 620.279 22.8517 619.137 22.7817L617.061 22.6544L618.929 22.5508C619.957 22.4938 623.039 22.4799 625.78 22.5198C628.52 22.5598 632.443 22.5839 634.498 22.5735C636.553 22.5631 640.57 22.6589 643.424 22.7865C649.072 23.039 654.896 23.2156 657.403 23.2104C658.277 23.2086 659.11 23.2631 659.254 23.3315C659.397 23.3999 660.098 23.4641 660.81 23.4741C661.523 23.4841 662.107 23.5453 662.107 23.6102C662.107 23.675 662.527 23.6875 663.041 23.6379C663.772 23.5674 663.84 23.5803 663.352 23.6974C662.815 23.8263 662.83 23.8473 663.456 23.8491C663.855 23.8504 664.182 23.9228 664.182 24.0101C664.182 24.1077 664.577 24.0802 665.206 23.9389C666.342 23.6834 666.84 23.6433 666.495 23.8351C666.37 23.9045 666.639 23.9947 667.093 24.0354C667.566 24.0778 667.919 24.0391 667.919 23.9448C667.919 23.8494 668.575 23.7801 669.476 23.7801C670.465 23.7801 670.997 23.8425 670.935 23.9513C670.868 24.0692 671.316 24.1016 672.37 24.0553C674.099 23.9793 675.804 23.6475 675.813 23.3852C675.818 23.273 675.964 23.2869 676.222 23.424C676.535 23.5899 676.626 23.5479 676.631 23.2366C676.639 22.7229 675.955 22.2846 675.145 22.2846C674.797 22.2846 674.628 22.2205 674.769 22.1422C674.91 22.0639 674.688 21.9949 674.275 21.9889C672.907 21.969 672.038 21.8827 671.113 21.6748C670.283 21.4884 668.334 21.5601 668.334 21.7771C668.334 21.8163 668.584 21.8155 668.89 21.775C669.196 21.7348 669.71 21.8132 670.032 21.9493C670.537 22.1625 670.536 22.1799 670.027 22.0748C669.574 21.981 669.505 22.0132 669.73 22.2141C669.905 22.3704 669.808 22.522 669.489 22.5914C668.695 22.7643 668.026 22.7317 668.749 22.5553C669.217 22.4409 668.977 22.4222 667.777 22.4795C666.895 22.5216 665.843 22.4829 665.423 22.393C664.849 22.2699 664.517 22.2725 664.057 22.4035C663.566 22.5431 663.386 22.5276 663.127 22.3237C662.949 22.1846 662.834 22.0228 662.87 21.964C662.907 21.9053 662.672 21.8572 662.348 21.8572C662.025 21.8572 661.689 21.7839 661.602 21.6943C661.515 21.6047 660.895 21.5114 660.226 21.4869C659.556 21.4624 658.799 21.3444 658.544 21.2247C658.289 21.105 657.928 21.0542 657.743 21.1117C657.558 21.1692 657.524 21.1041 657.668 20.967C657.989 20.6602 657.195 20.6315 656.852 20.9376C656.635 21.1321 656.517 21.1296 655.827 20.9155C655.091 20.687 655.048 20.6886 655.042 20.9449C655.037 21.1723 654.97 21.1816 654.633 21.0026C654.033 20.6842 654.119 20.6148 655.23 20.5191C655.935 20.4584 656.222 20.3409 656.176 20.1321C656.103 19.7995 654.657 19.5508 652.991 19.5844C651.437 19.6157 650.066 19.4324 650.066 19.1935C650.066 19.0396 649.654 18.9945 648.509 19.0232C646.836 19.0651 644.021 18.9048 643.008 18.7099C642.506 18.6131 642.546 18.5879 643.216 18.579C643.673 18.5729 644.98 18.5379 646.122 18.5012C649.653 18.3876 654.348 18.3912 656.042 18.5087C657.205 18.5894 657.578 18.5758 657.37 18.4604C657.192 18.3612 657.304 18.3292 657.664 18.3766C658.005 18.4215 658.556 18.2912 658.995 18.0618C659.529 17.7817 659.6 17.6539 659.242 17.6129C658.905 17.5745 658.987 17.4895 659.489 17.3542C660.172 17.1706 660.128 17.1594 658.992 17.2271C658.307 17.2679 657.98 17.2635 658.266 17.2174C659.317 17.0473 658.738 16.8723 657.124 16.8723C656.076 16.8723 655.461 16.9379 655.457 17.0503C655.453 17.1813 655.357 17.1773 655.094 17.0351C654.87 16.9137 654.64 16.8958 654.476 16.9868C654.197 17.1415 653.669 17.1295 652.371 16.9389C651.926 16.8736 650.948 16.8158 650.197 16.8106C648.477 16.7986 647.918 16.445 649.62 16.445C650.293 16.445 650.911 16.3524 651.047 16.2314C651.208 16.0872 651.027 16.0178 650.489 16.0178C650.051 16.0178 649.543 15.9376 649.36 15.8397C648.884 15.5844 647.192 15.282 646.757 15.3743C646.554 15.4174 646.27 15.3876 646.126 15.308C645.983 15.2284 645.35 15.1632 644.72 15.1632C644.09 15.1632 642.56 15.0591 641.319 14.9319C639.362 14.7311 639.186 14.685 639.986 14.5821C640.492 14.5169 643.959 14.4722 647.689 14.4829C651.419 14.4936 654.716 14.4504 655.014 14.3872C655.323 14.3217 655.679 14.34 655.84 14.4298C656.174 14.615 669.08 14.7554 669.401 14.5773C669.514 14.5147 669.896 14.5017 670.25 14.5483C670.686 14.6058 670.744 14.6651 670.428 14.732C670.172 14.7864 670.529 14.8309 671.224 14.8309C671.918 14.8309 672.485 14.7696 672.485 14.6947C672.485 14.6199 672.77 14.6397 673.118 14.7388C673.466 14.8379 673.884 14.8734 674.046 14.8177C674.208 14.762 673.877 14.5952 673.309 14.447L672.278 14.1776L673.316 14.2461C674.225 14.306 674.251 14.2977 673.523 14.1792C672.326 13.984 670.358 14.0042 669.205 14.2235C668.08 14.4372 666.673 14.3668 666.673 14.0968C666.673 13.9724 665.853 13.9166 663.974 13.9129C662.281 13.9097 661.276 13.966 661.276 14.0642C661.276 14.1503 661.042 14.1157 660.757 13.9873C660.382 13.8187 659.258 13.7285 656.709 13.6625C654.768 13.6122 652.001 13.4807 650.56 13.3702C649.118 13.2597 647.343 13.1631 646.616 13.1556C645.888 13.148 644.358 13.0544 643.216 12.9474C641.27 12.7651 641.489 12.7578 646.745 12.8307C649.828 12.8734 652.63 12.9094 652.973 12.9107C653.315 12.912 657.612 13.0633 662.521 13.2469C667.431 13.4305 672.783 13.6003 674.415 13.6242C676.048 13.6482 677.298 13.7158 677.193 13.7745C677.089 13.8333 677.808 13.8816 678.792 13.8819C679.776 13.8819 682.262 13.9754 684.318 14.0888C687.842 14.2834 696.131 14.4841 695.005 14.3476C694.719 14.3128 694.59 14.2257 694.719 14.1541C694.848 14.0824 694.428 14.0207 693.787 14.017C693.146 14.0133 691.967 13.8885 691.168 13.7399C690.369 13.5912 689.341 13.4098 688.884 13.3368C687.383 13.0967 662.897 11.707 657.124 11.5343C655.412 11.4831 650.461 11.3142 646.122 11.159C641.784 11.0039 636.058 10.8147 633.397 10.7387C630.737 10.6627 627.661 10.5077 626.563 10.3943C625.12 10.2452 624.486 10.2321 624.279 10.3469C624.017 10.4925 619.649 10.4526 614.362 10.2564C613.563 10.2268 611.041 10.1625 608.757 10.1135C604.66 10.0257 598.418 9.73027 594.924 9.45881C593.937 9.38216 592.955 9.35652 592.741 9.40183C592.527 9.44715 589.635 9.34299 586.313 9.17037C581.399 8.91496 580.097 8.889 579.324 9.03096C578.547 9.17368 577.551 9.14973 573.845 8.89921C567.677 8.48217 559.627 7.94001 555.616 7.67139C553.789 7.54905 551.136 7.35805 549.719 7.24696C548.302 7.13586 546.527 7.04527 545.774 7.04565C545.022 7.04565 543.566 6.95407 542.538 6.84125C540.807 6.65113 537.261 6.44007 527.8 5.96392C522.94 5.7193 521.96 5.66284 517.006 5.34154C514.722 5.19347 510.986 4.96654 508.702 4.83725C506.419 4.70796 503.99 4.57039 503.305 4.53154C498.458 4.2567 497.535 4.26181 496.571 4.56883C496.05 4.73449 495.625 4.94279 495.625 5.03172C495.625 5.12065 495.485 5.18582 495.313 5.17655C495.142 5.16736 494.575 5.16736 494.053 5.17655C493.26 5.19063 493.173 5.23699 493.52 5.45953C494.028 5.78533 493.621 5.96106 492.861 5.74444C492.005 5.50072 492.2 5.71994 493.184 6.10852C493.701 6.31234 494.739 6.49509 495.693 6.55043C497.087 6.63124 497.247 6.67578 496.8 6.86029C496.13 7.13723 496.696 7.15441 470.092 6.0501C468.265 5.97427 464.996 5.8815 462.827 5.84393C460.657 5.80637 456.734 5.70817 454.108 5.62571C451.482 5.54327 448.026 5.45042 446.428 5.41938C444.829 5.38836 442.783 5.29656 441.88 5.2154C440.977 5.13425 437.395 5.0639 433.919 5.05909C430.444 5.05429 427.353 5.02178 427.05 4.98686C426.303 4.90071 416.574 4.72587 414.259 4.75699C413.236 4.7708 412.113 4.8707 411.763 4.97911C410.981 5.22202 408.988 5.24637 399.722 5.12629C395.462 5.07106 391.55 4.94553 390.265 4.82281C388.589 4.66268 385.809 4.61885 378.433 4.63625C373.13 4.64884 364.308 4.61064 358.828 4.55154C347.722 4.43176 348.316 4.4304 336.824 4.60154C329.384 4.71234 325.091 4.71694 318.557 4.62112C317.415 4.60438 316.808 4.56136 317.207 4.52554C317.607 4.48973 317.934 4.39341 317.934 4.31153C317.934 4.21331 316.769 4.19088 314.509 4.24562C312.625 4.29125 306.974 4.39354 301.95 4.47292C296.927 4.55232 290.481 4.68302 287.627 4.76338C276.16 5.08623 271.786 5.20002 265.831 5.33044C250.936 5.65667 243.084 5.78665 234.901 5.84249C231.133 5.86821 226.463 5.93292 224.522 5.98628C222.581 6.03965 219.685 6.07757 218.087 6.07054C216.488 6.06363 213.312 6.12079 211.029 6.19784C208.745 6.2749 201.35 6.36616 194.595 6.40066C187.84 6.43516 181.488 6.52586 180.48 6.6022C179.471 6.67855 177.178 6.77574 175.384 6.81817C173.59 6.86059 171.535 6.92827 170.817 6.96857C168.362 7.10636 164.53 7.20005 158.925 7.25927C153.99 7.31141 149.195 7.43656 142.111 7.6981C140.97 7.74024 139.382 7.79261 138.582 7.81446C137.783 7.83634 135.728 7.89535 134.016 7.94564C132.303 7.99592 129.407 8.07626 127.581 8.12419C125.755 8.1721 124.167 8.23106 124.052 8.25519C123.938 8.27934 122.782 8.33778 121.483 8.38516C120.184 8.43251 118.848 8.50728 118.514 8.55132C118.179 8.59535 116.253 8.65046 114.232 8.6738C108.683 8.73788 108.69 8.73749 108.69 8.96769C108.69 9.0852 108.493 9.18133 108.251 9.18133C108.009 9.18133 107.946 9.10635 108.111 9.01471C108.316 8.90109 108.181 8.87843 107.687 8.94349C107.288 8.99598 106.55 9.03891 106.046 9.03891C105.428 9.03891 105.11 9.1315 105.068 9.32376C104.993 9.66424 105.219 9.68058 106.051 9.39497C106.92 9.09686 107.892 9.11921 107.6 9.43058C107.457 9.58395 107.501 9.61859 107.717 9.52066C107.956 9.41219 109.126 9.39182 111.389 9.45673C115.285 9.56845 118.226 9.5377 123.636 9.32868C125.806 9.24488 128.608 9.14185 129.864 9.09972C131.12 9.05761 132.365 8.9987 132.632 8.9688C132.898 8.93892 133.225 9.01167 133.358 9.13045C133.537 9.29043 133.931 9.32147 134.878 9.25012C136.365 9.13806 137.321 9.09546 141.281 8.9647C142.879 8.91192 144.299 8.84516 144.435 8.81635C144.726 8.75497 150.279 8.74488 157.888 8.79192C162.715 8.82175 166.118 8.74023 168.658 8.53394C170.089 8.41772 180.099 8.36743 180.099 8.47649C180.099 8.53257 178.838 8.62475 177.297 8.68135C175.755 8.73796 174.121 8.80954 173.664 8.84044C170.46 9.0572 161.881 9.30013 154.981 9.36946C153.383 9.38554 151.878 9.44206 151.636 9.49509C151.235 9.58328 138.522 9.92336 137.84 9.86417C137.677 9.85006 136.143 9.88337 134.431 9.93818C131.783 10.0229 125.022 10.1934 123.325 10.2182C122.712 10.2272 122.639 10.411 123.202 10.5304C123.606 10.616 126.736 10.6358 129.568 10.5706C130.433 10.5507 131.292 10.45 131.478 10.3469C131.729 10.2074 132.442 10.1842 134.265 10.256C135.612 10.309 136.839 10.378 136.992 10.4091C137.145 10.4403 137.553 10.3686 137.9 10.2497C138.246 10.1309 138.628 10.0886 138.749 10.1557C138.984 10.2858 147.363 10.2304 149.792 10.0826C150.591 10.034 152 9.98099 152.922 9.96484C153.845 9.94869 155.012 9.85967 155.517 9.76703C156.251 9.63236 156.435 9.63672 156.435 9.78877C156.435 9.90071 156.99 9.99431 157.784 10.0163C161.067 10.1072 165.661 10.0986 169.305 9.99471C171.925 9.92002 173.044 9.92936 172.638 10.0226C171.001 10.3985 174.072 10.5839 178.853 10.3979C183.092 10.233 183.85 10.2243 185.682 10.3197C186.627 10.3689 187.953 10.3584 188.628 10.2963C190.406 10.1329 199.648 9.84346 203.763 9.82234C205.704 9.81238 208.507 9.76039 209.991 9.70684C211.475 9.6533 214.464 9.57658 216.633 9.53637C218.803 9.49616 223.94 9.36904 228.051 9.25387C232.161 9.13869 238.274 9.00139 241.636 8.94876C247.114 8.86299 247.776 8.87767 248.014 9.09025C248.24 9.29244 248.961 9.32654 252.903 9.32138C255.446 9.3181 258.368 9.3673 259.396 9.43083L261.264 9.54638L258.15 9.70519C256.437 9.79253 254.382 9.86225 253.583 9.8601C252.784 9.85777 249.515 9.95544 246.318 10.0767C243.121 10.198 237.049 10.3688 232.825 10.4563C228.601 10.5437 224.729 10.646 224.221 10.6835C223.713 10.721 219.509 10.814 214.88 10.8903C206.559 11.0274 200.728 11.1392 196.29 11.2469C195.034 11.2774 190.726 11.3673 186.716 11.4466C182.707 11.5259 179.157 11.6194 178.828 11.6543C178.5 11.6891 177.857 11.7662 177.4 11.8254C176.944 11.8846 175.852 11.9509 174.974 11.9727C174.096 11.9944 173.161 12.1138 172.897 12.238C172.514 12.4174 171.433 12.4714 167.642 12.5007C165.017 12.5209 162.683 12.5769 162.454 12.6251C162.226 12.6732 160.638 12.7502 158.925 12.7962C150.739 13.016 142.555 13.1944 138.79 13.2353C136.507 13.2602 131.649 13.3924 127.996 13.5292C124.342 13.666 119.672 13.7991 117.617 13.8251C103.393 14.0051 92.033 14.2317 86.0639 14.4546C84.0088 14.5313 80.4067 14.6353 78.0592 14.6857C75.7117 14.7361 73.6923 14.8321 73.5717 14.8991C73.4511 14.966 73.9705 15.026 74.7262 15.0324C75.4817 15.0388 76.6273 15.0571 77.272 15.0732C77.9166 15.0892 78.5252 15.0573 78.6246 15.0022C78.7238 14.9471 79.4953 14.9674 80.339 15.0473C81.1953 15.1284 83.0738 15.151 84.5912 15.0986C86.0862 15.0468 94.0351 14.9794 102.255 14.9488C110.476 14.9181 120.284 14.8516 124.052 14.8011C130.767 14.7109 132.67 14.7661 128.265 14.9231C127.043 14.9667 125.952 15.0334 125.842 15.0713C125.546 15.1728 127.064 15.4242 128.323 15.482C129.791 15.5494 130.254 15.7299 128.999 15.7453C128.447 15.7521 125.567 15.8174 122.599 15.8904C119.63 15.9634 113.792 16.061 109.625 16.1073C102.774 16.1834 102.048 16.2154 102.048 16.4411C102.048 16.7543 100.376 16.8284 90.3038 16.9616C86.2422 17.0153 82.8216 17.1133 82.7025 17.1794C82.5834 17.2455 81.6673 17.2996 80.6668 17.2996C77.256 17.2996 78.212 17.6929 82.4018 18.0133C83.5844 18.1037 85.1724 18.1659 85.9307 18.1515C90.9871 18.0554 89.6607 18.3358 83.9881 18.5622C81.7047 18.6534 78.5287 18.759 76.9303 18.7969C75.3319 18.8349 72.4361 18.9298 70.4952 19.0079C68.5543 19.086 64.631 19.1921 61.7767 19.2438C58.2619 19.3074 56.4532 19.3979 56.172 19.5243C55.942 19.6277 54.4607 19.7523 52.8507 19.8037C51.2523 19.8547 49.7577 19.9747 49.5293 20.0703C49.301 20.166 47.7498 20.2875 46.0821 20.3403C44.4144 20.3932 42.6311 20.5305 42.1193 20.6456C41.5328 20.7774 39.7372 20.8779 37.2633 20.9174C31.9291 21.0026 27.7498 21.1631 27.5181 21.2917C27.2746 21.4268 30.9099 21.6198 31.4684 21.5014C31.6975 21.4529 31.8848 21.4739 31.8848 21.5481C31.8848 21.6224 31.2308 21.7252 30.4317 21.7766C28.8539 21.8782 28.5555 22.0554 29.7051 22.2082C31.0617 22.3887 29.1632 22.6744 24.8951 22.9322C21.3102 23.1488 19.0448 23.4164 20.6961 23.4283C22.2481 23.4394 19.8521 23.6905 17.3579 23.778C15.8771 23.83 14.4483 23.9344 14.183 24.0099C13.9176 24.0855 12.5189 24.2126 11.0747 24.2924C7.06205 24.5141 7.10549 24.6922 11.1989 24.8025C12.7283 24.8438 14.1266 24.966 14.5471 25.0951C15.1371 25.2763 15.8585 25.2979 18.4912 25.2136C23.8445 25.0421 24.9043 25.0754 25.7078 25.4408C26.101 25.6197 26.3419 25.8108 26.2432 25.8656C26.1445 25.9204 24.8046 26.0101 23.2657 26.0649C21.7268 26.1198 20.2809 26.2149 20.0525 26.2764C19.8242 26.3379 18.75 26.4335 17.6654 26.4889C14.6887 26.6409 15.2996 26.8421 18.7378 26.8421C20.4124 26.8421 21.9238 26.8902 22.0967 26.949C22.2695 27.0077 24.011 27.0558 25.9665 27.0558C28.439 27.0558 29.5762 27.11 29.7 27.2338C29.8221 27.3558 29.3773 27.4121 28.2867 27.4126C27.4114 27.4129 26.0413 27.4722 25.2421 27.5441C24.4429 27.6159 22.2077 27.7153 20.2749 27.7648C18.3421 27.8144 16.55 27.9149 16.2925 27.9882C16.0351 28.0615 15.7156 28.0842 15.5826 28.0385C15.4496 27.9929 14.9063 28.0088 14.3753 28.0739C13.6299 28.1652 14.0722 28.2128 16.316 28.2829C18.9639 28.3656 21.9839 28.5734 23.5815 28.783C24.5953 28.9159 23.0187 29.0621 18.2881 29.2737C15.9477 29.3783 14.0327 29.502 14.0327 29.5485C14.0327 29.5949 12.8183 29.6064 11.334 29.574C9.16536 29.5266 8.6355 29.5559 8.6355 29.7232C8.6355 29.9814 9.94958 30.4035 10.7441 30.4006C11.2322 30.3988 11.2264 30.3746 10.7117 30.2604C10.1817 30.1429 10.1992 30.122 10.8285 30.1201C11.2353 30.1188 11.6794 30.2174 11.8153 30.339C12.026 30.5273 12.7766 30.549 16.8881 30.4855C22.0402 30.406 23.3065 30.5002 22.3573 30.8926C20.7676 31.5497 14.2848 32.2543 9.8283 32.2543C7.13584 32.2543 5.72967 32.4271 5.72967 32.7578C5.72967 32.9234 6.3939 32.9658 8.94724 32.9631C10.7169 32.9612 12.912 32.8922 13.8254 32.8096C14.7388 32.7271 19.0423 32.6306 23.3887 32.5951C31.0749 32.5324 31.2931 32.5384 31.3543 32.8169C31.4144 33.0908 30.9076 33.2881 30.0169 33.3375C29.7885 33.3502 27.9975 33.4643 26.0367 33.591C19.6198 34.0058 13.9222 34.2585 8.09077 34.3869C2.68803 34.5059 0.845453 34.669 1.40374 34.9789C1.5312 35.0496 1.81395 35.0696 2.03218 35.0234C2.25041 34.9771 2.37761 35.0241 2.31482 35.1279C2.25165 35.2322 2.5235 35.3077 2.92288 35.2969C3.32002 35.2862 3.5552 35.3273 3.44548 35.3881C3.33569 35.4491 3.88011 35.5397 4.65527 35.5896C6.33073 35.6974 6.72804 35.9541 5.86993 36.3744C5.41264 36.5984 5.36388 36.7319 5.6901 36.8668C6.22507 37.0879 5.87565 37.2392 4.83015 37.2392C4.41151 37.2392 4.06906 37.266 4.06906 37.2988C4.06906 37.3315 3.94509 37.4692 3.79349 37.6047C3.54029 37.8311 3.81904 37.8434 7.21861 37.7566C9.25397 37.7047 11.6199 37.6241 12.4762 37.5775C13.7152 37.5102 14.0331 37.5383 14.0331 37.715C14.0331 37.8372 14.3342 37.995 14.7023 38.0657C15.6526 38.2481 15.0821 39.0688 13.8901 39.2337C13.038 39.3516 13.0348 39.3585 13.8254 39.3766C14.6558 39.3956 14.6558 39.3956 13.8254 39.518C13.0155 39.6374 14.1469 39.6885 18.3922 39.724C20.1631 39.7389 21.5061 39.9306 21.5061 40.1685C21.5061 40.2957 21.9362 40.3733 22.6477 40.3745C23.2757 40.3758 24.2142 40.4155 24.7333 40.4632C25.6184 40.5446 25.6314 40.5619 24.9408 40.7416C24.5359 40.847 23.6935 40.9353 23.0689 40.9378C22.4442 40.9403 20.7005 41.1666 19.1941 41.4408C17.6746 41.7173 15.8506 41.9393 15.0974 41.9393C12.5814 41.9393 8.65696 42.1206 8.8503 42.2279C8.95581 42.2865 8.72437 42.3256 8.33596 42.3149C7.94755 42.3041 7.56316 42.4058 7.48179 42.5408C7.29281 42.8541 9.74422 43.3944 11.0086 43.318C11.5144 43.2875 11.9961 43.3324 12.0792 43.4179C12.2749 43.6194 17.1202 43.6763 19.0582 43.4999C19.8812 43.425 24.1315 43.3464 28.5033 43.3251C35.8943 43.2892 38.0737 43.3619 35.3103 43.5522C34.6823 43.5955 33.3278 43.6961 32.3003 43.7758C31.2728 43.8556 29.6381 43.9236 28.6676 43.927C27.6972 43.9304 26.9032 43.9973 26.9032 44.0756C26.9032 44.154 26.6106 44.2181 26.2531 44.2181C25.8956 44.2181 25.2195 44.2885 24.7508 44.3746C23.9078 44.5293 23.9093 44.5329 24.8819 44.6992C26.5851 44.9905 26.0573 45.2653 23.195 45.5775C21.7264 45.7377 20.4374 45.962 20.3305 46.076C20.2235 46.19 19.9708 46.3204 19.769 46.3658C19.134 46.5088 19.8941 46.9482 20.6128 46.8536C20.976 46.8058 21.1585 46.806 21.0184 46.8541C20.8783 46.9022 21.2347 47.103 21.8103 47.3005C22.5674 47.5602 23.3481 47.666 24.6335 47.6831C25.6108 47.6961 26.3348 47.7486 26.2425 47.7998C26.1502 47.8511 27.8627 47.8616 30.048 47.8232C33.2251 47.7674 34.1609 47.7967 34.7177 47.9693C35.4909 48.209 39.5682 48.3079 41.695 48.1384C42.5071 48.0737 43.0998 48.0937 43.2764 48.1917C43.4317 48.2779 43.9996 48.3485 44.5383 48.3485C45.7873 48.3485 46.8312 48.4851 46.8312 48.6486C46.8312 48.7185 46.5602 48.7758 46.229 48.7758C45.8979 48.7758 45.4684 48.8729 45.2747 48.9917C45.0561 49.1257 43.4331 49.3071 40.9986 49.4696C36.2019 49.7897 32.6708 50.2792 33.0047 50.5777C33.1329 50.6923 33.5037 50.7511 33.8285 50.7083C34.1535 50.6656 34.3149 50.6885 34.1874 50.7593C34.0598 50.8301 34.4452 51.0877 35.0438 51.3318C35.845 51.6584 36.3525 51.7515 36.9668 51.6846C37.4294 51.6343 37.6973 51.6516 37.5678 51.7235C37.4393 51.7948 37.9839 51.8595 38.7781 51.8672C39.5722 51.8749 41.5333 51.9915 43.1361 52.1262L46.0502 52.3712L45.1228 52.7099C44.6128 52.8961 44.0227 53.0485 43.8116 53.0485C43.6005 53.0485 42.7866 53.1529 42.0029 53.2805C40.6366 53.5029 40.604 53.526 41.209 53.8428C41.6066 54.0509 41.6856 54.2058 41.4226 54.2616C41.1931 54.3102 41.1251 54.4165 41.2715 54.4978C41.4433 54.5932 41.6667 54.5771 41.9011 54.4524C42.1368 54.327 42.3737 54.3102 42.5757 54.4045C42.747 54.4844 43.4475 54.6425 44.1326 54.7559L45.3781 54.9619L44.0641 55.0103C42.6414 55.0627 41.8808 55.4282 42.912 55.564C43.2605 55.6098 43.6489 55.612 43.7751 55.5687C43.9013 55.5254 44.6264 55.6098 45.3865 55.7562C46.1465 55.9027 47.4785 56.0682 48.3462 56.1241C49.2141 56.1799 50.1757 56.3119 50.4831 56.4174C51.2114 56.6672 51.4965 56.6617 55.3541 56.3233C58.8162 56.0195 59.792 56.0478 61.2125 56.4932C62.0138 56.7445 62.3371 56.7568 64.5063 56.6193C67.3517 56.4388 72.7124 56.4157 72.407 56.5852C72.2896 56.6504 70.8307 56.7834 69.1649 56.8808C64.9211 57.1291 64.4435 57.1824 65.1404 57.3302C66.3484 57.5863 60.9392 58.1909 55.6527 58.3907C54.2252 58.4446 52.9666 58.539 52.856 58.6004C52.7453 58.6618 53.0466 58.883 53.5255 59.0918C54.3298 59.4426 54.3452 59.4909 53.7274 59.7251C53.3596 59.8645 53.0586 60.0136 53.0586 60.0565C53.0586 60.2325 60.0888 59.9792 62.3999 59.7199C65.7231 59.3471 72.4523 59.075 73.0741 59.2883C73.4029 59.4011 73.4059 59.498 73.0844 59.6309C72.6503 59.8104 71.9845 59.8871 66.4478 60.3961C64.7212 60.5548 63.8531 60.7064 63.8531 60.8491C63.8531 61.0295 64.3429 61.0484 66.9334 60.9679C68.907 60.9065 70.1092 60.9251 70.2793 61.0195C70.4253 61.1005 70.316 61.1668 70.0359 61.1668C69.756 61.1668 69.6237 61.2 69.7419 61.2405C70.0202 61.336 75.9 60.9127 76.4846 60.7551C76.9443 60.6311 83.0069 60.3108 84.2999 60.3421C84.6995 60.3518 85.0265 60.4399 85.0265 60.538C85.0265 60.636 85.1231 60.8026 85.2412 60.9082C85.4453 61.0906 80.3751 61.4594 71.6382 61.8976C70.3257 61.9634 68.5747 62.1143 67.7472 62.233C66.9197 62.3516 65.6583 62.449 64.9441 62.4494C63.0638 62.4507 60.3632 62.7326 60.7995 62.8823C61.0016 62.9516 63.5299 63.0266 66.418 63.0489C69.3061 63.0713 71.638 63.1004 71.6001 63.1137C71.5623 63.127 70.6079 63.2623 69.4796 63.4143C67.5146 63.6791 67.4676 63.698 68.3656 63.8629C69.0688 63.992 69.8202 63.997 71.3728 63.8827C73.8996 63.6968 74.2322 63.6943 74.2322 63.8615C74.2322 63.9336 73.6739 64.0347 72.9915 64.0861C70.7219 64.2571 71.2135 64.4425 73.9363 64.4425C75.521 64.4425 77.1235 64.5329 77.9019 64.6661C78.6896 64.8009 79.573 64.8499 80.127 64.7896C81.3114 64.6607 100.804 64.6115 100.576 64.738C100.093 65.0061 105.539 65.0047 110.187 64.7355C119.598 64.1904 127.605 63.8806 132.771 63.8617C135.625 63.8512 139.922 63.7546 142.319 63.6469C144.717 63.5393 148.988 63.3851 151.811 63.3044C154.634 63.2236 157.063 63.1329 157.208 63.1028C157.354 63.0726 158.874 63.0071 160.587 62.9571C162.299 62.907 164.354 62.839 165.153 62.8059C166.817 62.7369 174.392 62.592 179.892 62.524C183.87 62.4747 189.916 62.3437 194.007 62.2181C195.377 62.176 200.702 62.1143 205.84 62.0808C210.977 62.0474 217.049 61.9676 219.333 61.9034C221.616 61.8392 227.931 61.793 233.366 61.8008C241.586 61.8126 243.315 61.8503 243.642 62.0249C243.975 62.203 244.091 62.2047 244.408 62.0361C244.657 61.9037 245.191 61.8655 246.008 61.9215C246.685 61.968 247.439 61.9358 247.69 61.8498C247.94 61.7641 248.761 61.6804 249.515 61.6639C250.268 61.6474 251.259 61.5959 251.715 61.5495C254.203 61.2968 256.796 61.2233 257.84 61.3759C258.678 61.4984 260.771 61.3537 260.482 61.1932C260.375 61.1341 262.376 61.0685 264.928 61.0474C271.8 60.9907 272.512 60.9648 273.29 60.7434C273.922 60.5634 273.985 60.5717 273.86 60.8182C273.765 61.0061 273.92 61.0791 274.342 61.0448C274.685 61.017 275.385 60.9929 275.899 60.9914C276.413 60.9898 276.833 60.9394 276.833 60.8792C276.833 60.819 277.134 60.7302 277.502 60.6817C277.988 60.6178 278.103 60.6546 277.922 60.8163C277.75 60.9697 277.833 61.0041 278.187 60.9269C278.47 60.8652 280.476 60.7947 282.645 60.7701C287.207 60.7183 286.529 60.719 307.97 60.745C316.99 60.7559 325.525 60.7185 326.936 60.6619C328.348 60.6054 329.817 60.6004 330.201 60.6509C330.908 60.744 344.47 60.9276 348.637 60.9006C351.896 60.8795 355.592 61.5367 353.536 61.7718C353.23 61.8068 353.441 61.9076 354.055 62.0186C354.625 62.1218 355.195 62.2603 355.322 62.3264C355.78 62.5654 359.306 62.6987 360.307 62.5149C360.938 62.3991 362.609 62.3575 365.238 62.3922C367.425 62.4211 374.609 62.4786 381.203 62.5199C387.797 62.5612 393.645 62.6341 394.199 62.6818C394.754 62.7296 397.111 62.7785 399.437 62.7904C401.763 62.8024 404.04 62.8843 404.496 62.9723C405.314 63.1299 409.164 63.3885 409.808 63.3291C410.603 63.2559 412.078 63.2743 413.422 63.3742C414.222 63.4335 415.249 63.4713 415.706 63.4582C416.163 63.445 416.91 63.423 417.367 63.4092C417.823 63.3954 419.972 63.4593 422.141 63.5513C424.31 63.6433 426.893 63.7173 427.88 63.7156C428.867 63.7141 429.895 63.7733 430.163 63.8474C430.432 63.9215 431.259 64.0267 432.001 64.0812C433.106 64.1622 433.35 64.1364 433.35 63.9391C433.35 63.7256 433.694 63.7096 436.36 63.7989C438.016 63.8543 442.36 63.9145 446.013 63.9325C449.666 63.9506 453.662 64.0406 454.892 64.1326C456.122 64.2246 457.219 64.2999 457.33 64.2999C457.441 64.2999 457.299 64.3961 457.015 64.5136C456.731 64.6311 455.867 64.7272 455.096 64.7272C454.325 64.7272 453.694 64.754 453.694 64.7868C453.694 64.8195 453.58 64.9477 453.442 65.0716C453.096 65.3806 454.265 65.3654 455.187 65.0489C455.71 64.8696 455.958 64.8501 456.083 64.9786C456.178 65.0763 456.426 65.12 456.635 65.0757C456.844 65.0315 457.015 65.0471 457.015 65.1105C457.015 65.1739 457.435 65.2336 457.949 65.2432C458.463 65.2528 461.312 65.3332 464.28 65.4218C467.249 65.5105 473.227 65.6087 477.566 65.6401C481.904 65.6715 485.921 65.7323 486.492 65.7752C488.426 65.9207 499.06 66.2582 504.759 66.3549C515.318 66.5341 523.324 67.0522 524.975 67.6632C525.491 67.8544 526.401 68.0087 527.054 68.016C532.427 68.0759 539.887 68.2678 543.162 68.4304C544.532 68.4984 546.935 68.5933 548.503 68.6414C550.07 68.6894 552.291 68.7897 553.438 68.8643C554.584 68.939 555.59 69 555.673 69C555.756 69 555.824 68.836 555.824 68.6355L555.824 68.6358ZM555.824 67.3399C555.824 67.1841 556.008 67.1724 556.639 67.2883C557.126 67.3777 557.357 67.5245 557.213 67.653C557.028 67.8187 556.841 67.8306 556.398 67.7046C556.083 67.6147 555.824 67.4506 555.824 67.3399ZM485.869 65.2216C484.244 65.0217 484.285 65.0188 487.737 65.0882C495.641 65.2472 498.116 65.3277 498.116 65.4259C498.116 65.6118 487.616 65.4365 485.869 65.2216ZM678.713 63.5016C678.713 63.4708 678.993 63.4456 679.336 63.4456C679.678 63.4456 679.959 63.5077 679.959 63.5836C679.959 63.6595 679.678 63.6847 679.336 63.6396C678.993 63.5945 678.713 63.5324 678.713 63.5016ZM648.614 63.0184C648.469 62.9379 648.809 62.8759 649.395 62.8759C649.966 62.8759 650.548 62.94 650.689 63.0184C650.834 63.0988 650.494 63.1608 649.908 63.1608C649.337 63.1608 648.755 63.0967 648.614 63.0184ZM668.334 62.2896C668.334 62.1427 668.831 62.1289 669.753 62.2502C670.795 62.3874 670.515 62.5585 669.372 62.4835C668.801 62.4461 668.334 62.3588 668.334 62.2896ZM433.418 62.2664C432.002 62.1311 431.807 62.0791 432.505 62.0223C433.613 61.9322 446.822 62.1226 453.901 62.3306C455.825 62.3872 440.969 62.5252 437.917 62.4792C436.433 62.4568 434.408 62.361 433.418 62.2664ZM419.027 61.8281C418.57 61.791 419.411 61.7659 420.895 61.7723C424.438 61.7876 425.84 61.9184 423.594 62.0241C422.681 62.0671 421.466 62.0557 420.895 61.9989C420.324 61.942 419.484 61.8652 419.027 61.8281V61.8281ZM683.973 61.8699C683.118 61.8614 683.123 61.854 684.083 61.7224C685.215 61.5672 686.186 61.6445 686.186 61.8897C686.186 61.9791 685.891 62.0131 685.529 61.9654C685.168 61.9179 684.468 61.8749 683.973 61.8699ZM412.79 61.7096C412.679 61.6715 413.418 61.6296 414.432 61.6164C415.447 61.6033 416.406 61.6642 416.563 61.7517C416.765 61.8636 416.277 61.8913 414.921 61.8449C413.86 61.8086 412.901 61.7477 412.79 61.7096V61.7096ZM88.1401 60.0274C87.9812 59.9392 88.6437 59.8914 89.88 59.9019C91.6525 59.9168 91.7368 59.9309 90.6311 60.0274C88.8144 60.186 88.4258 60.186 88.1401 60.0274ZM728.04 57.9362C728.34 57.8951 728.698 57.9001 728.836 57.9474C728.974 57.9948 728.728 58.0284 728.291 58.0222C727.807 58.0154 727.709 57.9817 728.04 57.9362V57.9362ZM723.136 57.7486C722.301 57.657 722.261 57.6338 722.928 57.6304C723.385 57.6281 724.132 57.6813 724.589 57.7486C725.647 57.9046 724.555 57.9046 723.136 57.7486ZM717.565 57.8046C717.204 57.7571 716.908 57.6029 716.908 57.4621C716.908 57.2439 717.17 57.2172 718.673 57.2817C720.581 57.3635 721.825 57.6062 720.337 57.6062C719.848 57.6062 719.333 57.6703 719.192 57.7486C718.896 57.9126 718.491 57.9265 717.565 57.8046V57.8046ZM43.0946 55.3274C43.0946 55.2491 43.4216 55.186 43.8211 55.1871C44.442 55.189 44.4572 55.2094 43.925 55.3274C43.1415 55.5011 43.0946 55.5011 43.0946 55.3274V55.3274ZM707.282 49.5331C707.581 49.4919 707.94 49.497 708.077 49.5443C708.215 49.5917 707.97 49.6253 707.533 49.6191C707.049 49.6123 706.951 49.5785 707.282 49.5331V49.5331ZM710.681 49.1175C710.681 48.8854 711.836 48.8593 713.352 49.0571C715.004 49.2725 714.612 49.4241 712.549 49.3678C711.296 49.3336 710.681 49.2512 710.681 49.1175ZM702.969 49.2203C703.384 48.9902 704.869 48.9315 704.869 49.1452C704.869 49.2652 704.442 49.3455 703.806 49.3455C703.222 49.3455 702.845 49.2892 702.969 49.2203V49.2203ZM706.114 49.0607C705.651 48.958 705.89 48.922 707.048 48.9204C707.904 48.9191 708.605 48.9823 708.605 49.0607C708.605 49.2421 706.932 49.2421 706.114 49.0607ZM14.0331 32.3969C14.0331 32.3185 14.2199 32.2545 14.4483 32.2545C14.6766 32.2545 14.8634 32.3185 14.8634 32.3969C14.8634 32.4752 14.6766 32.5393 14.4483 32.5393C14.2199 32.5393 14.0331 32.4752 14.0331 32.3969ZM11.0231 29.7389C11.3085 29.6994 11.7755 29.6994 12.0609 29.7389C12.3464 29.7784 12.1128 29.8107 11.5421 29.8107C10.9711 29.8107 10.7377 29.7784 11.0231 29.7389ZM17.2505 28.0236C17.7643 27.9896 18.605 27.9896 19.1188 28.0236C19.6326 28.0575 19.2122 28.0853 18.1847 28.0853C17.1571 28.0853 16.7368 28.0575 17.2505 28.0236V28.0236ZM36.452 26.8738C36.452 26.8129 37.9933 26.687 39.8771 26.5941C41.7609 26.5012 43.7518 26.3807 44.3012 26.3264C44.9216 26.2651 45.2041 26.2811 45.0464 26.3686C44.9068 26.4461 43.1494 26.5911 41.1412 26.6907C39.133 26.7904 37.3031 26.8922 37.0747 26.9171C36.8464 26.9419 36.6128 26.9673 36.5557 26.9735C36.4986 26.9796 36.452 26.9348 36.452 26.8738V26.8738ZM641.971 25.5604C641.23 25.4511 641.26 25.437 642.258 25.428C642.872 25.4225 643.491 25.4821 643.632 25.5604C643.938 25.7305 643.124 25.7305 641.971 25.5604V25.5604ZM39.3581 24.726C39.3581 24.6587 41.2331 24.5305 43.5246 24.4412C48.6863 24.2398 49.6132 24.2357 49.0855 24.4168C48.864 24.4928 46.6314 24.612 44.1242 24.6817C41.617 24.7515 39.519 24.8175 39.4619 24.8284C39.4048 24.8394 39.3581 24.7933 39.3581 24.726V24.726ZM665.263 23.0205C665.145 22.9552 665.321 22.9018 665.654 22.9018C665.986 22.9018 666.258 22.9552 666.258 23.0205C666.258 23.0858 666.082 23.1392 665.868 23.1392C665.653 23.1392 665.381 23.0858 665.263 23.0205ZM609.718 22.7571C610.018 22.7159 610.376 22.721 610.514 22.7683C610.652 22.8156 610.406 22.8493 609.969 22.8431C609.485 22.8362 609.387 22.8025 609.718 22.757V22.7571ZM674.146 22.5695C674.146 22.4912 674.473 22.4281 674.873 22.4293C675.494 22.4311 675.509 22.4515 674.977 22.5695C674.193 22.7432 674.146 22.7432 674.146 22.5695V22.5695ZM672.486 22.3475C672.486 22.3129 672.672 22.2847 672.901 22.2847C673.129 22.2847 673.316 22.3525 673.316 22.4355C673.316 22.5184 673.129 22.5467 672.901 22.4983C672.672 22.4499 672.486 22.382 672.486 22.3475V22.3475ZM648.821 21.3558C648.25 21.3011 646.476 21.2028 644.877 21.1374C643.279 21.072 641.317 20.9508 640.518 20.868C639.719 20.7852 639.065 20.7228 639.065 20.7293C639.065 20.7839 636.221 20.4792 634.809 20.2733C632.668 19.9609 632.532 19.721 634.498 19.721C635.513 19.721 635.951 19.6566 635.951 19.5074C635.951 19.2883 634.093 19.2017 631.009 19.277C629.665 19.3098 625.831 19.0644 624.953 18.8893C624.298 18.7586 626.393 18.6112 629.126 18.5958C630.904 18.5857 632.419 18.686 634.29 18.9377C635.747 19.1335 637.324 19.2947 637.794 19.2959C638.476 19.2977 638.527 19.3247 638.047 19.4289C637.715 19.5009 637.295 19.5282 637.113 19.4895C636.93 19.4509 636.781 19.48 636.781 19.554C636.781 19.6815 637.69 19.7716 640.861 19.9583C641.621 20.003 642.343 20.1297 642.467 20.24C642.65 20.4038 642.81 20.4073 643.343 20.2587C643.889 20.1066 643.955 20.1135 643.75 20.3015C643.571 20.4657 643.746 20.5195 644.399 20.5021C644.89 20.489 645.912 20.5365 646.67 20.6075C647.625 20.6971 648.23 20.6849 648.642 20.5675C648.976 20.4723 649.236 20.4597 649.236 20.5388C649.236 20.6959 652.4 21.1453 653.506 21.1453C653.898 21.1453 654.218 21.2329 654.218 21.34C654.218 21.485 653.662 21.5246 652.039 21.495C650.84 21.4732 649.392 21.4106 648.821 21.3558V21.3558ZM631.743 16.1906C632.042 16.1563 632.485 16.196 632.726 16.2788C633.034 16.3845 632.872 16.403 632.181 16.3411C631.62 16.2907 631.432 16.2261 631.743 16.1906ZM130.28 15.6263C130.28 15.5675 130.848 15.5058 131.541 15.4892C132.262 15.4718 132.695 15.5175 132.553 15.596C132.264 15.7566 130.279 15.7831 130.28 15.6263ZM630.554 14.729L629.516 14.7181L630.484 14.5849C631.578 14.4344 633.46 14.5503 633.46 14.7681C633.46 14.8476 633.043 14.8734 632.526 14.8259C632.012 14.7786 631.125 14.7351 630.554 14.729V14.729ZM133.601 14.7598C133.601 14.6946 133.881 14.6411 134.223 14.6411C134.566 14.6411 134.846 14.6946 134.846 14.7598C134.846 14.8251 134.566 14.8785 134.223 14.8785C133.881 14.8785 133.601 14.8251 133.601 14.7598ZM131.862 14.7812C132.162 14.7401 132.52 14.7451 132.658 14.7925C132.796 14.8398 132.551 14.8734 132.113 14.8673C131.629 14.8604 131.531 14.8267 131.862 14.7812V14.7812ZM623.418 14.4964C623.718 14.4552 624.076 14.4603 624.214 14.5076C624.352 14.5549 624.107 14.5886 623.669 14.5824C623.185 14.5756 623.087 14.5418 623.418 14.4964V14.4964ZM669.995 14.3088C669.995 14.2305 670.182 14.1664 670.41 14.1664C670.638 14.1664 670.825 14.2305 670.825 14.3088C670.825 14.3871 670.638 14.4512 670.41 14.4512C670.182 14.4512 669.995 14.3871 669.995 14.3088ZM659.2 13.9353C659.2 13.7757 659.98 13.9157 660.203 14.1153C660.422 14.3108 660.361 14.3196 659.833 14.1691C659.485 14.0701 659.2 13.9649 659.2 13.9353ZM655.049 13.9528C655.049 13.8353 655.122 13.7391 655.212 13.7391C655.302 13.7391 655.483 13.8353 655.614 13.9528C655.745 14.0703 655.672 14.1664 655.451 14.1664C655.23 14.1664 655.049 14.0703 655.049 13.9528ZM111.519 9.08421C111.819 9.04306 112.177 9.04813 112.315 9.09543C112.453 9.14276 112.208 9.17643 111.77 9.17023C111.286 9.16342 111.188 9.12966 111.519 9.0842V9.08421ZM493.775 6.20038C493.643 6.12746 493.706 6.03169 493.914 5.98757C494.122 5.94343 494.4 6.0031 494.531 6.12015C494.789 6.35089 494.165 6.41709 493.775 6.20038ZM690.835 67.3267C691.074 67.2288 691.107 67.1467 690.908 67.1444C690.708 67.142 690.895 67.0704 691.322 66.9853C692.417 66.767 691.447 66.5798 689.3 66.5954C688.179 66.6035 687.909 66.6375 688.47 66.7C689.261 66.7883 689.85 67.1508 689.196 67.1468C687.977 67.1391 687.097 66.953 687.287 66.743C687.472 66.538 687.423 66.5398 686.901 66.757C686.192 67.0523 683.032 67.1066 682.759 66.8282C682.621 66.6869 682.452 66.6878 681.939 66.8329C681.131 67.0617 680.654 67.6176 681.341 67.5307C681.608 67.4969 681.766 67.3829 681.692 67.2773C681.598 67.1432 681.789 67.1572 682.326 67.324C682.94 67.5145 683.83 67.5568 686.748 67.5337C689.068 67.5153 690.559 67.4398 690.835 67.3268L690.835 67.3267ZM696.534 67.0128C697.088 66.8955 696.822 66.579 696.17 66.579C695.696 66.579 695.281 66.9812 695.669 67.0635C695.841 67.1 696.231 67.0772 696.534 67.0128ZM687.75 65.8669C688.21 65.6146 688.162 65.5795 687.331 65.5603C686.816 65.5484 686.113 65.5282 685.771 65.5154C684.663 65.474 684.455 65.6041 685.186 65.881C686.108 66.2308 687.098 66.2253 687.75 65.8669V65.8669ZM436.256 64.8071C436.256 64.7725 436.07 64.7047 435.841 64.6562C435.613 64.6078 435.426 64.6361 435.426 64.7191C435.426 64.802 435.613 64.8699 435.841 64.8699C436.07 64.8699 436.256 64.8416 436.256 64.8071ZM431.385 64.7098C431.104 64.6125 430.769 64.5687 430.641 64.6125C430.513 64.6564 430.743 64.736 431.153 64.7895C431.744 64.8668 431.792 64.8505 431.385 64.7098ZM654.218 64.3176C654.218 64.2489 653.93 64.1106 653.578 64.0103C653.08 63.8686 652.827 63.866 652.44 63.9988C652.053 64.1316 652.08 64.1995 652.561 64.3039C653.344 64.4737 654.218 64.481 654.218 64.3176V64.3176ZM185.496 63.0184C185.496 62.94 185.227 62.8759 184.898 62.8759C184.569 62.8759 184.184 62.94 184.043 63.0184C183.902 63.0967 184.171 63.1608 184.642 63.1608C185.112 63.1608 185.496 63.0967 185.496 63.0184ZM192.554 62.8671C192.554 62.7049 191.439 62.6884 191.154 62.8464C191.043 62.9084 191.312 62.9685 191.753 62.9799C192.194 62.9913 192.554 62.9405 192.554 62.8671ZM604.276 62.6373C604.65 62.3033 604.081 62.2543 602.646 62.4969C601.897 62.6235 601.472 62.7367 601.7 62.7484C603.45 62.8387 604.082 62.8114 604.276 62.6373V62.6373ZM245.28 62.3062C245.28 62.2279 245.198 62.1638 245.097 62.1638C244.996 62.1638 244.799 62.2279 244.658 62.3062C244.516 62.3846 244.599 62.4487 244.841 62.4487C245.082 62.4487 245.28 62.3846 245.28 62.3062ZM251.266 62.1829C251.445 62.0836 251.479 61.964 251.342 61.917C250.97 61.7895 250.565 61.977 250.766 62.1835C250.906 62.3282 251.004 62.3281 251.266 62.1827V62.1829ZM249.743 62.2119C250.593 62.0942 250.332 61.8994 249.432 61.9801C248.975 62.0211 248.602 62.1112 248.602 62.1804C248.602 62.3162 248.925 62.3251 249.743 62.2119ZM50.706 61.4992C51.1837 61.3353 51.0083 61.1668 50.36 61.1668C50.0175 61.1668 49.7373 61.263 49.7373 61.3805C49.7373 61.6029 50.2283 61.663 50.706 61.4992ZM565.942 60.6267C566.054 60.5646 565.781 60.5044 565.335 60.4929C564.889 60.4814 564.633 60.5321 564.766 60.6057C565.06 60.769 565.667 60.7798 565.942 60.6267ZM562.2 60.382C562.07 60.2653 561.656 60.1649 561.281 60.1589C560.905 60.1528 559.758 60.119 558.73 60.0838C557.383 60.0375 557.036 60.0598 557.485 60.1638C557.999 60.2827 558.005 60.3083 557.519 60.3101C557.196 60.3114 557.048 60.3522 557.19 60.401C557.332 60.4498 558.571 60.5133 559.943 60.542C562.021 60.5855 562.398 60.5588 562.2 60.382V60.382ZM731.629 60.0373C731.936 59.8668 731.155 59.698 730.602 59.8152C730.138 59.9137 730.443 60.1698 731.024 60.1698C731.225 60.1698 731.498 60.1102 731.629 60.0373ZM727.703 56.3328C727.703 56.259 727.518 56.1596 727.292 56.1117C727.057 56.0618 726.987 56.119 727.129 56.2457C727.405 56.4925 727.703 56.5376 727.703 56.3328V56.3328ZM724.658 56.2594C724.658 56.1453 724.499 56.0857 724.305 56.1268C724.111 56.168 724.06 56.2613 724.192 56.3342C724.527 56.5205 724.658 56.4996 724.658 56.2594ZM1.16286 37.6666C1.5054 37.5907 1.5988 37.5285 1.37042 37.5285C1.14211 37.5285 0.675021 37.5907 0.33256 37.6666C-0.00997608 37.7425 -0.1033 37.8047 0.125007 37.8047C0.353314 37.8047 0.820327 37.7425 1.16286 37.6666ZM683.28 27.0968C683.28 27.0351 682.906 26.9847 682.45 26.9847C681.993 26.9847 681.619 27.0448 681.619 27.1183C681.619 27.1917 681.993 27.2422 682.45 27.2304C682.906 27.2186 683.28 27.1585 683.28 27.0968ZM665.894 25.0051L666.868 24.7347L664.383 24.6216C663.017 24.5593 660.918 24.5048 659.72 24.5003C658.521 24.4959 657.54 24.4486 657.54 24.3954C657.54 24.2845 655.067 24.5053 654.681 24.6507C654.541 24.7036 655.002 24.7093 655.707 24.6634C656.495 24.612 657.453 24.6644 658.198 24.7994C658.863 24.9201 660.389 25.0251 661.588 25.0327C662.786 25.0403 663.767 25.098 663.767 25.161C663.767 25.3652 664.896 25.2825 665.894 25.0051V25.0051ZM671.128 25.0471C670.99 24.9998 670.632 24.9947 670.332 25.0359C670.001 25.0813 670.099 25.1151 670.583 25.1219C671.02 25.1281 671.266 25.0944 671.128 25.0471V25.0471ZM678.68 23.0798C678.698 22.9297 678.6 22.8456 678.462 22.8929C678.324 22.9402 678.31 23.0631 678.43 23.1659C678.562 23.2795 678.66 23.2458 678.68 23.0798H678.68ZM667.342 21.8828C667.226 21.8184 667.513 21.6534 667.981 21.5162C668.817 21.2706 668.789 21.2599 666.261 20.8499C663.217 20.356 662.937 20.3448 662.937 20.7179C662.937 20.8935 663.216 21.0036 663.663 21.005C664.252 21.0068 664.279 21.0313 663.803 21.1347C663.48 21.2049 662.872 21.2396 662.453 21.2119C662.034 21.1842 661.691 21.2269 661.691 21.3067C661.691 21.3866 662.299 21.4405 663.041 21.4266C663.783 21.4126 664.764 21.4087 665.22 21.4179C665.912 21.4317 665.947 21.4575 665.428 21.5725C664.896 21.6905 664.911 21.7109 665.532 21.7128C665.931 21.7141 666.258 21.7791 666.258 21.8574C666.258 21.9357 666.549 21.9998 666.905 21.9998C667.261 21.9998 667.458 21.9472 667.342 21.8828V21.8828ZM662.033 20.7335C662.451 20.645 662.434 20.5856 661.956 20.4492C661.284 20.2579 660.748 20.425 661.211 20.6816C661.376 20.7731 661.738 20.796 662.033 20.7335V20.7335ZM676.43 14.7361C676.571 14.6577 676.406 14.5936 676.064 14.5936C675.721 14.5936 675.325 14.6577 675.184 14.7361C675.043 14.8144 675.208 14.8785 675.55 14.8785C675.893 14.8785 676.289 14.8144 676.43 14.7361ZM667.927 14.0984C667.329 13.8513 667.089 13.8256 667.089 14.0087C667.089 14.0787 667.395 14.1763 667.77 14.2256C668.34 14.3006 668.365 14.2798 667.927 14.0984ZM81.1729 11.8C80.6863 11.633 78.0281 11.5022 77.4918 11.6188C77.1831 11.6859 77.1175 11.7481 77.3458 11.7571C79.5803 11.845 81.3623 11.8649 81.1729 11.8V11.8ZM83.6934 11.6243C84.0385 11.5492 83.7804 11.5078 82.9668 11.5078C82.2728 11.5078 81.705 11.5612 81.705 11.6265C81.705 11.778 82.9934 11.7766 83.6934 11.6241V11.6243ZM94.3675 11.4424C96.1449 11.306 100.459 11.2081 108.521 11.1213C111.282 11.0916 113.94 10.994 114.428 10.9043C114.959 10.8068 116.819 10.7572 119.061 10.7808C121.121 10.8024 122.806 10.8056 122.806 10.7877C122.806 10.7381 120.391 10.3208 120.104 10.3208C119.965 10.3208 119.967 10.3849 120.108 10.4632C120.257 10.5463 119.835 10.6056 119.094 10.6056C118.396 10.6056 117.824 10.5415 117.824 10.4632C117.824 10.3849 117.626 10.3208 117.385 10.3208C117.143 10.3208 117.085 10.4009 117.257 10.4988C117.487 10.6304 117.412 10.6393 116.97 10.5326C116.641 10.4533 115.998 10.3957 115.541 10.4047C115.084 10.4137 113.719 10.4305 112.506 10.4421C111.294 10.4537 110.389 10.5113 110.495 10.57C110.601 10.6288 109.538 10.6675 108.132 10.656C106.727 10.6444 105.25 10.6949 104.85 10.7678C104.365 10.8564 104.124 10.8487 104.124 10.7447C104.124 10.659 103.898 10.6367 103.622 10.6952C103.346 10.7538 101.524 10.8191 99.5741 10.8405C97.6238 10.8619 96.0281 10.8869 96.0281 10.8962C96.0281 10.9055 95.094 10.9339 93.9522 10.9593C92.8105 10.9847 91.8297 11.0196 91.7727 11.037C91.6752 11.0666 91.2475 11.1097 90.5272 11.1626C90.1968 11.1869 92.1456 11.6005 92.4992 11.5812C92.6134 11.5749 93.4541 11.5125 94.3674 11.4424L94.3675 11.4424ZM111.182 10.7303C111.182 10.6618 111.544 10.6057 111.988 10.6057C112.431 10.6057 112.894 10.6618 113.018 10.7303C113.141 10.7989 112.779 10.855 112.212 10.855C111.645 10.855 111.182 10.7989 111.182 10.7303ZM88.9746 10.3186C89.118 10.2389 89.4093 10.2107 89.6219 10.2557C89.8344 10.3008 90.0083 10.2736 90.0083 10.1953C90.0083 9.91951 89.3385 9.91514 88.8424 10.1877C88.5664 10.3393 88.4246 10.4633 88.5272 10.4633C88.6299 10.4633 88.8312 10.3982 88.9746 10.3186V10.3186ZM97.8619 9.76305C98.2995 9.6129 98.7443 9.51979 98.8502 9.55611C98.956 9.59245 99.9524 9.64364 101.064 9.6699C102.99 9.7154 105.379 9.42198 104.773 9.21425C104.288 9.04796 101.421 9.08688 100.795 9.26823C100.154 9.45392 98.9854 9.46008 98.4621 9.28046C98.0215 9.12933 95.9037 9.16247 95.6108 9.32509C95.212 9.54645 95.8046 10.0359 96.4714 10.0359C96.7985 10.0359 97.4242 9.91311 97.8619 9.76297V9.76305ZM93.5769 9.8716C93.7537 9.77344 93.6914 9.74567 93.4225 9.80269C93.1746 9.85526 92.8545 9.83311 92.7111 9.7535C92.3242 9.53876 91.8074 9.57817 91.8074 9.82238C91.8074 10.0733 93.1465 10.1105 93.5769 9.8716V9.8716ZM578.961 8.81059C578.823 8.76325 578.465 8.75818 578.165 8.79936C577.834 8.84483 577.932 8.87857 578.416 8.88541C578.854 8.89158 579.099 8.85794 578.961 8.81061V8.81059ZM495.21 4.76628C495.21 4.68795 495.128 4.62385 495.027 4.62385C494.926 4.62385 494.728 4.68795 494.587 4.76628C494.446 4.84462 494.528 4.9087 494.77 4.9087C495.012 4.9087 495.21 4.84462 495.21 4.76628ZM485.529 4.78069C486.199 4.61177 486.039 4.36903 485.301 4.43523C484.83 4.47746 484.528 4.41936 484.485 4.27821C484.447 4.15498 484.385 3.95802 484.346 3.84052C484.308 3.72302 483.935 3.61888 483.516 3.60908C483.098 3.59925 482.615 3.57805 482.444 3.56187C482.272 3.54567 481.572 3.48077 480.887 3.4176C479.363 3.27715 478.536 3.06734 478.84 2.89862C478.965 2.82916 478.698 2.77234 478.247 2.77234C477.796 2.77234 477.332 2.85244 477.216 2.95037C477.07 3.07407 476.901 3.08175 476.663 2.97559C476.053 2.70402 474.782 2.61926 474.112 2.80551C473.574 2.95499 473.523 2.95126 473.817 2.78373C474.087 2.63011 473.998 2.60443 473.448 2.67691C473.049 2.7294 472.471 2.77233 472.162 2.77233C471.854 2.77233 471.489 2.89393 471.351 3.04256C471.191 3.21626 470.835 3.28884 470.355 3.24579C469.295 3.15072 469.405 2.79857 470.473 2.86601C471.317 2.91929 471.318 2.91735 470.508 2.78526C470.051 2.71083 469.045 2.64542 468.272 2.63992C467.499 2.63437 465.724 2.56704 464.328 2.49021C460.709 2.29109 451.611 1.94215 447.466 1.84349C445.525 1.79732 443.096 1.73412 442.069 1.70306C439.904 1.63763 435.63 1.53348 430.029 1.40965C427.86 1.3617 424.871 1.28716 423.386 1.24403C419.819 1.14036 414.204 1.13263 413.422 1.23036C413.08 1.27319 412.006 1.35743 411.035 1.41759C410.065 1.47774 409.271 1.57412 409.271 1.63176C409.271 1.68939 409.733 1.89501 410.297 2.08866C411.133 2.37532 411.712 2.43816 413.413 2.42675C414.655 2.41831 415.445 2.4712 415.362 2.55696C415.285 2.63627 413.783 2.70644 412.025 2.71288C409.264 2.72297 407.425 2.90725 408.053 3.11085C408.334 3.20195 413.838 3.29196 413.837 3.20545C413.836 3.16309 415.097 3.14848 416.639 3.17298C418.181 3.19749 420.514 3.15934 421.824 3.08803C423.134 3.0168 424.294 2.98892 424.403 3.0261C424.511 3.06324 425.401 3.10717 426.38 3.1237C427.359 3.14023 428.677 3.20326 429.308 3.2638C429.99 3.32927 430.669 3.31305 430.982 3.22376C431.272 3.1412 433.316 3.05884 435.524 3.04073C438.257 3.01833 439.452 2.95888 439.27 2.85448C439.123 2.77017 439.32 2.78942 439.708 2.89728C440.193 3.03218 440.94 3.06448 442.102 3.00074C443.211 2.9399 443.7 2.95814 443.528 3.05387C443.234 3.21705 443.289 3.22017 447.051 3.25485C448.535 3.26853 450.17 3.33012 450.683 3.39171C451.197 3.45331 451.618 3.45132 451.618 3.3873C451.618 3.32327 452.085 3.27088 452.655 3.27088C453.226 3.27088 453.693 3.31895 453.693 3.3777C453.693 3.43645 453.985 3.48452 454.341 3.48452C454.697 3.48452 454.89 3.43039 454.771 3.3642C454.483 3.20426 458.748 3.43915 459.058 3.60028C459.624 3.89524 467.394 4.19414 467.394 3.92099C467.394 3.83762 467.592 3.76937 467.834 3.76937C468.075 3.76937 468.166 3.82904 468.034 3.90197C467.659 4.11043 468.614 4.23877 469.232 4.06286C469.646 3.94486 469.841 3.95207 469.997 4.09117C470.131 4.21126 470.814 4.26612 471.913 4.24503C472.853 4.22703 473.621 4.27214 473.621 4.3453C473.621 4.58084 475.754 4.42616 476.169 4.1606C476.389 4.01938 476.75 3.94209 476.97 3.98887C477.191 4.03564 477.276 4.12686 477.159 4.19157C477.043 4.25628 477.221 4.3452 477.555 4.38915C477.888 4.43311 478.274 4.40677 478.411 4.33061C478.563 4.24618 479.095 4.27519 479.774 4.40491C481.051 4.64903 485.023 4.90841 485.529 4.78075L485.529 4.78069ZM491.473 4.13378C491.473 3.88361 491.224 3.84678 490.868 4.04432C490.737 4.11725 490.819 4.21717 491.052 4.26636C491.284 4.31557 491.473 4.25604 491.473 4.13378V4.13378ZM489.909 3.88775C489.668 3.80498 489.225 3.76529 488.926 3.79954C488.615 3.8351 488.803 3.89966 489.364 3.95002C490.055 4.01197 490.217 3.99343 489.909 3.88775ZM346.892 3.52637C347.406 3.49243 347.826 3.41572 347.826 3.35594C347.826 3.18164 346.022 3.27639 345.843 3.46006C345.754 3.55181 345.743 3.61815 345.82 3.60748C345.896 3.59677 346.378 3.56032 346.892 3.52637H346.892ZM355.507 3.1996C354.365 3.03136 353.71 3.03136 354.469 3.1996C354.811 3.27555 355.372 3.33416 355.714 3.32984C356.125 3.32468 356.054 3.28032 355.507 3.1996V3.1996ZM352.992 3.21286C353.12 3.14183 352.851 3.11726 352.394 3.15827C351.424 3.24524 351.302 3.34201 352.161 3.34201C352.49 3.34201 352.864 3.28389 352.992 3.21286V3.21286ZM406.439 2.89055C407.092 2.66522 406.795 2.64959 401.664 2.63899C398.655 2.63269 395.777 2.60006 395.268 2.56631C394.759 2.53257 394.245 2.55875 394.127 2.62447C394.008 2.6902 393.34 2.7304 392.641 2.7138C390.752 2.66894 390.743 2.87629 392.631 2.93808C393.524 2.96729 394.166 2.94187 394.058 2.88175C393.717 2.69257 394.356 2.76276 395.007 2.98595C395.713 3.22824 397.467 3.27187 397.854 3.05678C398.025 2.96195 398.385 2.96415 398.925 3.06333C399.845 3.23209 400.71 3.1174 400.287 2.88284C400.102 2.78027 400.205 2.77052 400.592 2.85383C400.913 2.9229 402.202 3.01347 403.458 3.0551C405.255 3.11466 405.89 3.07964 406.439 2.89053V2.89055ZM373.151 3.05714C373.151 2.97881 373.069 2.91473 372.968 2.91473C372.868 2.91473 372.67 2.97881 372.529 3.05714C372.387 3.13548 372.47 3.19957 372.712 3.19957C372.953 3.19957 373.151 3.13548 373.151 3.05714ZM389.758 2.77229C390.132 2.68934 390.183 2.63335 389.886 2.63204C389.614 2.63075 389.276 2.69395 389.135 2.77229C388.817 2.94912 388.96 2.94912 389.758 2.77229ZM227.601 2.75287C227.386 2.63363 228.968 2.49337 229.288 2.60328C229.734 2.7564 231.58 2.78533 231.58 2.63918C231.58 2.54879 232.761 2.52701 234.797 2.57988C237.294 2.6447 238.341 2.6113 239.468 2.4309C240.267 2.30303 240.606 2.22779 240.221 2.2637C239.836 2.29962 239.463 2.27327 239.391 2.20525C239.319 2.13721 238.98 2.0607 238.638 2.03523C238.295 2.00979 237.878 1.92486 237.71 1.84652C237.542 1.76818 237.402 1.84445 237.398 2.01611C237.392 2.31106 237.33 2.31693 236.25 2.12351C235.226 1.93996 235.05 1.9445 234.534 2.16756C233.987 2.40406 233.971 2.40403 234.209 2.16756C234.403 1.97521 234.231 1.91832 233.456 1.91832C232.903 1.91832 232.261 2.03048 232.028 2.16756C231.793 2.30588 231.599 2.33757 231.592 2.23878C231.579 2.05227 230.334 1.98179 230.334 2.16756C230.334 2.22631 228.922 2.27067 227.196 2.26615C225.469 2.26161 223.964 2.30968 223.85 2.37297C223.736 2.43624 223.243 2.48801 222.754 2.48801C222.043 2.48801 221.969 2.52362 222.384 2.66604C222.903 2.84429 227.916 2.92828 227.601 2.75345V2.75287ZM220.785 2.74859C220.785 2.6833 220.645 2.62557 220.474 2.62028C220.303 2.61499 219.565 2.58384 218.834 2.55106C217.192 2.47733 216.607 2.72167 218.187 2.8215C219.749 2.92019 220.785 2.89113 220.785 2.74859V2.74859ZM250.677 2.27382C250.677 2.19549 251.378 2.13141 252.234 2.13141C253.09 2.13141 253.928 2.19549 254.096 2.27382C254.3 2.36877 254.404 2.36877 254.408 2.27382C254.418 2.09539 256.905 2.05318 256.905 2.23147C256.905 2.30318 257.075 2.32586 257.282 2.28186C257.678 2.19803 261.33 2.06343 265.208 1.98972C266.464 1.96586 267.492 1.93195 267.492 1.91435C267.492 1.81889 272.954 1.81742 273.304 1.9128C273.928 2.08304 278.078 2.20182 278.078 2.04941C278.078 1.977 278.359 1.91777 278.701 1.91777C279.044 1.91777 279.324 1.97962 279.324 2.05522C279.324 2.14103 282.248 2.16733 287.108 2.12526C291.39 2.0882 295.343 2.05854 295.894 2.05936C296.445 2.06065 297.519 2.00176 298.281 1.92957C299.115 1.85064 299.667 1.85015 299.667 1.92828C299.667 2.05771 301.119 2.03674 301.513 1.90162C301.626 1.86265 303.516 1.85354 305.711 1.88139C308.357 1.91496 309.901 1.87573 310.29 1.76501C310.747 1.63491 310.878 1.6412 310.883 1.79345C310.887 1.91695 311.001 1.93414 311.194 1.84013C311.377 1.75083 313.739 1.68427 317.104 1.67363C320.187 1.66393 329.528 1.61921 337.862 1.57441C346.197 1.52963 356.892 1.48444 361.63 1.47401C366.368 1.46369 370.246 1.41494 370.246 1.36593C370.246 1.31689 371.274 1.27678 372.53 1.27678C373.785 1.27678 374.812 1.32485 374.812 1.3836C374.812 1.44235 375.01 1.49043 375.252 1.49043C375.493 1.49043 375.576 1.42633 375.435 1.34799C375.294 1.26967 375.469 1.20558 375.825 1.20558C376.181 1.20564 376.473 1.14155 376.473 1.06322C376.473 0.984885 376.67 0.92079 376.912 0.92079C377.154 0.92079 377.236 0.984885 377.095 1.06322C376.944 1.14734 377.401 1.20476 378.213 1.20346C379.252 1.20165 379.435 1.16771 378.964 1.06322C378.504 0.961251 378.484 0.924583 378.889 0.922971C379.312 0.921165 379.295 0.871677 378.815 0.707151C378.473 0.589652 377.806 0.493512 377.333 0.493512C376.86 0.493512 376.473 0.425099 376.473 0.341482C376.473 0.251303 376.114 0.228545 375.59 0.285545C374.997 0.35019 374.801 0.330034 374.992 0.223932C375.148 0.137192 375.166 0.0662341 375.031 0.0662341C374.896 0.0662341 374.643 0.198047 374.469 0.359157L374.153 0.652092L373.059 0.35665C372.308 0.154146 371.873 0.111581 371.675 0.221362C371.471 0.334906 371.286 0.325285 371.039 0.188272C370.756 0.0312297 367.907 -0.00397929 355.833 0.000341861C347.662 0.00336022 337.613 0.0468127 333.503 0.097147C329.393 0.147471 322.574 0.225808 318.349 0.271233C303.096 0.435214 299.166 0.494812 298.825 0.567281C298.061 0.729209 294.715 0.872849 294.209 0.76545C293.897 0.699268 293.533 0.722899 293.347 0.821493C293.106 0.948731 292.921 0.937785 292.615 0.778361C292.391 0.66086 292.204 0.628813 292.2 0.707151C292.195 0.797041 289.628 0.843224 285.239 0.832365C278.304 0.815184 266.454 1.04509 266.453 1.19686C266.453 1.24086 265.005 1.26964 263.236 1.26085C260.203 1.24576 253.218 1.44067 251.98 1.57495C251.523 1.62449 251.514 1.67773 251.935 1.85152C252.359 2.02665 252.348 2.05507 251.878 2.00414C251.56 1.96973 250.779 1.90228 250.141 1.85428C249.428 1.80049 249.075 1.70026 249.223 1.59314C249.355 1.49752 249.245 1.51961 248.979 1.6422C248.588 1.82249 248.054 1.8446 246.19 1.75781C244.879 1.69678 243.571 1.70813 243.157 1.78412C242.756 1.85764 241.903 1.9265 241.26 1.93717C240.183 1.95502 240.17 1.96167 241.092 2.02131C241.867 2.07142 241.961 2.11486 241.507 2.21337C240.865 2.35275 241.405 2.37021 247.252 2.39926C249.292 2.40934 250.677 2.35866 250.677 2.27383L250.677 2.27382ZM371.34 0.992815C371.47 0.875755 371.745 0.815457 371.949 0.858803C372.535 0.983082 372.383 1.20563 371.711 1.20563C371.341 1.20563 371.195 1.12208 371.34 0.992815V0.992815ZM395.553 1.47968C395.126 1.20579 395.151 1.17469 395.739 1.25205C396.325 1.32921 396.352 1.29802 395.929 1.02732L395.439 0.712997L395.026 1.03053C394.552 1.39484 393.695 1.44781 393.344 1.13442C393.213 1.01692 393.255 0.920778 393.438 0.920778C393.621 0.920778 393.771 0.823859 393.771 0.705387C393.771 0.530271 393.396 0.507064 391.765 0.581311C390.394 0.643687 389.758 0.621684 389.758 0.511868C389.758 0.422558 389.101 0.351083 388.28 0.351083C387.312 0.351083 386.9 0.405033 387.085 0.507719C387.286 0.619073 387.115 0.61813 386.496 0.504444C385.772 0.371561 385.666 0.381198 385.868 0.561443C386.001 0.680748 386.277 0.778369 386.481 0.778369C386.685 0.778369 386.852 0.842461 386.852 0.920786C386.852 1.21768 386.101 1.04608 385.606 0.635937C385.029 0.157605 385.014 0.154975 383.973 0.346053C383.448 0.442444 383.286 0.592948 383.429 0.85045C383.542 1.05231 383.47 1.1988 383.271 1.17595C383.071 1.15312 382.814 1.19705 382.7 1.27362C382.577 1.35595 383.564 1.42268 385.116 1.43697C387.514 1.45906 387.778 1.43181 388.192 1.11975C388.639 0.78327 390.173 0.635716 390.173 0.92919C390.173 1.01216 389.988 1.04087 389.763 0.993016C389.531 0.943899 389.456 0.998436 389.589 1.11804C389.728 1.24194 390.1 1.29417 390.483 1.24365C390.91 1.18748 391.037 1.21409 390.847 1.3197C390.513 1.50508 391.893 1.64197 393.494 1.58235C394.065 1.56112 394.873 1.60069 395.29 1.67031C395.969 1.78374 395.997 1.76395 395.553 1.47969V1.47968ZM384.196 0.944523C384.078 0.879246 384.246 0.825839 384.568 0.825839C384.891 0.825839 385.058 0.879246 384.941 0.944523C384.823 1.0098 384.656 1.06321 384.568 1.06321C384.481 1.06321 384.314 1.0098 384.196 0.944523ZM401.146 1.50667C401.271 1.43724 401.001 1.34705 400.546 1.30622C399.995 1.25678 399.803 1.15625 399.972 1.00519C400.112 0.880431 400.05 0.778357 399.836 0.778357C399.266 0.778357 399.358 1.2436 399.969 1.45319C400.589 1.66577 400.839 1.67713 401.146 1.50667ZM398.6 1.11068C398.483 1.00623 398.334 0.920778 398.269 0.920778C398.204 0.920778 398.054 1.00623 397.938 1.11068C397.821 1.21513 397.97 1.30059 398.269 1.30059C398.568 1.30059 398.717 1.21513 398.6 1.11068ZM396.999 0.711674C396.556 0.596667 395.784 0.50053 395.283 0.498035C394.293 0.493004 393.662 0.709078 394.282 0.840624C394.495 0.885683 394.741 0.84893 394.828 0.758821C394.948 0.635778 395.208 0.63554 395.874 0.757534C397.15 0.991843 397.953 0.958825 396.999 0.711276V0.711674ZM402.516 0.692299C402.378 0.644972 402.02 0.63991 401.72 0.681076C401.389 0.726537 401.487 0.760289 401.971 0.767115C402.408 0.773281 402.654 0.739641 402.516 0.692314V0.692299ZM380.624 0.635917C381.156 0.517935 381.141 0.49753 380.52 0.495665C380.121 0.494375 379.794 0.557576 379.794 0.635917C379.794 0.809625 379.841 0.809625 380.624 0.635917ZM382.854 0.418991C383.052 0.241994 382.945 0.229803 382.276 0.352784C381.313 0.529476 381.222 0.635917 382.033 0.635917C382.351 0.635917 382.72 0.538294 382.854 0.418991V0.418991Z" fill="white" fill-opacity="0.4"/>
</svg>
