<svg width="34" height="34" viewBox="0 0 34 34" fill="none" xmlns="http://www.w3.org/2000/svg">
<path d="M33.7999 16.9998C33.7999 26.2776 26.2778 33.7998 17 33.7998C7.72215 33.7998 0.199951 26.2776 0.199951 16.9998C0.199951 7.72201 7.72215 0.199806 17 0.199806C26.2778 0.199806 33.7999 7.72201 33.7999 16.9998ZM16.0102 10.41L7.61015 18.81C7.33715 19.083 7.19995 19.4414 7.19995 19.7998C7.19995 20.1582 7.33715 20.5166 7.61015 20.7896C8.15755 21.337 9.04235 21.337 9.58975 20.7896L17 13.3794L24.4102 20.7896C24.9576 21.337 25.8424 21.337 26.3898 20.7896C26.9372 20.2422 26.9372 19.3574 26.3898 18.81L17.9897 10.41C17.4424 9.8626 16.5576 9.8626 16.0102 10.41Z" fill="white"/>
</svg>
